<svg xmlns="http://www.w3.org/2000/svg" xmlns:xlink="http://www.w3.org/1999/xlink" height="900" width="1500">
  <path fill="#171796" d="M0 0h1500v900H0z"/>
  <path fill="#fff" d="M0 0h1500v600H0z"/>
  <path fill="red" d="M0 0h1500v300H0z"/>
  <path d="M750.056 682.778c96.227 0 174.953-78.73 174.953-174.953V299.93H575.097v207.895c0 96.227 78.73 174.953 174.953 174.953z" fill="red"/>
  <path d="M750.056 679.975c94.392 0 171.616-77.23 171.616-171.617v-205.06H578.435v205.06c0 94.392 77.228 171.617 171.62 171.617z" fill="#fff"/>
  <g fill="red">
    <path d="M650.874 309.75h-66.046v72.564h66.046z"/>
    <path d="M650.874 454.873h66.045v-72.56h-66.046zM584.828 507.954c0 6.59.41 13.09 1.17 19.483h64.876v-72.564h-66.046zM782.97 454.873h-66.05v72.564h66.05zM782.97 599.996h66.045v-72.56H782.97zM849.015 639.69c14.644-11.055 27.41-24.477 37.708-39.69h-37.708z"/>
    <path d="M650.878 599.996h66.046v-72.56h-66.046zM613.108 599.996c10.312 15.235 23.1 28.675 37.77 39.738v-39.738zM761.447 672.56c7.31-.512 14.494-1.498 21.518-2.938v-69.626H716.92v69.635c7.002 1.436 14.168 2.418 21.455 2.925 7.69.475 15.382.45 23.068 0zM913.826 527.437c.764-6.416 1.173-12.94 1.173-19.55v-53.01h-65.99v72.564h64.816zM782.97 454.873h66.045v-72.56H782.97zM782.97 309.75h-66.046v72.564h66.046zM915 382.314V309.75h-65.985v72.564z"/>
  </g>
  <g>
    <path d="M918.695 297.803l40.952-92.828-31.2-50.38-51.69 19.136-36.29-41.483-47.82 27.404-42.64-34.92-42.64 34.92-47.82-27.403-36.296 41.48-51.69-19.136-31.207 50.394 40.898 92.846c51.536-23.326 108.678-36.322 168.76-36.322 60.058 0 117.173 12.987 168.694 36.295z" fill="#fff"/>
    <path d="M624.39 177.828l-.077.09-51.26-18.982-28.683 46.314 10.988 24.983 27.835 63.19c20.785-9.19 42.453-16.724 64.842-22.43l-23.642-93.16z" fill="#0093dd"/>
    <path d="M621.44 223.627c1.834 3.478 2.873 7.437 2.873 11.627 0 13.8-11.254 25.054-25.054 25.054-12.16 0-22.345-8.744-24.593-20.264 4.327 7.65 12.543 12.83 21.926 12.83 13.867 0 25.18-11.306 25.18-25.178 0-1.386-.117-2.745-.334-4.074z" fill="#fff" stroke="#000" stroke-width=".52464372"/>
    <path d="M593.03 216.784l-.084.414-.316-.28-6.913-6.007-8.67 2.96-.403.137.084-.417 1.747-8.988-6.896-6.03-.32-.28.4-.137 8.658-2.982 1.773-8.988.086-.413.315.275 6.914 6.012 8.67-2.96.403-.138-.084.413-1.746 8.993 6.9 6.03.315.275-.4.137-8.66 2.986"/>
    <g fill="#f7db17">
      <path d="M588.072 201.73l6.464 5.64 8.09-2.786zM588.125 201.447l14.56 2.848-6.443-5.634zM572.494 198.386l14.556 2.848-6.465-5.634zM586.996 201.523l-14.56-2.848 6.443 5.63zM587.81 200.976l9.747-11.183-8.1 2.763zM577.342 212.986l9.748-11.184-8.113 2.782zM587.312 201.993l-9.748 11.184 8.1-2.764zM597.78 189.984l-9.748 11.183 8.113-2.78zM587.245 201.012l-4.812-14.032-1.657 8.398zM592.412 216.082l-4.81-14.03-1.65 8.414zM587.876 201.953l4.812 14.036 1.657-8.398zM582.71 186.883l4.81 14.035 1.65-8.42z"/>
    </g>
    <path d="M707.81 163.886l-.088.07-47.42-27.173-35.913 41.045 23.64 93.16c21.94-5.584 44.568-9.396 67.72-11.31l-7.943-95.792z" fill="#171796"/>
    <g fill="red">
      <path d="M642.165 247.868c23.198-5.905 47.132-9.94 71.618-11.96l-2.01-24.215c-25.84 2.137-51.102 6.393-75.588 12.622l5.976 23.553zM630.28 201.047c25.757-6.558 52.326-11.032 79.508-13.28l-1.972-23.77c-28.516 2.354-56.387 7.055-83.405 13.93z"/>
    </g>
    <g transform="matrix(.00444 0 0 .00444 -150 0)">
      <path d="M212105 36890l-23 13-9517-7794-9497 7778 1788 21560c2543-210 5113-322 7709-322 2608 0 5190 113 7744 325l1795-21560z" fill="#0093dd"/>
      <g id="a">
        <path d="M202545 46585c-18-2-44 10-69 45-186 250-359 469-545 720-195 61-242 180-167 348-261-26-291 193-302 432-250-379-522-482-814-307-11-230-187-338-439-392-180-10-319-65-436-145-60-42-110-64-170-106-126-88-226-5-172 74 267 434 535 868 802 1302-14 80 6 151 88 204 47 133 93 265 140 397-11 38-21 75-32 113-221-105-443-118-664-133-170-8-287-50-361-137-54-63-91-26-92 82-3 534 162 1014 599 1492-231 4-462 11-694 21-79 6-95 39-73 104 126 304 339 579 822 766-208 112-327 285-357 520-9 224-75 382-212 455-60 32-81 65-24 106 253 185 565 193 895 112-157 270-226 553-198 850 208 56 412 15 614-52-29 61-44 175-52 309-7 115-41 229-104 343-32 33-65 84 4 102 336 91 648 52 915-47 0 243 2 487 76 727 18 58 70 102 125 26 155-214 322-396 527-517 31 90 75 168 156 215 96 55 147 170 153 343 0 30-2 60 35 90 149 7 514-380 589-597 206 121 284 246 439 461 55 76 99 29 128-25 62-243 67-481 66-724 267 99 579 138 915 47 69-19 36-70 4-102-62-114-105-250-113-365-9-133-14-226-43-287 202 68 405 108 614 52 29-297-53-579-211-850 330 80 655 73 908-112 57-41 35-74-24-106-136-73-203-231-212-455-30-235-149-409-357-520 483-187 696-463 822-766 22-66 6-99-73-104-231-10-480-24-711-27 437-478 606-961 604-1495-1-108-38-146-92-82-74 87-179 137-348 146-222 15-435 24-656 128-11-38-21-75-32-113 46-132 106-260 153-393 82-53 102-123 88-204 267-434 513-868 781-1302 54-79-46-162-171-74-60 42-110 64-170 106-117 80-257 134-437 145-251 54-417 167-428 397-293-175-564-73-814 307-11-239-41-457-302-432 75-168 17-291-178-352-186-250-458-470-644-720-31-35-51-47-69-45z"/>
        <g fill="#f7db17">
          <path d="M205075 47978c-51-26-124 17-162 95s-33 170 19 196c40 20 84-6 119-56l22-36c2-3 4-6 5-9 38-78 49-163-2-188zM200067 47978c52-26 124 17 162 95s39 165-13 191-103-24-141-102-60-158-9-184zM204606 48883c-32 0-59 27-59 59s26 59 59 59 59-26 59-59c0-32-26-59-59-59zM200574 48883c-32 0-59 26-59 59 0 32 26 59 59 59s59-26 59-59-26-59-59-59zM204868 48579c-754-91-1506-133-2260-133s-1509 41-2269 115c-26 8-21 90 14 86 756-73 1507-113 2256-113 743 0 1485 40 2228 129 39 4 54-80 32-84z"/>
          <path d="M200319 48495c768-75 1530-117 2289-116 754 0 1507 42 2261 133l111-184c-32 10-62 9-90-5-76-38-92-161-36-274 56-114 164-175 240-138 39 19 62 62 68 114l446-739c-204 130-328 214-581 252-281 41-409 139-368 307 38 156-57 133-201 54-314-171-541 71-652 353-73 186-159 181-168-13-4-70 0-131-7-200-21-223-89-286-216-224-161 78-175 25-137-58 28-60 86-128 66-221-9-67-66-92-151-98-182-244-467-483-649-727-182 244-374 483-556 727-86 5-142 30-152 98-20 93 52 157 80 217 38 82 23 135-137 57-127-61-186-3-207 220-7 69-10 139-13 209-9 194-95 199-168 13-111-282-352-524-667-353-145 79-203 102-182-54 23-172-107-266-388-307-253-37-377-122-581-252l419 682c12-25 29-45 53-57 76-38 184 24 240 138 56 113 40 237-36 274-10 5-21 8-32 10l100 163zM204708 49406c-7 3-7 4-24 11-46 19-80 66-134 124-57 60-128 125-211 188-12 10-25 19-44-6s-7-35 6-44c80-62 149-124 204-182 30-32 56-63 77-92-95-11-190-21-284-30-79 24-157 55-222 95-59 35-107 77-137 125-8 14-16 27-44 11-27-16-19-30-11-44 35-58 91-107 158-147 33-20 69-38 106-54-107-9-214-18-321-25-22 13-42 29-61 47-20 19-39 42-56 67-9 13-18 26-44 8s-18-31-8-44c19-29 41-54 64-77l9-9c-80-5-161-10-241-14-2 2-5 5-8 7-21 18-40 38-55 59s-28 43-38 67c-6 15-12 29-41 18-29-12-23-26-17-41 12-29 27-55 45-81 8-11 18-22 27-33-115-5-230-9-344-12-4 5-9 8-14 11-25 15-47 32-66 51s-35 40-48 63c-8 14-16 28-43 12-28-16-20-29-12-43 16-28 35-54 59-77 7-7 14-13 21-19-122-2-244-4-365-4-120 0-240 1-360 3 8 7 15 13 22 20 23 23 42 49 59 77 8 14 16 27-12 43s-35 2-44-12c-13-23-29-44-48-63s-41-36-66-51c-6-3-12-7-15-12-115 2-230 6-345 11 11 11 20 23 29 35 19 25 33 52 45 81 6 15 12 29-17 41s-35-3-41-18c-9-24-22-46-38-67-15-21-34-41-55-59-4-3-7-6-10-10-81 4-162 8-243 13 4 4 9 8 13 12 24 23 45 48 64 77 9 13 18 26-8 44s-35 5-44-8c-18-26-36-48-56-67s-41-35-64-49c-1-1-3-2-5-3-110 7-220 14-330 23 43 18 85 38 122 61 67 40 124 89 158 147 8 14 16 27-11 44-27 16-35 3-44-11-29-48-78-90-137-125-72-44-159-77-246-102h-2c-90 7-179 15-268 24 22 33 51 68 86 106 55 58 124 120 204 182 13 9 25 19 6 44s-32 15-44 6c-83-64-155-128-211-188-37-38-99-111-135-140-196-90-354-127-575-147-153-14-318-9-458-79 36 85 75 164 126 229 53 68 120 121 209 147 8 2 21 16 22 25 28 157 84 286 169 386 52 60 114 110 188 149-75-81-132-166-172-251-67-142-90-286-77-420 1-16 3-32 34-29 32 3 30 19 29 35-11 123 9 256 72 387 56 118 159 237 291 346 24 19 0 63-29 55-154-44-290-123-383-231-89-104-149-237-180-397-94-32-165-90-222-164-47-60-85-131-118-205 28 428 182 801 456 1137 61 75 165 182 255 216 92 35 95 100-20 101-34 1-69 1-105 1 84 31 164 66 233 105 127 73 217 162 224 273 1 16 2 32-29 34-32 2-33-14-34-29-6-86-82-160-192-223-113-65-259-117-402-160-154 0-312-1-459 3 39 28 80 57 131 84 82 44 188 86 343 122 89 21 166 52 233 91 71 42 130 93 177 150 10 12 20 25-5 45s-34 8-45-5c-42-52-95-98-159-135-61-36-133-64-216-84-161-38-272-81-358-128-75-40-131-82-184-123 180 393 450 573 835 689 23 7 43 13 61 19 3 1 6 1 9 2 86 21 175 40 266 55 92 15 166 28 261 37 16 1 32 3 29 34-3 32-19 30-34 29-99-9-174-22-266-38-58-10-115-21-171-33-26 6-64 9-107 12-232 14-420 225-435 494 0 5 0 11-1 16 88-80 179-157 273-212 117-68 239-103 364-69 15 4 31 8 22 39-8 31-23 27-39 22-106-28-212 3-316 63-108 63-213 158-315 253-24 147-82 285-205 377 61 34 104 65 163 45 86-39 172-78 261-108 91-31 184-52 282-57 16-1 32-1 33 31s-14 32-31 33c-91 4-179 24-264 53-75 26-149 58-222 91 221 47 460-1 667-79 60-22 105-42 133-41 51-30 112-53 172-79 66-28 132-51 182-57 16-2 32-4 35 28 4 32-12 33-28 35-112 13-127 21-222 79 0 21-66 57-126 96-36 24-70 52-87 67-95 86-144 181-188 287-29 70-52 145-68 224 55-108 121-211 201-303 94-108 208-201 345-265 14-7 29-13 42 15 13 29-1 35-15 42-129 60-236 147-324 250-90 103-161 222-219 345-31 64-8 1-42 86 110-122 212-224 323-307 132-100 283-157 418-133 15 3 31 6 26 37s-21 28-37 26c-116-21-250 32-369 121-121 92-244 223-366 361 184 26 366-26 542-85 91-30 183-135 239-152 19-24 38-46 57-67 33-37 67-71 102-100 12-10 24-20 45 4s8 34-4 45c-33 28-65 60-96 94-32 35-62 73-92 113-6 8-13 17-24 16-60 70-151 162-172 240-57 210-25 370-122 576 71-38 128-81 175-134 53-60 94-135 128-230 37-104 95-195 167-270 75-77 165-136 261-172 15-5 30-11 41 19s-4 35-19 41c-87 32-169 86-238 157-66 68-119 151-153 247-37 102-81 183-141 250-44 50-95 91-156 127 52-3 78-10 121-7 79-6 211-66 279-119 66-51 116-120 154-206 6-15 13-29 42-16s23 27 16 42c-42 96-99 174-173 231-56 43-121 75-196 93 161-5 311-42 467-100 65-24 87-168 127-208 32-58 66-112 105-158 47-56 101-101 164-127 15-6 29-12 41 18 12 29-3 35-17 41-52 21-98 60-139 108-36 42-68 93-98 147 10 73-51 228-53 305-7 205-2 409 53 612 53-71 107-134 162-192 0-5 0-10 1-15 18-106 33-219 40-332 7-112 7-223-6-329-2-16-4-32 27-35 32-4 34 12 35 28 14 111 14 226 7 340-6 90-16 180-30 269 54-51 53-51 77-103 37-80 59-159 67-237 9-80 5-157-13-230-4-15-7-31 24-38s35 8 38 24c19 80 25 165 14 252-8 65-24 132-49 199 56-42 114-82 178-122-4-75-5-153-3-227 2-68 7-134 18-190 4-20 7-40 47-33s37 27 33 48c-9 50-14 111-16 177-2 78 0 162 4 243 5 82 49 185 125 230 103 62 158 163 186 274 16-145 17-280 3-400-17-143-55-267-114-368-8-14-16-27 12-44 27-16 35-2 43 12 63 110 104 241 122 393 17 146 13 310-13 488 102-82 381-258 352-594-7-27-16-52-28-75-7-14-14-28 14-42s35 0 42 14c17 33 30 69 39 110 5 24 8 49 11 76 13-7 45-43 51-39 24 16 58 38 80 54-21-60-35-120-42-178-10-87-5-172 14-252 4-15 7-31 38-24s27 23 24 38c-18 73-22 151-13 230 9 77 31 157 67 237 4 8 8 16 5 25 24 21 47 42 70 65-13-84-22-170-28-255-8-115-7-230 7-341 2-16 4-32 35-28s29 20 27 35c-13 106-13 217-6 329 7 113 22 225 40 332 1 2 1 5 1 7 54 59 95 120 152 196 55-203 73-407 66-612-2-76-69-227-65-302-30-55-63-107-100-151-41-49-87-87-139-108-15-6-29-12-18-41 12-29 27-24 41-18 62 26 117 71 164 127 38 45 72 98 103 154 57 7 78 179 143 212 154 57 298 94 453 100-75-19-140-50-195-93-74-57-131-135-173-231-6-15-13-29 16-42s35 2 42 16c38 86 88 156 154 206 85 66 289 124 400 127-61-37-113-78-157-128-59-67-104-148-141-250-34-95-87-179-153-247-68-71-150-124-238-157-15-6-29-11-19-41 11-29 26-24 41-19 96 36 186 94 261 172 72 74 130 166 167 270 34 95 75 169 128 230 47 54 105 98 177 135-98-207-66-367-122-577-35-129-232-277-193-320 45-51 133 88 248 127 175 59 357 111 540 85-122-138-244-269-366-361-119-90-237-140-352-120-16 3-31 6-37-26-5-31 10-34 26-37 135-24 269 32 401 132 111 84 201 175 311 298-18-47 0-14-30-77-59-123-130-241-220-345-89-102-196-189-324-250-14-7-28-13-15-42 13-28 28-22 42-15 137 65 251 157 345 265 81 93 147 198 203 307-15-81-39-157-68-227-44-106-93-201-188-287-62-56-209-140-208-179-29-15-33-11-63-24-61-26-121-46-164-52-16-2-32-4-28-35 4-32 19-30 35-28 50 6 115 28 182 56 33 14 66 43 98 60 53 4 139 47 208 74 206 78 446 126 666 79-73-33-147-65-223-91-85-29-172-49-264-53-16-1-32-1-31-33s17-31 33-31c98 4 191 26 282 57 89 30 175 69 261 108 59 27 101-7 163-45-123-92-181-230-205-376l-2-2c-102-95-207-190-315-253-104-60-210-91-316-63-15 4-31 8-39-22-8-31 7-35 22-39 125-33 247 1 364 69 94 55 186 132 274 213 0-6-1-11-1-17-15-270-203-480-435-494-78-5-189 21-186-32 4-59 97-44 234-86 385-116 655-296 836-690-54 41-110 83-186 124-86 47-198 91-358 128-82 19-154 48-216 84-64 38-117 84-159 135-10 12-20 25-45 5s-14-32-5-45c47-57 106-108 177-150 67-39 145-70 233-91 155-36 261-78 343-122 51-27 92-55 131-84-148-4-305-3-459-3-143 44-289 96-402 160-110 63-186 136-192 223-1 16-2 32-34 29-32-2-31-18-29-34 8-111 97-200 224-273 69-39 149-74 233-105-35 0-70 0-104-1-116-2-112-66-20-101 90-34 190-141 251-216 271-334 412-714 456-1130-33 72-69 140-115 198-57 73-128 131-222 164-31 160-91 293-180 397-92 108-216 185-369 230-29 8-52-35-29-55 132-109 221-226 278-344 62-131 83-264 72-387-1-16-3-32 29-35 31-3 33 13 34 29 12 134-10 278-78 420-40 85-97 170-172 251 73-39 136-89 187-149 85-100 141-229 170-386 1-8 14-22 22-25 89-27 155-79 209-147 51-65 90-143 126-228-140 69-304 64-457 78-213 19-369 68-554 152z"/>
          <path d="M204649 49231c-680-88-1359-113-2041-114-684 0-1369 40-2058 112-20 6-15 33-14 46 2 28 37 35 121 27 643-60 1285-93 1932-93 674 0 1351 21 2038 102 33 9 77-85 22-81z"/>
          <path d="M200570 49160c683-71 1362-110 2038-110 675 0 1349 40 2025 127l31-127c-17 9-37 15-58 15-67 0-123-55-123-123s55-123 123-123c51 0 94 31 113 75l60-170c-724-84-1446-122-2171-122-729 0-1459 38-2193 107l58 164c22-32 59-54 101-54 68 0 123 55 123 123s-55 123-123 123c-12 0-25-2-36-6l33 94-2 7zm3067-416c-68 0-123 55-123 123s55 123 123 123 123-55 123-123-55-123-123-123zm0 64c-33 0-59 27-59 59s26 59 59 59c32 0 59-27 59-59s-26-59-59-59zm-1082-91c-67 0-123 55-123 123s55 123 123 123 123-55 123-123-55-123-123-123zm0 64c-32 0-59 26-59 59s26 59 59 59 59-26 59-59c0-32-26-59-59-59zm-1064-40c-68 0-123 55-123 123s55 123 123 123c67 0 123-55 123-123s-55-123-123-123zm0 64c-33 0-59 26-59 59s26 59 59 59c32 0 59-26 59-59 0-32-26-59-59-59z" fill-rule="evenodd"/>
        </g>
        <path d="M202601 47974c-14-68-49-129-100-175-51-47-116-78-187-88-33-4-39-58-7-68 60-20 114-67 157-133 45-69 79-157 95-256 5-34 64-35 69-1 15 84 51 153 97 208 55 66 125 112 193 138 31 12 25 63-8 68-59 9-105 42-141 87-50 62-81 145-100 221-8 33-62 31-69-2zm33-118c20-52 47-103 81-146 28-34 60-64 99-84-51-30-100-70-143-120-28-34-53-73-73-116-19 59-45 112-75 158-31 47-67 86-108 116 50 19 95 47 134 82 34 31 63 68 85 110zM203433 52971l-515 206c-17 7-35 14-48-21-14-34 4-41 21-48l515-206c17-7 35-14 48 21 14 34-4 41-21 48zm59-326l-604 328c-16 9-33 18-51-15s-1-42 15-51l604-328c16-9 33-18 51 15s1 42-15 51zm-1826-65l604 328c16 9 33 18 15 51s-34 24-51 15l-604-328c-16-9-33-18-15-51s34-24 51-15zm51 322l515 206c18 7 35 14 21 48-14 35-31 28-49 21l-515-206c-17-7-34-14-21-48 14-35 31-28 48-21zm224 434c137 33 261 48 358 31 88-16 155-60 191-146v-493c-107-1-212-15-303-41-109-31-170-98-201-178-41-107-27-235-4-329 5-18 9-36 45-27s32 27 27 45c-20 82-33 194 1 284 23 60 69 110 152 133 91 25 198 38 307 38 107 0 214-13 304-40 82-24 148-69 192-123s65-117 57-176c-5-36-24-62-49-80-34-24-82-35-128-37-47-2-94 7-142 16-25 5-50 9-77 13-19 2-37 5-42-32s14-40 32-42c23-3 48-8 73-12 52-10 105-20 159-18 60 2 121 18 168 51 42 29 72 72 80 131 11 80-16 163-73 233-53 65-131 119-229 147-83 24-178 38-274 42v483c3 5 3 11 2 16 37 82 102 125 188 141 97 18 221 2 358-31 18-5 36-9 45 27 8 37-9 41-28 45-146 35-279 51-388 32-92-17-165-58-215-132-49 74-124 115-215 132-109 20-242 4-388-32-18-4-37-8-28-45 8-36 27-32 45-27zm356 210l402-9c19 0 38-1 38 37 1 38-18 38-37 38l-402 9c-19 0-37 1-38-37s18-38 37-38zM202890 50464c151-125 293-227 423-297 133-72 254-111 359-106 19 1 37 1 36 39-1 37-20 37-39 36-92-4-200 32-322 97-125 67-263 166-410 289-14 12-29 24-53-5s-9-41 5-53zm-605 56c-141-130-298-240-445-314-139-71-268-108-363-100-19 2-37 4-40-34-4-37 15-39 34-40 110-10 252 31 404 107 152 77 315 191 461 325 14 13 28 25 2 53-25 27-39 15-53 2zm-213 1004c37-83 83-155 136-219 53-63 112-119 174-170 14-12 29-24 52 5 24 29 9 41-5 53-59 48-114 101-164 160-49 59-91 125-125 201-8 17-15 34-49 19s-27-32-19-49zm371-1734c49 66 88 139 114 223 26 82 40 175 39 279 5 80 6 165-7 249-13 86-42 170-97 246-43 60-101 97-165 113-53 13-109 10-164-7 29 100 51 208 6 308-8 18-33 27-51 18-43-22-86-43-128-62s-84-36-127-51l-1-1c-95-37-173-73-236-112-65-39-115-80-150-124l1 2c-44-49-72-106-88-170-14-55-20-114-22-174-72-39-138-78-194-116-64-43-118-87-161-131-13-14-26-27 1-53s40-12 53 1c39 40 89 80 150 121 60 40 128 81 204 121 124 13 247 51 370 109 106 50 211 115 317 192 13 7 19 16 27 20 8 6 16 13 25 19 51 22 104 28 152 16 47-11 90-39 122-84 48-66 72-139 84-214 12-77 11-157 6-234v-2c1-97-12-183-35-258-24-76-58-142-102-201-11-15-22-30 7-52s41-7 52 7zm-375 1047c-104-77-207-141-311-190-105-49-210-83-314-98 2 48 8 93 18 135 13 52 35 99 71 138l1 1c30 37 73 72 130 107 60 36 134 71 225 106l-1-1c45 16 89 34 133 54 31 14 61 28 93 44 19-83-10-179-37-267-2-8-5-15-9-29zm776-1003c-44 59-79 125-102 201-24 76-36 161-35 258v2c-5 77-6 158 6 234 12 75 37 148 84 214 32 45 75 72 122 84 48 12 101 6 152-16 8-6 17-13 25-19 6-4 13-12 27-20 105-77 211-143 317-192 123-58 246-95 370-109 75-40 144-80 204-121s111-81 149-121c13-13 26-27 53-1s14 39 0 53c-43 44-97 88-161 131-57 38-122 77-194 116-2 61-8 119-22 174-16 63-44 121-88 170l1-2c-35 44-85 85-150 124-63 38-141 75-237 112l-1 1c-43 15-85 32-127 51-43 19-85 40-128 62-18 9-43 0-51-18-45-100-23-208 6-308-55 18-111 20-164 7-64-15-122-53-165-113-55-76-84-160-97-246-13-85-12-169-7-249-1-104 13-196 39-279 26-84 65-158 114-223 11-15 22-30 52-7 30 22 19 37 7 52zm940 715c-105 15-209 49-314 98-104 49-207 113-311 190-4 13-6 21-8 29-27 88-56 184-37 267 31-15 62-30 93-44 44-20 87-38 133-54l-1 1c91-35 165-70 225-106 58-34 100-70 131-107l1-1c35-39 57-86 71-138 11-42 16-87 19-135z"/>
        <path d="M203459 50602c-119 0-216 97-216 216s97 217 216 217 216-97 216-217c0-119-97-216-216-216zm0 69c-81 0-147 66-147 147s66 147 147 147 147-66 147-147-66-147-147-147zm0 60c-48 0-87 39-87 87s39 87 87 87 87-39 87-87-39-87-87-87zm-1697-124c119 0 217 97 217 216s-97 217-217 217c-119 0-216-97-216-217 0-119 97-216 216-216zm0 69c81 0 147 66 147 147s-66 147-147 147-147-66-147-147 66-147 147-147zm0 60c48 0 87 39 87 87s-39 87-87 87-87-39-87-87 39-87 87-87z" fill-rule="evenodd"/>
      </g>
      <use height="100%" width="100%" transform="rotate(-2.173 -55532.79 156275.84)" xlink:href="#a"/>
      <use height="100%" width="100%" transform="rotate(2.18 459865.85 156275.76)" xlink:href="#a"/>
    </g>
    <g>
      <path d="M875.107 177.755l-.11.04-35.965-41.105-47.286 27.102-7.974 95.726c23.14 1.918 45.75 5.74 67.67 11.326l23.66-93.084z" fill="#171796"/>
      <path d="M801.075 183.652c1.642-.4 3.263-.484 4.835.48.688.283 1.207.647 1.527 1.114.728-.564 1.47-1.093 2.238-1.545 1.08-.8 2.18-1.505 3.365-1.9 1.697-.86 3.388-1.372 5.084-1.527 1.794-.306 3.597-.324 5.39-.218 1.497.09 2.944.502 4.325 1.297 1.25.62 2.5 1.247 3.75 1.87 1.324.736 2.647 1.402 3.97 1.962 1.678.66 3.565.883 5.577.96.985.034 1.953.034 2.904-.22.77-.203 1.248.285.4.805-6.216 3.813-11.087.42-15.242-1.098 1.523 1.03 2.863 2.096 3.996 3.183 1.58 1.523 3.347 3.068 6.473 4.494 1.896.86 3.96 1.54 6.61 1.562.898.008 1.866-.027 2.914-.2.53-.085.756-.036.765.24.008.186-.04.56-.356.768-1.603 1.074-3.113 1.358-4.796 1.465-3.205.204-6.633-.848-9.768-2.53-2.508-1.35-4.2-2.993-6.198-4.468-1.994-1.47-3.716-2.286-5.568-2.677-1.825-.39-3.8-.346-5.465.17.497.097.92.332 1.176.63.858.505 1.96.727 3.553.91.83.097.573.67-.706 1.358-.768.99-1.767 1.523-3.094 1.394-1.83 1.212-2.482.48-3.095-.315-.076.502-.222.995-.44 1.47.08.257.09.54-.026.8.293.452.435.89.337 1.375.048.258.132.506.408.737.38.346.626.745.674 1.234.005.324.182.59.44.83.373.306.75.577 1.123 1.034 1.106.4 1.616 1.248 1.8 2.345.833.27 1.18.874 1.344 1.594.474.2.91.44 1.158.86 1.705.006 3.37.006 4.928.17 1.46.155 2.65 1.065 3.716 2.246.72.11 1.448.147 2.194-.022.768-.336 1.58-.594 2.464-.67 1.46-.123 2.926-.2 4.32.134.946.226 1.683.728 2.287 1.412.87.99 2.21.857 3.356.368 1.554-.66 2.846-.64 4.436.058.678-.262 1.357-.386 2.037-.315.58-.63 1.2-.786 1.834-.804 1.035-.035 1.785.125 1.59 1.452-.053.36-.266.706-.537.83-.475 1.026-1.38 1.328-2.53 1.23-.125.706-.414 1.23-.876 1.568.53 1.63.023 2.282-1.185 2.26-.253.47-.63.763-1.274.67-.47.573-1.026.866-1.634.964.07.426.253.626.555 1.083.82 1.243-.414 1.745-1.542 1.763.29.82.324 1.642.222 2.464 1.15.697 1.305 1.43.244 2.153.777 1.36.475 2.358-.98 3.086-.023.76-.1 1.523-.605 1.95-.347.292-.845.345-.516.896.59.977.462 2.21-.413 2.247-.185-.02-.354.008-.367.305 0 .102-.09.204-.262.306-1.047.565-2.028 1.21-2.93 1.95-.133.09-.266.152-.4.032-.656 1.43-1.882 2.88-3.236 4.342-.21 1.074-.817 1.803-1.825 2.18-.072.333-.285.528-.6.613.564.626.777 1.23.23 1.825-.67.732-1.553 1.447-2.437 1.673-1.878.48-3.055.39-3.81-.328-.666-.635-.404-1.115.018-1.314-1.158.093-1.393-.52-1.362-1.337.067-.408.204-.355.613-.342.63.018 1.2-.324 1.795-.52.23-.39.532-.727.905-1.01.21-1.316 1.04-2.044 2.167-2.475.91-.347 1.78-1.226 2.624-2.363.52-.897 1.045-1.79 1.564-2.686-.364-.474-.462-.95-.475-1.424-.48-.266-.814-.595-1.044-.968-.817-.058-1.155-.426-1.275-.937-.185.006-.39-.012-.61-.08-.4.26-.805.485-1.307.463-.66.68-1.345 1.234-2.042 1.705-.243.675-.727.946-1.318 1.03-1.678.2-2.682 2.29-3.605 3.144-.373.275-.604.763-.768 1.35-.08 1.1-.272 1.962-.876 1.98-.542-.023-.626-.08-.644-.138-.235-.022-.47-.022-.706.03.453.498.524 1.124.107 1.675-.417.54-1.016.71-1.593.75-1.195.08-2.162-.027-3.06-.39-.856-.352-.958-.863-.932-1.36-.617-.293-.74-.586-.675-.875.085-.373.427-.564.857-.444.373-.176.746-.296 1.12-.367 1.083-1.168 2.197-2.17 3.422-2.638.36-.435.772-.826 1.274-1.15.142-1.047.83-1.873 1.674-2.64.075-.38.2-.76.413-1.138-.048-.227.014-.333.018-.546-.342-.634-.546-1.398-.293-2.033-.102-.306-.133-.706-.093-1.012-2.016 1.2-2.637.79-2.868-.182-.737.617-1.425.906-1.918.018-.715.214-1.434.454-2.15.17-.465.18-.936.346-1.473.38-.218.432-.51.863-.906 1.293-.022.906-.338 1.812-.92 2.718-.337.968-.754 1.932-1.305 2.9.01.31-.035.62-.2.937.156 1.114-.217 1.656-.83 1.93-.164.45-.408.902-.78 1.35-.02.147-.032.298-.05.445.244.657.284 1.31-.382 1.967-.537.336-1.11.69-1.678.97-.67.33-1.292.174-1.856-.03-.99-.355-.915-.7-.786-1.04-.31.125-.666.14-.977-.012-.24-.15-.39-.307-.63-.462-.213-.386-.29-.737.23-1.012.653-.29 1.097-.502 1.612-1.03.178-.4.404-.702.724-.782.31-.728.692-1.22 1.21-1.354.383-.9.792-1.896 1.276-2.757.168-.26.293-.532.213-.83-.01-.244.008-.475.212-.612.115-.098.32-.187.062-.324-.235-.804-.09-1.572.306-2.163.524-.79 1.11-2.698.555-3.635-.102-.524-.204-1.123-.137-1.616-.19-.01-.333.017-.524-.117-.426-.262-.782-.013-1.106.462-.235.595-.47 1.12-.706 1.12-.222 1.535-.977 2.73-1.762 3.036-.182.707-.298 1.413-.2 2.12.08.767 0 1.29-.355 1.38-.39.097-.755.324-.982.95-.062.173-.133.382-.137.63.54.56.377 1.257-.142 1.772-1.173 1.154-2.63.986-4.17.533-1.114-.44-1.385-.906-1.274-1.38-1.58-.134-1.265-1.346.045-1.71 1.407-.396 2.548-1.297 3.485-2.585.084-1.527.435-2.566 1.256-2.73.08-.937.373-1.78.77-2.58.412-.724.665-1.518.518-2.486-.875-.546-.91-1.11-.106-1.687.266-.156.235-.316-.094-.476-.533-.052-.466-.562-.43-1.042-.023-.25-.15-.377-.387-.382-1.18-.173-.888-.657-.382-1.18.214-.24.356-.596.134-.738-.183-.115-.308-.52-.348-.875-.723-.546-.413-1.105 0-1.642-.408-.346-.6-.852-.657-1.442-1.345-.058-1.847-.742-1.12-1.736.308-.422.703-.826 1.182-1.212.31-.502.61-1.004.462-1.506-.387-.98.847-1.722 1.904-2.486-.147-.258-.222-.51-.23-.768-.596-.573-.445-1.106.212-1.612-.146-.262-.217-.524-.244-.78-1.48.292-1.47-.592-.78-2.013-.858-.492-.62-1.367.935-2.7.023-.306.08-.54.17-.705-.738.018-1.346.235-1.875.568-.59.386-1.176.338-1.767.093-.182-.292-.46-.54-.78-.767-.405-.355-.498-.754-.414-1.18-1.74.097-2.073-1.19-1.03-1.95.582-.462 1.01-.946 1.17-1.474.47-1.195 1.468-2.008 2.44-2.843 0-.34.076-.683.183-1.03-.43-.288-.884-.497-1.38-.537-.18-.444-.512-.923-1.076-1.194-.324-.196-.43-.378-.23-.817-.924-.827-.693-1.33-.458-1.804z"/>
      <g fill="#f7db17">
        <path d="M832.652 228.487c-.102.01-.21.018-.33.013-.447.457-.984.915-1.482 1.306-.43-.498-1.07.048-.444.35-.106.076-.213.15-.32.222-.204.542-.39.773-.994.866-.093.013-.186.03-.28.053-.004-.23.005-.453.027-.67.026-.27.07-.533.128-.79.01-.05.022-.094-.07-.116-.094-.02-.108.028-.117.077-.056.266-.105.537-.136.812-.027.243-.036.492-.027.74-1.523.49-2.402 2.074-3.44 3.202-.45.386-.676.92-.84 1.478-.09.298-.12 1.66-.426 1.683-.146.005-.3 0-.466 0-.164-.248-.386-.253-.666-.018-.634-.013-1.31-.017-1.873.07-.386.42.675.263 1.24.61.256.155.367.46.265.888-.52 1.238-3.42.84-4.382.328-.45-.234-.467-.505-.45-.89.2 0 .405-.014.61-.046.346-.048.688-.15 1.025-.34.093-.055.19-.108.085-.3-.107-.19-.205-.137-.298-.083-.284.165-.577.25-.87.29-.302.044-.613.044-.91.03-.027 0-.054-.004-.076 0-.17-.097-.297-.213-.226-.315.07-.098.35.01.404.027.448-.21.84-.342 1.323-.435 1.02-1.093 2.06-2.118 3.467-2.682.422-.506.88-.906 1.43-1.27.196-1.216.786-1.865 1.67-2.673.106-.502.23-.86.48-1.3-.054-.28-.014-.458 0-.742-.338-.64-.538-1.195-.272-1.91-.164-.52-.142-.87-.08-1.35.018-.123.014-.212-.004-.27.275-.218.555-.422.83-.608.253-.17.506-.324.76-.466-.04.48-.023.98.07 1.505l-.004.005c-.15.164-.28.324-.368.493-.094.173-.147.346-.138.52 0 .048 0 .097.098.093.097 0 .097-.048.093-.097-.005-.138.035-.28.115-.422.08-.145.2-.296.342-.447.013-.014.027-.03.036-.05.466-.012.923-.26 1.38-.63.413-.337.826-.772 1.235-1.23-.005.667-.01 1.333-.018 2-.4.354-.74.79-1.008 1.317-.023.045-.045.085.04.13.088.043.11 0 .128-.045.244-.484.555-.884.915-1.217h.017c.098 0 .098-.05.098-.098v-.004c.062-.053.13-.107.195-.155.453-.35.968-.617 1.523-.83-.084.586-.124 1.16-.022 1.71.11.603.395 1.172.972 1.67.01.008.023.012.036.017z"/>
        <path d="M803.65 211.597c.075-.138.266-.315.328-.302.014-.004.023-.004.036-.01.21-.39.426-.754.653-1.082.293-.426.603-.804.932-1.123.035-.036.07-.067.137 0 .066.07.03.102 0 .137-.32.31-.622.675-.91 1.092-.223.324-.436.68-.64 1.065.067.09.098.227.062.324.066.607.146.95.417 1.3.03-.027.062-.05.093-.062.11-.27.262-.51.448-.724.23-.257.51-.475.848-.657.23-.19.418-.386.57-.59.15-.2.27-.404.354-.613.018-.045.035-.09.13-.053.087.036.07.085.052.13-.093.226-.218.443-.378.656-.164.214-.364.422-.612.627 0 0-.014.008-.018.008-.315.175-.586.38-.8.62-.163.18-.292.385-.394.61.142.103.204.383.07.56-.403.582-.883.924-.128 1.422-.027.39.098.688.355.96.173.18.156.816-.27 1.273-.4.404-.094.297.32.346.03.01.06.023.092.032v-.004c.15-.293.328-.555.523-.8.19-.24.4-.466.613-.68.297-.292.533-.61.7-.936.166-.315.263-.64.28-.95.006-.05.006-.097.108-.09.097.006.093.055.088.104-.022.337-.124.683-.3 1.03-.18.342-.428.675-.74.98-.207.21-.407.423-.593.662-.188.236-.357.49-.503.77.497.3.337.842.413 1.34.097.013.182.035.257.07.005-.008.01-.017.018-.026.098-.15.195-.306.293-.462l.462-.732c.026-.04.053-.085.133-.032.084.054.058.094.03.134l-.46.732c-.098.156-.196.307-.294.462-.005.01-.01.018-.014.022.306.25.33.702-.05 1.048-.74.56-.532.733.16 1.177.09.653.094 1.177-.048 1.732.005.014.005.03.01.05.017.18.03.368.043.55l.046.555c.004.048.01.097-.09.106-.097.01-.1-.04-.106-.09l-.044-.554c-.004-.05-.01-.094-.01-.143-.034.085-.07.173-.114.267-.498 1.088-1.013 1.976-1.124 3.197-1.194.285-1.016 1.46-1.083 2.5-.94 1.27-2.033 2.287-3.548 2.793-.284.093-.972.262-1.038.622-.01.128.46.408.762.244.835-.8 1.252-.356.293.46-.075.156-.013.33.15.476.867.777 3.012 1.03 3.988.413.724-.454 1.1-.952.47-1.64.04-.977.423-1.93 1.453-2.206.12-.222.084-.635.03-.862-.097-.848.036-1.603.245-2.42.037-.102.112-.186.28-.23.392-.08 1.142-1.213 1.377-2.3.058-.236.093-.48.138-.724.062-.378.21-.444.4-.222.182-.244.177-.39.288-.67.4-.582.977-1.048 1.652-.72-.173-.475-.293-1.012-.33-1.558-.048-.65.015-1.32.214-1.932.026-.093.057-.182.204-.16.195-.46.386-.92.58-1.38.197-.462.392-.928.587-1.39.02-.045.037-.09.126-.053.088.035.07.084.053.128-.196.463-.392.925-.587 1.39-.196.463-.386.92-.582 1.377.086.063.06.143.032.222-.177.554-.235 1.167-.19 1.767.044.648.204 1.274.443 1.784.023.05.05.1.04.148.32.186.316.23.302.657-.01.333.036.662.116 1.06.635 1.173-.027 3.136-.644 4.117-.3.475-.38 1.017-.254 1.563.382.37.133.75-.204 1.008-.027.09 0 .19.004.28.035.38-.102.7-.302 1.016-.52.936-.92 1.935-1.336 2.916-.755.21-.91.65-1.213 1.355-.44.125-.483.254-.67.658-.506.51-.99.817-1.638 1.11-.538.244-.018.48.36.737.34.253.79-.298 1.07-.715.306-.462.617-.324.417.036-.222.395-.382.963-.404 1.26-.116.32 1.1.564 1.31.573.74.035 1.673-.69 2.255-1.057.484-.493.408-.924.195-1.523l.005-.04c-.31.01-.604-.027-.893-.09-.35-.08-.697-.2-1.047-.345-.045-.018-.09-.036-.054-.13.037-.088.086-.07.13-.053.346.143.68.262 1.017.333.28.063.568.094.874.085l.05-.466c.387-.475.653-.942.862-1.51.82-.386.825-.786.714-1.665.183-.356.222-.565.21-.97.54-.962.985-1.948 1.353-2.99.648-.863.958-1.675.883-2.7.058-.4.204-.627.497-.614.213-.297.404-.604.577-.945.036.005.07.01.107.01-.01-.023-.004-.05 0-.072.053-.235.115-.444.195-.617.075-.172.164-.31.266-.42.12-.294.164-.578.133-.853-.032-.284-.13-.56-.29-.83-.097-.11-.186-.227-.217-.347-.04-.137-.014-.275.124-.413.036-.035.07-.066.138 0 .066.072.035.107 0 .138-.08.076-.094.147-.07.218.025.088.096.182.18.28l.01.017c.173.298.288.604.32.92.03.314-.014.64-.156.963 0 .004-.02.026-.02.03-.092.098-.172.223-.243.378-.07.165-.133.356-.182.578-.005.014-.005.027-.01.036.458 0 .862-.142 1.302-.36l.027-.026c.222-.178.457-.45.652-.804.165-.297.298-.662.373-1.08.008-.048.017-.092.115-.08.093.02.084.068.08.112-.08.444-.222.822-.396 1.14-.152.28-.33.507-.507.685.71.214 1.328.005 2.003-.203-.098-.95-.085-1.674.017-2.242.11-.618.32-1.053.582-1.38.03-.04.058-.077.138-.02.075.063.05.1.017.14-.244.305-.44.713-.54 1.295-.1.542-.117 1.234-.023 2.15.008-.005.022-.005.035-.01.284.484.435.835 1.017.457.212-.142.434-.284.612-.47.066-.07.044-.11.097-.17.554-.59 1.114-1.14 1.67-1.628.558-.494 1.118-.916 1.677-1.258.04-.027.084-.053.133.03.05.086.01.108-.03.134-.55.333-1.102.755-1.653 1.235-.475.418-.95.88-1.425 1.377.027.084.04.23.054.453.048.657.168 1.052 1.105.693.525-.2.578-.222 1.062-.51.236-.143.435-.263.573-.294.306-.24.608-.467.915-.67.297-.2.6-.383.897-.543.048-.355.128-.702.244-1.035.29-.852.773-1.642 1.382-2.388.004-.005.026-.023.03-.027.507-.275.92-.6 1.248-.968.333-.37.582-.782.768-1.23.018-.045.036-.09.13-.054.088.035.07.084.052.13-.195.465-.457.896-.8 1.282-.34.382-.762.72-1.286 1.003-.59.73-1.062 1.493-1.337 2.315-.097.288-.173.58-.217.888.017.004.035.022.053.057.044.09 0 .11-.04.13-.013.003-.027.012-.04.02-.058.48-.044.987.044 1.51.413-.013.83-.243 1.252-.585.448-.364.905-.866 1.358-1.377.005-.013.005-.022.018-.03.11-.365.253-.685.44-.942.2-.275.443-.484.745-.613.046-.018.09-.04.13.054.036.088-.004.106-.053.128-.267.116-.49.302-.666.546-.177.25-.314.56-.42.916-.005.693-.014 1.385-.02 2.078.023-.018.05-.036.072-.058.51-.395 1.097-.688 1.732-.92.067-.025.142.037.13.108-.1.62-.152 1.238-.05 1.807.098.534.337 1.03.817 1.475.183-.33.396-.622.627-.888.08-.093.164-.182.248-.267.005-.008.01-.017.023-.022.182-.182.368-.35.564-.51.142-.13.284-.262.42-.395.143-.13.286-.262.428-.396.035-.035.07-.066.137.005.067.07.03.106-.004.137-.142.133-.284.26-.426.395-.143.128-.285.262-.427.395l-.004.004c-.182.147-.36.302-.524.47.004.183.013.36.022.543.005.097.005.195.01.293.408.11.652.115 1.07.106.137.822.208.95.923.968-.01-.293-.005-.577.026-.857.036-.32.102-.63.213-.923.018-.045.036-.09.125-.058.094.035.076.08.058.124-.106.275-.168.57-.204.875-.03.27-.035.55-.026.84h.057c.284.585.622.874 1.226 1.136.17-.266.294-.532.374-.8.088-.296.124-.593.106-.89-.004-.05-.004-.1.09-.103.097-.005.1.04.106.09.022.318-.018.638-.116.958-.098.32-.253.635-.466.95-.018.027-.036.053-.067.053.027.342.085.595.205.853.088-.19.182-.38.288-.56.147-.256.315-.487.52-.69.035-.037.066-.068.137 0 .067.065.036.1 0 .136-.19.187-.346.413-.488.653-.125.212-.236.443-.343.678.067.116.15.23.25.364-1.138 1.95-2.355 4.65-4.597 5.537-1.16.456-1.665 1.047-1.896 2.286-.435.337-.746.68-1.03 1.15-.755.253-1.43.63-2.246.595 0 .53.173.76.7.764 1.01-.506 1.235-.6 1.324-.528.125.106-.142.83-.977 1.416-.128.08-.124.13-.048.262.706 1.106 2.557.71 3.552.45.71-.188 1.992-1.03 2.347-1.742.138-.328-.173-.75-.484-1.097-1.42.218-1.15-1.145.07-.577.414-.124.468-.13.583-.586 1.088-.422 1.54-.88 1.79-2.047 1.096-1.18 2.197-2.397 2.988-3.814.217-.265.346-.736.284-.98.195-.23.302-.524.373-.79.072-.284.116-.564.107-.848 0-.05-.004-.098.093-.102.098-.005.098.044.103.093.008.302-.036.6-.11.9-.064.232-.143.463-.228.694.07.177.107.297.262.253.95-.764 1.91-1.3 2.935-1.936.07-.435.35-.648.78-.666.175.005.237-.05.3-.21.24-.598-.063-1.01-.352-1.508-.266-.742.21-.92.684-1.274.497-.37.462-1.346.48-1.91h.004c-.018-.093-.036-.19-.058-.288-.04-.196-.098-.39-.17-.6-.016-.044-.03-.093.06-.124.092-.03.106.013.123.062.076.218.134.422.178.622.02.08.032.16.05.235.475-.244.972-.528 1.16-1.057.163-.586-.157-1.14-.44-1.638-.12.058-.245.115-.374.17-.23.1-.48.207-.74.31-.046.017-.09.035-.126-.054-.035-.09.01-.11.054-.124.253-.102.497-.204.732-.31.196-.085.382-.174.555-.258.214-.142.432-.293.587-.493.342-.494-.577-.938-.897-1.138 0-.013.005-.027.005-.04-.462-.422-.92-.848-1.38-1.27-.036-.03-.072-.066-.005-.137.066-.07.102-.04.137-.005l1.28 1.172c.07-.723.08-1.416-.148-2.135-.072-.23-.156-.458-.236-.684-.018 0-.035-.01-.053-.022-.39-.2-.665-.443-.843-.723-.182-.28-.27-.59-.297-.928-.005-.05-.005-.1.093-.107.098-.005.098.044.107.093.022.302.097.586.262.835.164.254.412.476.772.658.386.2 1.2.097 1.67-.13.652-.368-.2-1.114-.4-1.553-.142-.315-.178-.64-.24-.977.058-.01.116-.022.178-.03-.085-.108-.173-.2-.262-.276-.11-.098-.23-.17-.35-.213-.045-.02-.094-.032-.06-.126.032-.093.08-.075.126-.057.146.053.284.137.413.248.123.107.238.236.35.386.062-.007.128-.02.19-.034.644-.13 1-.488 1.39-.95-.213-.258-.448-.497-.702-.724-.26-.235-.528-.457-.8-.675-.034-.03-.074-.062-.012-.137.062-.076.098-.045.138-.014.275.222.55.45.808.684.262.24.51.493.737.768.02.027.043.053.025.09.59.052.69-.068.986-.596-.074-.27-.2-.524-.354-.768-.164-.253-.364-.493-.59-.724-.036-.035-.067-.07 0-.138.07-.066.106-.03.137 0 .23.24.444.493.613.755.168.258.297.524.377.813.275.004.573.018.808-.125.516-.306.08-1.407-.052-1.833.01-.005.013-.01.022-.018-.067-.044-.138-.09-.204-.13-.12-.074-.244-.15-.364-.23-.04-.026-.08-.053-.03-.133.052-.083.092-.057.132-.03l.364.23c.09.06.178.112.266.17.04-.03.08-.062.12-.094.378-.3.51-.7.626-1.118.178-.64.213-.356.96-.467.803-.123 1.238-.212 1.713-1.153.25-.124.378-.23.422-.537.08-.555.035-.84-.6-.888-.887-.07-1.43.106-2.03.692.08.12.16.245.24.364.028.04.055.08-.025.138-.08.053-.107.013-.134-.027l-.226-.347c-.808-.08-1.456.05-2.21.333-.077-.03-.152-.062-.228-.093.16.213.285.417.378.617.13.284.195.555.204.813 0 .048.004.097-.093.102-.097.004-.097-.045-.1-.094-.01-.234-.068-.478-.188-.74s-.302-.537-.56-.83l-.004-.005c-.63-.226-1.207-.342-1.798-.328.098.097.2.195.298.288.128.125.257.25.38.373.037.036.072.067 0 .138-.065.07-.1.035-.136 0-.13-.124-.258-.25-.382-.373-.13-.124-.258-.25-.382-.373-.013-.013-.027-.027-.035-.04-.502.04-1.022.173-1.594.413-.36.15-.73.266-1.09.333.267.257.494.546.67.875.188.338.33.71.423 1.124.01.05.022.093-.07.115-.094.022-.108-.027-.116-.072-.09-.395-.227-.754-.404-1.074-.178-.32-.4-.604-.662-.853-.026-.02-.048-.047-.04-.083-.332.05-.665.053-.985.004l.396.654c.023.045.04.09-.044.13-.09.04-.11 0-.13-.046l-.363-.763c-.306-.062-.608-.178-.888-.35.094.35.165.727.218 1.127.07.528.115 1.092.13 1.687 0 .048.003.097-.095.097-.097 0-.097-.05-.097-.094-.013-.59-.053-1.15-.124-1.665-.066-.475-.155-.923-.28-1.332-.137-.106-.27-.23-.4-.373-.32-.35-.674-.62-1.065-.83.024.164.024.324 0 .484-.04.293-.158.59-.39.88-.03.04-.057.075-.137.017-.075-.062-.05-.098-.018-.138.21-.262.316-.524.35-.785.028-.186.02-.377-.02-.563-.61-.28-1.28-.418-1.972-.475.186.244.364.488.523.74.187.294.356.592.507.893.275.227.42.502.506.804.08.297.096.616.11.94 0 .05.004.098-.093.103-.098.004-.098-.045-.103-.094-.008-.312-.026-.618-.102-.898-.075-.27-.208-.52-.453-.714-.005-.005-.027-.027-.027-.032-.15-.3-.32-.6-.502-.892-.185-.293-.39-.577-.616-.852l-.01-.01c-.234-.013-.47-.017-.705-.013.04.053.08.106.114.164.085.137.143.288.16.46.005.05.01.1-.088.108-.098.01-.103-.04-.107-.09-.02-.14-.063-.265-.134-.38-.058-.094-.125-.178-.21-.258-.487.013-.97.053-1.437.093.487.626.878 1.274 1.18 1.94.337.742.563 1.505.692 2.296.01.05.018.097-.08.11-.093.02-.102-.03-.11-.08-.13-.772-.35-1.522-.68-2.246-.315-.688-.724-1.358-1.24-2.002-.02 0-.048.004-.07.004-.377.035-.76.115-1.123.217.163.102.305.204.43.306.168.138.3.275.417.413.03.04.062.076-.013.138-.076.062-.107.026-.138-.014-.107-.128-.235-.262-.39-.39-.156-.125-.338-.253-.56-.382-.196.062-.387.133-.577.21-.108.038-.21.078-.317.11.33.235.644.492.946.78.363.352.705.747 1.01 1.204.028.04.055.08-.025.133-.08.054-.107.014-.138-.026-.297-.445-.626-.832-.98-1.173-.334-.32-.69-.6-1.058-.857-.4.088-.805.11-1.21.097.25.493.468.99.632 1.492.178.54.302 1.087.342 1.642.004.05.01.098-.09.107-.097.007-.1-.04-.106-.09-.04-.542-.16-1.07-.333-1.6-.177-.527-.408-1.046-.67-1.562-.244-.017-.493-.048-.74-.08.14.453.265.92.37 1.395.126.56.228 1.132.303 1.714.005.048.01.097-.084.11-.098.014-.102-.035-.11-.084-.072-.577-.174-1.145-.298-1.696-.116-.515-.254-1.02-.413-1.518-.702-.76-1.48-1.502-2.43-1.897.196.248.352.506.463.777.173.417.253.86.24 1.327 0 .05-.005.098-.098.094-.098 0-.098-.053-.093-.097.008-.44-.063-.857-.227-1.252-.146-.35-.36-.68-.657-.985-.212-.062-.44-.11-.67-.133-.62-.062-1.247-.102-1.873-.124.48.435.857.834.82 1.318-.003.05-.008.098-.105.09-.098-.01-.094-.06-.09-.107.032-.45-.412-.854-.93-1.316-.374-.013-.752-.017-1.125-.022.204.21.382.417.524.626.196.284.334.568.4.853v.014c.04.44.147.826.343 1.145.19.315.466.56.843.732.045.022.09.04.05.13-.04.088-.085.07-.13.048-.413-.187-.715-.462-.928-.808-.208-.342-.324-.75-.368-1.217-.062-.258-.187-.52-.37-.78-.167-.246-.385-.494-.643-.743-.417 0-.83-.004-1.247-.004.173.492.293 1 .377 1.514.098.63.142 1.274.156 1.927 0 .047 0 .096-.098.096s-.098-.05-.098-.093c-.01-.644-.053-1.283-.15-1.9-.085-.53-.21-1.044-.39-1.545h-.117c-.27-.444-.524-.64-.914-.822-.005.045-.01.09-.023.13-.03.132-.084.265-.177.4-.027.04-.058.08-.138.025-.08-.052-.053-.092-.027-.132.077-.11.126-.222.148-.33.013-.056.022-.114.022-.176-.062-.027-.13-.053-.2-.084-.2-.835-.386-1.182-1.052-1.466-.004.23-.018.47-.062.715-.053.302-.15.608-.333.9-.027.04-.053.086-.133.033-.085-.054-.058-.094-.03-.134.167-.27.256-.55.305-.83.044-.253.058-.51.058-.76l-.116-.04c-.177-1.167-.39-1.82-1.603-2.28.014.15.018.305.01.46-.014.262-.063.53-.17.804-.017.045-.035.093-.124.058-.09-.036-.07-.08-.057-.124.097-.254.142-.502.155-.746.013-.23-.004-.462-.036-.69-.257-.292-.626-.57-.94-.882.008.43-.05.857-.17 1.287-.146.52-.386 1.044-.723 1.563-.028.04-.055.085-.134.03-.085-.052-.058-.092-.032-.132.325-.502.56-1.008.702-1.51.138-.48.186-.963.15-1.447-.137-.15-.252-.315-.332-.488-.01.02-.018.043-.027.06-.05.107-.093.214-.142.32-.022.045-.04.09-.13.054-.087-.04-.07-.084-.052-.13.05-.105.093-.212.142-.32.036-.083.076-.172.11-.256-.008-.053-.017-.107-.02-.164-.04-.373-.24-.662-.512-.906l-.004-.005c-.037.116-.08.236-.134.35-.085.183-.196.36-.338.543-.03.04-.057.075-.137.018-.075-.063-.044-.098-.017-.138.133-.17.235-.337.315-.502.067-.142.116-.284.15-.43-.123-.147-.212-.298-.283-.462-.044.106-.107.213-.186.32-.095.124-.215.244-.366.368-.035.03-.075.062-.137-.013-.062-.076-.022-.107.013-.138.138-.112.244-.223.33-.334.083-.11.14-.217.18-.328.063-.174.085-.063.027-.342.102-.55-.102-.88-.395-1.337.005-.014.01-.023.018-.036-.173.004-.373.062-.59.155-.263.115-.55.288-.853.496-.04.027-.08.054-.133-.026-.058-.08-.018-.107.026-.133.316-.214.613-.39.884-.51.275-.12.528-.188.746-.174.053-.147.058-.258.022-.426-.888.328-1.59.483-2.153.52-.592.035-1.045-.06-1.422-.22-.045-.02-.09-.04-.05-.127.037-.09.085-.07.13-.054.35.15.772.24 1.332.205.555-.035 1.24-.186 2.118-.514-.005-.01-.005-.018-.01-.027.16-.356.29-.703.378-1.05-.315.085-.626.08-.937.072h-.063c-.05 0-.097-.004-.097-.098 0-.097.053-.097.097-.097h.062c.328.004.656.013.98-.093.023-.116.04-.23.058-.347.05-.386.502-.48.822-.133.266.284.51.586.772.71.533.254 1.132.027 1.563-.32-.13-.04-.262-.084-.395-.128-.05-.013-.093-.03-.062-.12.03-.093.075-.08.12-.062.168.053.337.107.506.164.04-.04.08-.08.115-.12 1.1.094 1.815-.137 2.52-.848-.625.014-1.184-.004-1.668-.057-.533-.063-.973-.17-1.297-.33-.044-.02-.088-.043-.044-.128.045-.09.09-.066.13-.044.302.152.723.254 1.234.312.52.057 1.132.075 1.83.053h.008c.062-.07.124-.147.19-.226.303-.126.605-.263.827-.512-1.284-.138-2.505-.39-3.655-.99-.298-.333-.768-.52-1.27-.648-.932-.116-1.758.115-2.518.51-.2-.186-.355-.355-.55-.537-.293-.036-.568-.19-.86-.227-.392-.044-.8.032-1.19-.013-.05-.004-.1-.01-.086-.106.01-.098.06-.094.108-.085.39.045.8-.03 1.19.014.377.044.737.208 1.114.253 1.26-.476 2.305-.738 3.206-.698 1.052-.307 2.144-.436 3.237-.41-.014-.008-.027-.02-.04-.034-.13-.13-.067-.196 0-.258.59-.6.728-1.15.537-1.647-.195-.515-.728-1-1.47-1.443-.79.09-1.55-.125-2.388-.03-.524.056-1.04.172-1.546.34.422.152.79.4 1.093.755.374.44.64 1.04.782 1.794.018.088.03.18-.146.212-.178.036-.196-.057-.214-.146-.128-.688-.368-1.23-.7-1.625-.352-.5-1.155-.696-1.41-.798-.838.084-1.664.177-2.383.364-.542.137-1.018.328-1.382.612.542-.115 1.106-.093 1.594.15.467.232.862.667 1.11 1.373.03.086.058.174-.115.232-.173.058-.204-.027-.23-.115-.21-.61-.538-.973-.925-1.164-.768-.38-2.353-.048-3.023.45-.392.292-.783.67-1.17 1.11-.07.083-.145.163-.31.02-.164-.145-.093-.225-.017-.305.404-.458.812-.862 1.234-1.172.408-.302.83-.52 1.265-.622.444-.493 1.1-.79 1.86-.986.742-.19 1.59-.288 2.452-.373-.254-.51-.578-.817-.95-.98-.4-.18-.858-.205-1.355-.156-1.035.354-1.954.91-2.838 1.535.08 0 .16 0 .235.004.262.017.498-.023.715.06.085.033.173.064.11.237-.074.208-.647.08-.847.066-.226-.013-.475.005-.75.07-.04.01-.085.024-.125.01-1.078.666-1.85 1.34-2.748 2.1l-.15.054c-.8-.03-1.35.08-1.68.328-.297.227-.32.582-.26 1.06-.14.45-.312.943-.356 1.467-.937.803-1.98 1.607-2.465 2.78-.105.34-.287.643-.514.914.19.03.347.09.467.182.044.035.084.07.12.115.022-.2.053-.4.102-.59.066-.276.164-.53.293-.733.026-.04.053-.08.133-.027.085.054.06.094.032.134-.12.182-.21.417-.27.675-.076.306-.116.643-.125.954-.005.098-.182.107-.196.01-.02-.165-.092-.294-.207-.378-.12-.09-.29-.142-.506-.16-.2.217-.427.413-.653.595-.187.15-.364.315-.404.56-.027.425.497.5.994.532 1.133.067.23.71.853 1.274.302.208.582.452.795.75.43.155.697.12.99-.014.057-.768-.01-1.16.328-1.16h.036c.018-.096.04-.194.08-.292.057-.142.142-.288.257-.43.03-.036.062-.076.138-.014.076.063.045.098.014.138-.102.13-.177.258-.226.382-.04.106-.067.213-.08.32.058.115.044.34.04.745.644-.315 1.23-.395 1.887-.426 1.23-1.44 1.754-1.075.675-.027-.062.12-.12.226-.173.328-.187.36-.307.64-.347 1.13-.315.274-1.86 1.544-1.283 2.015.404-.058.657-.04.502.262-.192.404-.77 1.243-.578 1.705.07.168.32.15.563.093.018-.018.036-.03.054-.05.403-.328.83-.705 1.23-1.145.394-.43.762-.923 1.06-1.487.04-.08.08-.155.195-.13.12-.443.262-.882.422-1.326.164-.458.35-.92.55-1.38.032-.068.125-.08.17-.02.168.245.332.423.497.538.146.107.293.156.435.156.14 0 .287-.048.434-.146.16-.11.32-.28.484-.51.026-.04.057-.08.137-.023.08.06.054.095.023.14-.178.248-.35.43-.533.554-.182.124-.36.187-.546.182-.183 0-.365-.066-.547-.195-.147-.106-.298-.252-.444-.448-.175.404-.334.808-.48 1.212-.165.45-.307.902-.432 1.35.102.085.058.165.018.244-.32.6-.71 1.12-1.128 1.577-.337.373-.697.7-1.048 1 .05.327.134.638.285.958.67-.578 1.296-1.164 1.847-1.767.55-.61 1.03-1.235 1.407-1.887.026-.04.048-.086.132-.037.085.05.058.093.036.133-.195.338-.417.666-.657.99.045.067.01.094-.026.125-.07.058-.11.29-.13.587-.025.404 0 .906.046 1.265.004.05.013.098-.085.11-.097.014-.102-.034-.11-.083-.05-.38-.072-.894-.05-1.302.005-.107.018-.204.032-.293-.147.173-.298.346-.453.52-.56.616-1.2 1.21-1.883 1.798-.003.004-.012.008-.017.013.018.035.04.07.063.106-.595.43-1.08.582-.413 1.16l.666-.48.71-.51c.04-.028.08-.06.137.02.057.08.017.108-.022.14l-.715.51c-.23.164-.458.328-.69.492-.012.27.05.467.17.68.058-.01.107-.014.147-.014.497-.36.994-.723 1.492-1.083.04-.03.078-.058.136.022.058.08.018.106-.022.137l-1.447 1.052c-.032.057-.094.132-.174.22-.488.352-2.193 1.404-2.01 2.132v.005c.408-.116.816-.258 1.207-.458.404-.21.8-.49 1.172-.87.035-.036.067-.067.138 0 .066.066.035.1 0 .137-.387.395-.795.68-1.217.9v.02c-.004.066-.004.132-.01.2-.003.065-.003.132-.008.2-.004.047-.004.096-.102.092-.098-.006-.093-.054-.093-.103.004-.067.004-.134.01-.2.003-.036.003-.076.003-.11-.346.16-.697.28-1.052.376.147.688-.212 1.28-.58 1.87-.21.168-1.914 1.55-1.204 1.962.19.093.404.138.617.16z"/>
        <path d="M804.422 187.58c-.355-.212-.812-.474-1.256-.563-.227-.435-.533-.786-.946-1.052-.328-.213-.328-.195-.204-.43.373-.04.528-.143.533-.245.194.005.363.03.505.08.164.058.288.142.377.262.03.04.058.08.138.018.08-.058.05-.098.018-.138-.116-.146-.27-.257-.47-.328-.192-.067-.423-.098-.694-.09-.022 0-.04 0-.057.01-.142-.067-.356-.11-.622-.103-.253-.238-.466-.518-.364-.864.014.013.037.017.06.022.2.058.385.115.545.19.155.067.284.152.373.25.03.035.066.07.137.004.07-.067.04-.102.01-.138-.112-.12-.258-.213-.436-.297-.13-.058-.272-.11-.423-.156 1.466-.296 2.775-.274 4.085.503.688.284 1.013.613 1.385 1.12-.124.106-.248.208-.372.314-.857-.022-1.488.098-1.883.4-.355.266-.426.746-.44 1.225z"/>
      </g>
      <path d="M833.55 228.127c-.29.178-.525.302-.823.35.014-.008.027-.02.036-.035.19-.36.413-.674.66-.96.033-.034.068-.074.1-.11l.012.356.014.404zM837.22 235.986c-.195.293-.434.56-.705.804-.267.24-.57.466-.893.68-.04.026-.084.052-.137-.028-.054-.08-.014-.106.026-.133.312-.205.605-.427.872-.662.26-.236.492-.49.674-.77.027-.04.054-.078.138-.025.08.053.053.093.027.133zM839.65 233.09c-.125.188-.245.374-.37.565-.026.04-.052.08-.137.027-.08-.054-.053-.094-.026-.134.124-.186.244-.377.368-.563.027-.04.053-.08.138-.027.08.053.053.093.026.138zM838.326 232.905c-.062.28-.164.546-.342.79-.177.244-.44.462-.817.635-.044.022-.088.04-.128-.05-.04-.088.003-.11.047-.128.347-.16.582-.355.742-.572.163-.218.252-.462.31-.72.01-.05.022-.093.115-.07.093.02.085.066.07.115zM840.706 230c-.098.1-.182.21-.257.334-.072.124-.14.257-.188.408-.018.045-.03.094-.124.063-.093-.032-.08-.08-.062-.125.053-.16.12-.306.204-.444.084-.137.177-.257.284-.368.036-.036.067-.067.138 0 .066.066.035.102 0 .137zM842.65 230.192c-.084.275-.163.555-.266.83-.102.284-.226.564-.386.844-.027.04-.05.084-.133.035-.084-.048-.062-.092-.036-.132.155-.27.27-.542.372-.808.098-.27.178-.546.262-.82.014-.05.027-.095.12-.068.093.027.08.07.067.12zM841.767 218.812c.604.888.737 1.803.76 2.722.066-.333.142-.67.235-1.004 0-.004.013-.03.013-.03.253-.356.413-.71.493-1.062.08-.35.08-.706.018-1.057-.01-.047-.018-.092.08-.11.093-.017.106.03.115.08.068.378.068.76-.017 1.137-.084.373-.248.746-.51 1.12-.165.616-.284 1.238-.4 1.86l-.022.115c-.017.093-.194.08-.194-.018 0-.07 0-.138.004-.21.013-1.158.027-2.32-.724-3.422-.026-.04-.057-.08.027-.138.08-.053.11-.013.138.027zM840.29 220.717c-.01.075-.015.15-.023.222-.005.074-.014.15-.018.225-.006.05-.01.098-.108.09-.097-.01-.093-.06-.09-.107.006-.076.015-.15.02-.222.004-.076.012-.15.02-.227.006-.05.01-.1.108-.09.098.01.093.058.09.107zM839.876 223.3c.15.494.266.995.35 1.51.058.35.094.706.112 1.07.04-.066.084-.128.133-.19.16-.2.374-.373.627-.52.04-.026.084-.05.133.036.05.084.01.11-.036.133-.235.137-.426.292-.568.474-.142.178-.235.377-.275.604-.017.097-.194.08-.194-.018.004-.533-.04-1.052-.12-1.558-.08-.507-.196-1-.342-1.483-.014-.05-.03-.095.062-.12.093-.028.106.017.12.06zM841.936 224.224c.084.4.138.782.155 1.15.02.37.006.73-.034 1.08-.005.048-.013.097-.11.084-.1-.014-.09-.062-.086-.11.04-.334.054-.68.036-1.045-.018-.36-.067-.737-.15-1.12-.01-.047-.023-.092.075-.114.094-.023.107.026.116.074zM843.703 223.896c.067.364.102.72.084 1.06-.017.347-.084.676-.226.996-.12.364-.128.728-.066 1.092.063.373.205.746.373 1.123.023.045.04.09-.048.13-.09.04-.112-.006-.13-.05-.178-.386-.324-.777-.39-1.168-.068-.4-.06-.795.075-1.195l.004-.01c.128-.292.194-.603.208-.927.017-.328-.018-.67-.085-1.017-.01-.047-.017-.092.08-.11.098-.017.107.03.116.08zM844.556 220.965c-.045.183-.09.37-.138.555-.044.183-.09.37-.138.555-.01.05-.022.094-.115.072-.093-.023-.085-.072-.07-.12.043-.182.088-.37.136-.555.046-.182.09-.37.14-.555.012-.05.02-.094.12-.07.092.02.083.07.07.118zM843.68 216.1c.054.168.103.337.156.505.014.05.027.094-.066.12-.094.03-.107-.017-.12-.062-.053-.17-.102-.337-.156-.506-.017-.05-.03-.093.063-.12.093-.027.106.018.12.062zM844.13 212.4c.004.232.004.462-.014 1.453-.21.186-.36.42-.44.714-.08.298-.088.662-.013 1.097.01.05.018.098-.08.116-.097.017-.106-.032-.115-.08-.085-.467-.07-.857.018-1.18.088-.334.26-.6.497-.81l-.04-.617c-.005-.23-.005-.46-.01-.688 0-.05 0-.098.1-.098.096 0 .096.05.096.098zM840.457 211.113c.57.373 1.057.786 1.395 1.274.34.493.537 1.057.515 1.723-.005.067-.076.11-.138.084l-.964-.412c.213 1.38.16 2.482-.143 3.325-.32.893-.91 1.5-1.753 1.847-.076.03-.156-.04-.13-.12.165-.524.263-1.048.303-1.57.04-.525.018-1.05-.07-1.57-.01-.048-.02-.096.08-.11.096-.018.105.03.11.08.088.537.115 1.08.07 1.616-.035.47-.115.937-.248 1.412.688-.337 1.177-.88 1.452-1.647.302-.848.346-1.976.107-3.406-.014-.076.066-.138.133-.107l.99.426c-.01-.56-.187-1.04-.48-1.462-.324-.466-.79-.86-1.34-1.22-.04-.027-.08-.054-.027-.138.053-.08.093-.054.133-.027zM850.07 209.222l-.08.19c-.027.063-.05.13-.075.192-.018.044-.036.088-.125.053-.088-.036-.07-.08-.053-.125l.08-.19c.027-.063.05-.13.075-.19.018-.046.036-.09.125-.055.09.036.07.08.053.125zM847.81 209.173c.187.075.338.177.462.302.124.12.217.262.297.417.022.045.044.09-.04.13-.09.043-.112 0-.13-.04-.07-.14-.155-.263-.26-.37-.108-.106-.237-.195-.4-.257-.045-.018-.09-.036-.054-.124.035-.088.08-.07.124-.053zM844.453 210.136c.245.27.404.586.49.946.083.35.097.742.052 1.16-.004.048-.01.097-.106.088-.1-.01-.095-.058-.086-.107.04-.4.03-.768-.05-1.097-.08-.324-.22-.612-.443-.856-.03-.036-.065-.072.01-.138.07-.067.107-.027.138.01zM833.11 211.23l-.04.38c-.014.13-.027.258-.036.382-.005.05-.01.098-.107.09-.097-.01-.093-.06-.084-.108.013-.128.026-.257.035-.38l.04-.383c.005-.048.01-.097.107-.088.098.01.093.058.09.107zM835.214 210.12c.053.18.106.363.164.545l.05.164c.012.048.026.092-.068.12-.093.025-.106-.02-.12-.068l-.048-.164c-.054-.182-.107-.364-.165-.546-.013-.045-.026-.093.067-.12.093-.027.106.018.12.067zM839.53 213.018c.022.08.035.16.04.235.004.08.004.156 0 .236-.005.047-.01.096-.107.087-.098-.01-.093-.057-.09-.106.006-.066.006-.137 0-.203-.003-.072-.017-.138-.034-.205-.015-.05-.028-.093.065-.12.093-.026.107.023.12.07zM841.017 209.732c.093.094.155.196.177.293.027.107.01.213-.044.316-.022.045-.05.09-.133.04-.084-.044-.062-.088-.04-.133.03-.062.04-.12.027-.182-.014-.062-.058-.133-.125-.204-.036-.034-.067-.066 0-.137.066-.066.1-.035.137 0zM830.716 210.252c0 .23.036.453.11.657.077.208.196.403.365.585.228.257.343.51.405.768.062.253.067.502.08.746 0 .048.005.097-.093.1-.098.006-.098-.043-.102-.092-.01-.24-.018-.48-.07-.71-.06-.23-.16-.458-.36-.69-.187-.2-.316-.416-.405-.647-.084-.23-.124-.474-.124-.727 0-.05 0-.098.098-.098s.098.05.098.098zM834.885 213.058c.23.43.36.852.41 1.28.052.42.025.85-.05 1.3-.084.52.027 1.025.31 1.5.263.444.676.866 1.208 1.257-.164-.573-.262-1.137-.24-1.683.027-.64.223-1.257.67-1.838.192-.25.32-.506.41-.768.093-.262.142-.53.177-.786.005-.05.013-.098.107-.085.097.01.088.058.084.107-.034.275-.088.55-.18.826-.094.275-.236.555-.44.82-.422.552-.604 1.13-.63 1.728-.028.61.106 1.24.31 1.887.026.085-.076.156-.147.11-.67-.45-1.18-.95-1.496-1.477-.306-.52-.43-1.066-.333-1.63.07-.43.093-.843.044-1.247-.048-.405-.168-.8-.386-1.21-.022-.04-.05-.083.04-.128.084-.05.11-.004.133.04zM833.21 215.62c0 .46-.127.923-.358 1.385-.182.364-.422.724-.706 1.083.146-.057.297-.115.444-.186.257-.12.515-.262.772-.457.178-.134.36-.29.538-.476.182-.187.364-.405.55-.662.027-.04.058-.08.138-.022.08.057.05.097.022.137-.19.262-.382.49-.568.684-.17.173-.338.324-.507.453.027.12.045.21.063.302l.066.337c.01.048.022.093-.075.115-.094.022-.108-.027-.117-.076-.03-.138-.05-.24-.07-.343-.014-.07-.027-.142-.045-.213-.23.165-.466.29-.693.395-.266.124-.528.217-.79.315-.084.03-.164-.085-.107-.156.373-.445.69-.884.906-1.324.218-.435.342-.866.342-1.296 0-.05 0-.098.098-.098.097 0 .097.05.097.098zM831.173 215.455v.44c0 .05 0 .098-.097.098-.098 0-.098-.05-.098-.098v-.44c0-.048 0-.097.098-.097.097 0 .097.05.097.097z"/>
      <path d="M829.895 212.96c.266.653.337 1.26.235 1.83-.098.568-.37 1.096-.773 1.593l-.013.014c-.386.333-.675.732-.888 1.18-.146.303-.257.627-.342.97.107-.148.213-.285.342-.414.253-.258.555-.458.955-.57.41-.225.795-.474 1.155-.753.364-.285.702-.595 1.012-.946.032-.036.067-.07.138-.01.07.063.04.1.01.14-.32.358-.667.678-1.04.967-.373.29-.768.547-1.19.778l-.022.008c-.364.098-.644.285-.88.52-.235.235-.42.528-.603.83-.05.08-.195.027-.178-.066.098-.55.245-1.07.467-1.54.22-.472.522-.89.93-1.24.383-.47.636-.968.73-1.5.092-.533.026-1.106-.227-1.723-.018-.045-.036-.09.053-.13.09-.035.11.01.13.054zM834.037 219.602c-.062.178.067.342.33.68.056.075.12.155.176.23.35.467.48.995.49 1.55.008.542-.094 1.106-.2 1.652-.02.093-.18.09-.192-.005-.088-.604-.345-1.137-.723-1.612-.382-.48-.892-.906-1.478-1.297-.04-.025-.08-.052-.028-.136.053-.08.093-.054.133-.027.604.404 1.128.844 1.523 1.34.302.378.53.787.662 1.235.066-.386.115-.772.11-1.145-.008-.515-.128-1.004-.448-1.435-.066-.093-.124-.164-.173-.226-.307-.395-.454-.586-.36-.86.017-.046.03-.095.124-.063.093.03.075.08.062.124zM835.804 219.487c.07.075.147.15.218.23.07.076.146.152.217.232.035.034.066.07-.005.136-.07.067-.107.03-.138-.004-.07-.076-.146-.15-.217-.23-.07-.076-.147-.152-.218-.232-.03-.035-.066-.07.005-.137.07-.067.106-.032.137.004zM837.97 220.184c-.137.435-.27.866-.403 1.3-.138.436-.27.867-.408 1.302-.015.05-.028.093-.12.062-.095-.027-.08-.075-.064-.12.138-.435.27-.866.405-1.3.138-.436.27-.867.41-1.302.012-.05.026-.093.12-.066.092.03.08.075.06.124zM839.196 227.452c-.04.11-.04.218 0 .324.018.045.036.094-.057.125-.09.036-.108-.008-.126-.057-.057-.155-.057-.31 0-.466.018-.05.036-.093.125-.058.092.035.074.08.056.123zM837.91 225.317l-.18.683c-.056.23-.114.458-.176.69-.014.047-.027.092-.12.07-.093-.027-.085-.07-.07-.12.056-.23.12-.458.176-.688.058-.227.12-.458.178-.684.013-.05.022-.093.12-.07.093.02.084.07.07.12zM836.053 225.308l.17.17c.034.034.065.065 0 .136-.072.067-.108.036-.14 0l-.168-.17c-.035-.034-.066-.065 0-.136.07-.067.107-.036.138 0zM833.873 224.264c-.044.13-.09.258-.138.387-.044.13-.09.258-.137.387-.018.044-.03.093-.125.058-.088-.03-.075-.08-.057-.125.044-.128.088-.257.137-.386.045-.13.09-.257.138-.386.02-.05.032-.093.125-.062.093.03.076.08.062.124zM830.752 227.563c-.12.13-.2.27-.258.418-.058.152-.09.307-.115.47-.01.05-.02.1-.112.08-.098-.017-.09-.06-.08-.11.03-.173.066-.342.128-.506.063-.17.156-.328.294-.48.03-.035.066-.07.137-.004.07.067.04.102.005.138zM821.818 236.315c-.044.097-.106.2-.19.297-.08.098-.178.19-.298.29-.036.03-.076.06-.138-.02-.062-.075-.022-.106.014-.137.11-.084.2-.173.27-.262.07-.084.125-.168.16-.248.022-.045.04-.09.13-.054.088.04.066.086.048.13zM823.217 235.573c-.04.098-.107.182-.19.253-.08.067-.183.124-.303.173-.05.017-.093.035-.124-.058-.036-.094.013-.11.057-.125.098-.035.183-.084.245-.137.062-.054.106-.116.137-.182.017-.045.04-.09.128-.05.09.04.067.085.05.13zM825.073 234.44c-.03.054-.067.107-.116.16-.048.054-.115.107-.2.16-.04.027-.084.054-.133-.03-.048-.085-.008-.112.036-.134.07-.04.12-.084.16-.124.035-.04.066-.084.093-.124.027-.04.05-.085.133-.03.085.047.058.087.036.132zM827.866 227.177c-.09.262-.15.52-.174.777-.022.258-.008.515.045.768.01.05.022.093-.07.116-.094.022-.108-.027-.117-.076-.062-.275-.075-.555-.048-.83.026-.275.088-.55.182-.822.017-.048.03-.093.124-.062.093.03.075.08.062.125zM829.766 207.85c-.01.217-.067.43-.17.644-.1.213-.247.42-.438.63-.03.036-.067.07-.138.004-.07-.066-.04-.102-.004-.137.177-.195.315-.39.408-.58.09-.192.142-.383.147-.57 0-.048.005-.097.103-.092.097.004.093.053.093.102zM827.826 206.136c.168.293.27.59.328.888.058.293.07.59.053.883 0 .05-.004.098-.102.094-.097-.004-.093-.053-.093-.1.018-.28.005-.556-.05-.836-.052-.275-.15-.555-.305-.83-.022-.04-.05-.085.035-.134.085-.048.11-.004.134.036zM825.255 209.324c-.35-.258-.6-.52-.76-.782-.16-.27-.217-.54-.177-.817.01-.048.018-.093.11-.08.1.018.09.063.08.11-.035.232.02.46.152.69.142.24.377.48.706.723.04.027.08.058.022.138-.058.08-.098.05-.138.022zM828.1 214.16v.422c0 .048 0 .096-.097.096s-.097-.048-.097-.097v-.421c0-.05 0-.1.097-.1.098 0 .098.05.098.1zM824.465 210.496c.572.542.914 1.194 1.096 1.918.117.448.166.924.174 1.42.005 0 .014-.004.023-.004.257-.088.457-.32.595-.688.146-.39.222-.932.235-1.62 0-.005.01-.045.013-.05.204-.332.33-.67.413-1.003.084-.334.124-.676.156-1.017.007-.085.123-.12.176-.05.333.47.626.96.853 1.484.225.524.376 1.08.434 1.682.004.048.01.097-.09.106-.097.01-.1-.04-.106-.09-.053-.576-.204-1.113-.417-1.62-.18-.43-.412-.834-.678-1.23-.027.258-.067.52-.134.782-.084.346-.213.688-.42 1.035-.015.7-.095 1.256-.246 1.66-.16.43-.4.697-.714.804-.03.01-.058.018-.085.004-.004.24-.017.485-.035.734-.005.05-.01.098-.107.09-.096-.01-.092-.06-.088-.108.067-.808.05-1.576-.128-2.27-.174-.687-.502-1.308-1.044-1.824-.035-.03-.07-.066-.004-.137.066-.07.102-.036.137-.005zM826.596 219.61l-.12.77-.12.763c-.004.05-.013.098-.11.08-.094-.013-.09-.062-.08-.11l.12-.765.12-.768c.008-.05.012-.093.11-.08.093.018.09.062.08.11zM822.502 221.347c.036.196.07.387.107.582.008.048.016.092-.08.11-.095.018-.108-.03-.117-.08l-.106-.582c-.01-.048-.018-.093.08-.11.093-.018.106.03.11.08zM826.04 216.65c-.048.386-.146.76-.297 1.12-.155.358-.368.71-.648 1.042l-.004.005c-.35.38-.52.777-.572 1.19-.053.412.004.843.12 1.283.013.048.022.093-.07.12-.095.022-.108-.023-.12-.072-.12-.457-.183-.91-.126-1.354.058-.448.245-.883.622-1.296.266-.315.47-.648.617-.99.148-.347.24-.702.285-1.07.005-.05.014-.098.107-.085.098.014.09.062.084.11zM825.117 215.273c.067.373.01.742-.146 1.115-.155.36-.403.724-.723 1.083l-.01.01c-.332.28-.567.586-.754.9-.186.32-.324.654-.46.992-.02.044-.037.088-.13.053-.09-.036-.07-.08-.053-.125.137-.34.28-.683.475-1.016.195-.333.444-.653.79-.946.302-.342.537-.684.684-1.026.14-.333.194-.67.132-1-.01-.047-.018-.092.08-.114.093-.018.106.03.115.08zM820.602 217.418c.106.746-.01 1.385-.29 1.945-.274.56-.714 1.04-1.25 1.47-.036.03-.076.06-.14-.018-.06-.076-.02-.107.02-.138.514-.413.936-.875 1.198-1.403.262-.53.373-1.128.27-1.834-.004-.05-.012-.098.085-.11.098-.014.102.035.11.083zM814.834 220.61c.058.116.11.23.164.347.063.124.12.244.178.368.022.045.04.09-.044.13-.09.04-.11 0-.13-.046-.057-.125-.12-.245-.177-.37-.053-.114-.11-.23-.164-.34-.02-.045-.04-.09.045-.13.09-.04.11 0 .13.045zM812.548 220.655c-.005.44.03.874.137 1.292.11.417.29.82.582 1.207l.01.018c.145.298.23.595.287.897.04.22.067.443.08.665.28-.297.493-.6.65-.915.176-.364.27-.74.278-1.132 0-.05 0-.097.098-.093.098 0 .098.05.093.098-.01.417-.11.82-.297 1.212-.19.39-.47.763-.84 1.123-.057.058-.16.018-.164-.067-.013-.287-.035-.576-.09-.855-.052-.28-.132-.56-.265-.84-.302-.404-.493-.83-.608-1.27-.117-.44-.152-.887-.148-1.345 0-.05 0-.097.098-.097s.098.048.098.097zM812.858 228.465c.018-.24.054-.475.11-.72.06-.24.13-.475.228-.714.018-.044.035-.088.124-.053.093.036.07.08.058.125-.093.23-.164.46-.218.688-.053.226-.088.457-.106.684-.005.048-.005.097-.107.088-.097-.004-.093-.053-.09-.102zM812.592 230.64l.12-.866c.004-.048.013-.097.11-.084.1.013.09.062.085.11l-.12.867c-.004.05-.013.098-.11.084-.098-.012-.09-.06-.085-.11zM811.096 234.285c.142-.142.28-.31.408-.497.133-.19.258-.4.382-.617.022-.043.05-.083.133-.04.084.05.06.09.035.134-.125.227-.258.44-.39.635-.14.195-.28.372-.436.523-.037.036-.072.067-.14 0-.065-.066-.03-.102 0-.138zM808.933 222.053v.36c0 .05 0 .098-.097.098-.098 0-.098-.048-.098-.097v-.36c0-.05 0-.097.098-.097.097 0 .097.048.097.097zM805.275 230.48c-.005-.088-.01-.177-.018-.266l-.018-.27c0-.05-.005-.1.093-.103.097-.003.102.04.102.094l.017.267c.005.09.01.178.018.267 0 .05.005.098-.093.102-.098.004-.102-.04-.102-.094zM814.46 215.49c-.185.645-.332 1.315-.318 1.888.008.555.164 1.017.563 1.274.467.302.67.755.866 1.195.015.026.023.053.037.08.057-.218.106-.45.13-.68.03-.284.03-.56-.01-.808-.01-.05-.018-.1.08-.116.093-.018.106.03.11.08.045.266.045.563.014.86-.035.334-.11.67-.208.964-.026.08-.142.09-.177.014-.05-.102-.098-.21-.147-.32-.182-.413-.373-.84-.795-1.11-.46-.297-.643-.817-.657-1.434-.01-.595.138-1.283.33-1.945.012-.05.025-.093.12-.066.092.026.08.07.065.12zM813.817 213.036c.063.5.045.963-.04 1.43-.084.46-.235.923-.435 1.425-.235.6-.342 1.235-.31 1.874.03.635.195 1.266.488 1.865.022.043.044.088-.044.128-.09.044-.11 0-.13-.045-.31-.62-.48-1.283-.51-1.94-.03-.666.08-1.327.324-1.953.196-.49.342-.942.422-1.39.084-.444.102-.888.04-1.368-.004-.05-.013-.097.084-.11.094-.014.103.035.11.084zM809.55 219.11c-.133.293-.16.586-.11.88.053.296.182.598.364.9.026.04.05.084-.03.133-.086.05-.112.01-.135-.035-.192-.32-.334-.644-.387-.968-.058-.33-.027-.662.124-.99.023-.045.04-.09.13-.05.088.04.066.085.048.13zM807.69 218.444c.03.173.04.377.022.58-.017.18-.062.352-.133.507v.006c-.085.164-.103.328-.072.493.036.172.125.345.244.523.027.04.054.08-.026.137-.08.058-.107.018-.138-.026-.138-.196-.235-.396-.275-.595-.04-.21-.022-.414.09-.623.06-.133.096-.284.114-.44.018-.182.01-.368-.018-.528-.01-.05-.018-.1.08-.112.097-.018.106.03.11.08zM818.568 202.33c-.057.51-.03.99.07 1.448.103.453.277.888.516 1.3.027.04.05.086-.035.134-.086.05-.108.005-.134-.035-.245-.426-.43-.88-.538-1.354-.106-.475-.137-.977-.07-1.51.004-.05.008-.098.106-.084.098.008.093.056.084.105zM817.205 203.65c.253.448.47.932.635 1.46.164.53.275 1.11.315 1.754.005.05.005.098-.093.102-.098.005-.098-.044-.102-.093-.036-.626-.147-1.19-.306-1.705-.16-.515-.373-.98-.618-1.42-.022-.045-.048-.085.036-.134.084-.05.11-.004.133.035zM810.447 203.858c-.652.928-.936 1.683-.99 2.336-.053.648.12 1.19.378 1.69l.004.015c.177.514.257 1.024.243 1.54-.008.51-.115 1.025-.297 1.535-.018.05-.03.094-.124.058-.094-.03-.076-.08-.058-.124.177-.494.275-.982.288-1.475.01-.49-.062-.977-.23-1.465-.27-.53-.453-1.106-.396-1.79.058-.683.35-1.474 1.026-2.433.027-.04.058-.08.138-.026.08.058.053.098.022.138zM816.748 201.185c.058.28.03.573-.098.857-.115.262-.315.51-.613.746-.3.235-.48.542-.56.91-.083.378-.066.817.028 1.31.01.05.017.098-.08.116-.094.017-.107-.032-.116-.08-.094-.52-.112-.982-.023-1.386.09-.408.29-.754.63-1.02.27-.214.45-.44.556-.67.11-.245.133-.5.084-.738-.01-.05-.022-.094.075-.116.094-.018.107.03.116.076zM810.075 201.758c.128.413.133.817.013 1.22-.116.4-.355.796-.72 1.182l-.008.01c-.35.292-.564.665-.697 1.078-.138.422-.187.892-.214 1.38-.005.05-.005.098-.103.094-.097-.004-.093-.053-.093-.102.027-.502.08-.986.222-1.43.142-.444.373-.843.75-1.163.342-.364.564-.733.675-1.1.108-.365.103-.738-.012-1.11-.013-.05-.03-.094.062-.12.093-.028.107.017.12.065zM813.893 201.958c-.022.15-.022.293 0 .435.022.138.075.27.164.4.027.04.053.08-.026.137-.08.053-.106.018-.137-.026-.107-.156-.17-.316-.195-.476-.027-.164-.027-.328 0-.492.004-.05.013-.098.11-.085.098.015.09.063.085.112zM813.71 200.954c-.35.147-.616.396-.807.75-.187.352-.298.804-.333 1.36.022.026.035.048.035.066.187.253.316.555.395.892.09.37.12.786.107 1.24 0 .048-.004.097-.102.092-.098-.004-.093-.053-.093-.097.013-.44-.018-.84-.102-1.19-.07-.298-.182-.564-.338-.786-.724.676-1.08 1.422-1.1 2.234-.028.848.305 1.772.945 2.758.026.04.053.084-.027.137-.08.052-.106.008-.133-.032-.662-1.02-1.004-1.98-.977-2.868.027-.875.41-1.674 1.194-2.393v-.005c.032-.608.15-1.105.36-1.496.213-.395.51-.675.906-.84.044-.017.09-.035.13.054.034.09-.01.11-.055.13zM812.628 199.55c-.01.08-.018.143-.023.21-.05.462-.097.98-.448 1.297-.195.173-.32.377-.41.594-.087.228-.132.472-.163.73-.004.048-.01.097-.106.084-.098-.01-.09-.058-.085-.11.03-.272.085-.534.178-.778.098-.25.24-.475.458-.67.293-.262.346-.746.386-1.168.01-.08.018-.156.023-.213.004-.05.013-.098.11-.085.098.014.09.063.085.11zM823.235 210.87c.115.24.208.487.27.74.063.253.094.515.08.786 0 .05-.004.098-.102.094-.097-.005-.093-.054-.093-.103.013-.253-.018-.492-.07-.732-.06-.236-.152-.47-.263-.702-.022-.044-.04-.09.05-.128.088-.04.105 0 .128.044zM823.266 214.35c.084.4.09.808.018 1.216-.072.41-.222.826-.444 1.248-.15.35-.298.702-.45 1.052-.02.045-.04.09-.128.054s-.07-.085-.053-.13c.15-.35.297-.705.447-1.056l.005-.01c.217-.403.36-.798.43-1.19.067-.385.063-.77-.017-1.144-.01-.05-.018-.098.075-.116.094-.022.107.027.116.076zM821.055 211.11c.635.705 1.047 1.45 1.243 2.236.2.786.177 1.612-.062 2.474-.014.048-.027.093-.12.066-.093-.027-.08-.07-.067-.12.23-.83.252-1.62.06-2.375-.19-.754-.59-1.473-1.202-2.157-.03-.036-.062-.07.01-.138.07-.066.106-.026.137.01zM820.86 215.016c-.196.413-.414.826-.68 1.24-.266.412-.577.824-.946 1.237-.213.236-.408.498-.577.786-.17.292-.315.612-.43.972-.027.088-.196.057-.187-.036.018-.293-.018-.586-.098-.88-.08-.292-.213-.59-.39-.883v.005c-.356-.524-.507-1.052-.48-1.576.03-.524.24-1.044.613-1.563.213-.365.364-.734.47-1.098.107-.364.16-.732.173-1.1 0-.05.005-.1.103-.094.098.004.094.053.094.102-.018.382-.07.764-.182 1.145-.11.382-.27.764-.493 1.146l-.005.01c-.35.493-.55.98-.578 1.465-.026.488.12.972.45 1.46l.003.005c.187.31.324.622.413.937.04.147.07.293.09.44.083-.19.172-.373.274-.542.178-.302.382-.577.604-.82.365-.406.67-.814.93-1.218.26-.41.48-.813.665-1.217.022-.044.04-.088.13-.048.088.04.065.084.048.128zM815.065 213.15c-.013.485.03.938.13 1.364.097.422.256.817.478 1.18.027.04.05.086-.03.134-.085.054-.107.01-.134-.03-.232-.383-.4-.795-.503-1.235-.102-.444-.146-.915-.133-1.412 0-.048.005-.097.098-.092.098.004.098.053.093.098zM811.766 214.918v.569c0 .048 0 .097-.098.097-.097 0-.097-.05-.097-.097v-.569c0-.05 0-.097.098-.097s.098.05.098.098zM812.858 211.903c.01.333-.035.658-.137.968-.106.312-.27.61-.51.89-.03.035-.062.075-.137.008-.076-.062-.04-.097-.01-.137.223-.26.378-.537.47-.825.1-.29.14-.59.13-.902 0-.048-.004-.097.093-.097.098 0 .098.05.098.093zM809.888 217.755c-.533-1.327-.662-2.38-.528-3.236.133-.867.532-1.524 1.056-2.062.35-.36.658-.714.857-1.158.2-.444.293-.977.222-1.696-.004-.05-.01-.098.09-.107.097-.01.097.04.106.09.072.754-.026 1.317-.24 1.793-.208.47-.527.843-.892 1.216-.497.506-.874 1.137-1.003 1.954-.13.826 0 1.847.52 3.14.017.043.035.088-.054.123-.088.036-.11-.01-.128-.053zM808.174 215.575c-.08.213-.11.43-.084.644.022.212.102.43.235.647.027.04.053.085-.03.134-.085.054-.107.01-.134-.03-.146-.24-.234-.484-.26-.73-.028-.243.003-.487.097-.73.017-.046.035-.09.124-.06.094.037.072.08.06.125zM816.6 209.59c.352.493.556 1.004.596 1.536.04.533-.08 1.084-.382 1.657-.022.04-.044.084-.128.04-.09-.045-.062-.09-.04-.13.284-.536.4-1.052.36-1.55-.036-.496-.232-.976-.56-1.437-.03-.04-.058-.08.022-.138.08-.058.107-.018.138.022zM819.234 207.53c.213.51.324 1.03.347 1.554.023.52-.053 1.048-.213 1.576-.026.09-.186.07-.19-.026-.018-.49-.12-.928-.302-1.315-.182-.387-.453-.72-.804-1.004-.035-.03-.075-.062-.012-.138.062-.075.097-.044.137-.013.378.302.662.657.857 1.07.12.253.21.528.262.82.058-.323.085-.647.07-.97-.017-.498-.123-.996-.327-1.484-.018-.043-.036-.088.053-.128.09-.035.11.01.13.054zM820.797 205.394c.346.342.59.795.742 1.355.145.55.198 1.197.172 1.94v.003c-.036.316-.05.622-.014.906.032.28.11.536.258.767.027.04.053.085-.027.138-.085.053-.112.01-.138-.03-.165-.26-.253-.547-.29-.854-.034-.3-.02-.62.014-.95v.006c.027-.724-.026-1.355-.164-1.883-.142-.524-.368-.946-.688-1.265-.036-.036-.07-.067 0-.138.067-.07.102-.036.138 0zM816.65 204.98c-.226.277-.364.6-.43.96-.067.365-.058.764.008 1.2.01.048.018.093-.08.11-.093.018-.102-.03-.11-.08-.072-.452-.08-.88-.01-1.265.072-.39.227-.74.47-1.048.032-.035.063-.075.14-.013.074.062.043.098.012.137zM808.52 210.456c-.035.808-.27 1.465-.648 2.007-.377.537-.892.963-1.5 1.32-.04.025-.085.047-.134-.037-.048-.084-.01-.107.036-.133.582-.342 1.08-.75 1.438-1.266.36-.51.582-1.132.618-1.9 0-.05.004-.098.102-.093.097.004.093.053.093.102zM808.312 207.66c.044.3.026.594-.04.887-.067.288-.182.577-.33.874-.02.046-.043.086-.127.046-.09-.045-.067-.09-.045-.13.142-.283.253-.558.315-.83.063-.27.08-.536.04-.816-.004-.05-.013-.098.085-.11.097-.014.106.034.11.083zM813.817 207.255v.275l.094 1.43.01.128c.004.05.004.098-.09.107h-.03c-.014.018-.036.027-.08.027-.098 0-.098-.05-.098-.098v-1.58l-.027-.387c-.004-.05-.008-.098.09-.106.097-.004.1.04.106.09v.03c.023.018.023.05.023.08zM815.145 204.8c-.39.475-.546.932-.555 1.38-.01.45.13.897.333 1.34.462.743.613 1.48.564 2.22-.045.738-.29 1.47-.613 2.203-.022.045-.04.09-.13.05-.087-.04-.065-.085-.047-.13.32-.71.55-1.425.595-2.135.044-.706-.098-1.408-.538-2.114l-.004-.008c-.218-.47-.364-.946-.355-1.435.01-.49.182-.99.6-1.5.03-.035.06-.075.137-.013.075.063.044.098.013.138zM806.607 189.575c.644-.493 1.274-.773 1.936-.844.657-.066 1.336.077 2.073.423.244-.005.49-.005.733-.01.247-.003.5-.008.75-.008.048 0 .097 0 .097.098 0 .097-.05.097-.098.097-.254.005-.503.01-.75.01-.228.004-.45.004-.676.008l-.013.014c-.79.697-1.465 1.078-2.064 1.203-.617.13-1.15-.01-1.634-.355-.05-.036-.098-.07-.03-.17.066-.097.12-.066.168-.03.435.302.905.426 1.447.315.524-.11 1.12-.435 1.816-1.026-.64-.28-1.225-.39-1.79-.334-.612.063-1.207.33-1.815.795-.05.037-.098.072-.17-.02-.07-.1-.026-.134.023-.17z"/>
      <path d="M808.516 189.202c.27 0 .488.217.488.488 0 .267-.217.49-.488.49-.266 0-.488-.22-.488-.49s.217-.488.488-.488zM811.877 192.154c.35-.182.622-.377.848-.577.222-.2.4-.404.55-.608.027-.04.058-.08.138-.023.08.057.05.097.023.137-.16.218-.347.435-.578.644-.235.21-.52.41-.888.6-.044.022-.088.044-.128-.04-.045-.085-.005-.11.04-.13zM818.808 189.286c.182-.05.36-.05.542.005.177.05.35.147.524.29.035.03.075.06.013.137-.062.075-.098.044-.138.013-.152-.124-.307-.21-.454-.25-.146-.04-.293-.04-.44-.003-.048.013-.092.027-.12-.07-.026-.094.023-.108.068-.12zM814.843 189.446c.155-.355.39-.626.715-.8.32-.168.724-.24 1.216-.195.05.006.098.01.09.108-.01.098-.058.093-.107.09-.458-.04-.826.02-1.11.172-.284.146-.49.386-.626.706-.017.044-.04.09-.128.05-.09-.04-.07-.086-.05-.13zM815.296 190.094c.027-.173.098-.328.218-.448.115-.125.28-.213.5-.276.05-.013.094-.026.12.067.028.093-.02.107-.065.12-.184.05-.32.124-.41.222-.09.092-.142.212-.164.345-.01.05-.018.093-.11.08-.094-.013-.09-.062-.08-.11zM808.698 192.288c-.106.168-.204.34-.275.528-.067.186-.102.386-.09.62.005.05.01.1-.088.104-.097.004-.102-.04-.106-.09-.02-.26.025-.492.096-.7.07-.205.178-.39.293-.57.026-.04.053-.083.133-.03.084.053.057.093.03.133zM810.59 193.136v.293c0 .047 0 .096-.098.096s-.098-.05-.098-.097v-.294c0-.05 0-.098.098-.098s.098.05.098.098zM809.36 191.022c.195.07.386.107.58.11.197 0 .396-.026.592-.07.05-.01.093-.022.115.07.022.094-.026.108-.07.12-.214.05-.427.08-.64.076-.218-.004-.43-.04-.648-.124-.05-.018-.095-.035-.06-.124.036-.093.08-.07.125-.058zM810.576 187.475c-.164-.005-.293.044-.39.12-.13.097-.21.235-.245.355-.012.048-.025.093-.12.066-.092-.026-.078-.075-.065-.12.05-.155.15-.328.315-.453.13-.097.302-.164.51-.16.05 0 .098.005.098.098 0 .1-.048.1-.097.1zM808.61 187.674c-.147.063-.263.134-.35.205-.08.065-.135.14-.157.212-.018.05-.03.093-.124.062-.094-.03-.077-.076-.063-.124.035-.11.11-.21.217-.302.102-.085.236-.165.404-.236.045-.017.09-.035.125.054.04.088-.005.11-.054.128zM807.397 187.71c-.12.084-.222.173-.306.275-.084.102-.15.218-.2.342-.017.044-.03.093-.123.058-.09-.03-.076-.08-.058-.125.052-.146.132-.28.23-.4s.213-.22.346-.314c.04-.027.08-.054.138.026.058.08.018.107-.027.138zM805.84 188.958c-.13.097-.254.204-.374.328-.12.124-.23.258-.338.404-.026.04-.057.08-.137.022-.08-.057-.048-.097-.02-.137.11-.156.23-.298.354-.427.124-.128.257-.244.395-.346.04-.03.08-.058.137.018.057.08.017.106-.023.138zM805.994 190.676c-.093.102-.186.204-.28.302l-.284.302c-.03.035-.066.07-.137.004-.07-.067-.04-.102-.005-.138l.28-.3c.093-.1.186-.2.284-.303.03-.036.067-.07.138-.005.07.067.04.102.004.138zM804.418 191.133v.604c0 .05 0 .098-.098.098-.097 0-.097-.05-.097-.098v-.604c0-.05 0-.098.097-.098.098 0 .098.05.098.098zM806.438 193.788l-.093.99c-.005.03-.005.063-.01.094-.003.048-.008.097-.106.088-.098-.008-.094-.057-.09-.106.005-.03.005-.062.01-.093l.093-.99c.004-.048.01-.097.106-.088.097.01.093.057.088.106zM805.253 192.91c-.005.212-.014.43-.023.643 0 .05-.004.098-.102.093-.097-.004-.093-.053-.093-.098.005-.217.013-.43.022-.648 0-.05.005-.097.102-.093.097.004.093.053.093.102zM804.152 184.5c.204.075.386.182.532.324.15.146.267.328.342.55.018.05.03.094-.062.125-.093.03-.106-.02-.124-.063-.067-.196-.17-.35-.293-.475-.13-.125-.284-.218-.466-.285-.044-.017-.088-.035-.057-.124.035-.093.08-.075.124-.058zM813.822 197.11c.186.42.288.843.293 1.26.01.422-.076.844-.253 1.266-.018.044-.036.09-.124.053-.09-.037-.072-.085-.054-.13.165-.395.244-.79.236-1.185-.005-.395-.098-.79-.276-1.186-.022-.045-.04-.09.05-.13.088-.04.11.005.128.05zM810.67 200.755c.137-.475.337-.888.568-1.266.23-.378.493-.72.755-1.058.302-.39.5-.816.608-1.252.116-.47.12-.96.036-1.42-.008-.05-.017-.094.08-.11.094-.02.107.03.11.08.09.487.086.998-.034 1.5-.11.46-.32.914-.644 1.327-.258.333-.515.67-.74 1.04-.223.363-.42.762-.548 1.215-.013.05-.026.094-.12.067-.093-.028-.08-.072-.066-.12zM806.616 199.685c.066-.178.164-.333.297-.47.133-.14.298-.254.493-.347.044-.023.09-.04.13.044.04.09 0 .11-.05.13-.178.083-.324.185-.44.305-.115.116-.2.253-.253.404-.017.046-.035.094-.124.06-.09-.032-.076-.08-.06-.125zM805.83 199.4c.15-.195.302-.377.475-.537.178-.164.377-.302.608-.395.045-.018.09-.036.125.053.035.095-.01.112-.058.126-.21.084-.386.208-.546.355-.165.152-.31.334-.453.516-.03.04-.057.08-.137.018-.08-.058-.05-.098-.018-.138zM810.03 195.236c.17.075.33.11.484.115.155.006.306-.017.453-.057.05-.013.093-.026.12.067.026.093-.022.107-.067.12-.164.05-.333.07-.51.066-.178-.004-.36-.048-.555-.133-.045-.022-.09-.04-.05-.128.04-.09.085-.067.13-.05zM807.94 194.965c.048-.058.097-.11.145-.17l.018-.02c.03-.037.067-.072.138-.01.072.067.04.102.01.138l-.018.022-.15.17c-.032.034-.063.07-.14.007-.07-.062-.04-.102-.008-.137zM853.156 208.01c.093.102.173.208.244.324.067.115.12.235.164.364.018.05.03.093-.062.12-.093.03-.106-.018-.124-.063-.036-.115-.085-.222-.147-.324-.056-.1-.132-.198-.216-.287-.03-.036-.067-.07.004-.138.07-.066.107-.03.138.005zM802.957 231.568c.213.196.435.373.68.497.24.12.506.196.808.196.048 0 .097 0 .097.1 0 .096-.05.096-.097.096-.333 0-.626-.084-.897-.217-.262-.135-.502-.32-.724-.525-.036-.03-.07-.067-.004-.138.066-.07.102-.04.137-.004z"/>
      <g fill="red">
        <path d="M840.848 186.59c1.115.05 2.19.005 3.104-.146-.977.706-2.225 1.182-3.57 1.404.262-.205.43-.418.506-.635.07-.21.058-.418-.04-.622zM838.19 186.316c.722.12 1.473.204 2.214.253.01.017.022.03.03.048.12.164.157.324.103.48-.062.177-.23.363-.506.554-.074.053-.15.107-.043.253-.493.062-.995.09-1.505.08-.258-.004-.51-.018-.768-.04.026-.013.053-.04.075-.062.27-.284.443-.577.492-.884.035-.227.01-.453-.093-.68zM818.537 180.668c1.252-.164 2.527-.204 3.823-.173.426.173.74.426.937.76.213.372.288.86.2 1.47-.014.088-.027.18.155.203.182.027.195-.067.204-.155.098-.693.01-1.257-.244-1.7-.124-.214-.284-.396-.48-.55.116.003.23.007.347.016 1.49.08 2.65.505 3.946 1.15.01.008.022.02.03.035.276.288.37.586.325.892-.048.324-.243.675-.554 1.035-.057.07-.12.137.022.257.138.12.2.048.258-.023.35-.413.582-.82.64-1.22.03-.227.013-.44-.067-.654 1.09.542 2.2 1.062 3.28 1.63.022.013.044.022.066.035 0 .023.01.05.018.07.09.308.054.57-.097.796-.165.235-.462.44-.893.6-.084.03-.17.062-.106.235.062.168.15.137.235.105.506-.19.86-.435 1.065-.737.174-.253.24-.532.2-.848.715.387 1.43.786 2.163 1.137l.005.004c.13.26.15.49.05.703-.108.226-.356.44-.752.635-.08.04-.164.08-.084.244.08.164.163.124.243.084.475-.235.777-.506.92-.808.097-.208.124-.42.08-.648.252.11.51.218.772.315.706.262 1.558.49 2.473.657.004.01.013.018.022.027.17.234.227.46.187.678-.04.227-.178.458-.4.69-.062.065-.124.127.004.256.024.022.04.036.06.05-2.776-.285-5.244-1.613-7.83-2.612-.305-.12-.616-.235-.922-.355-.955-.36-1.918-.848-2.877-1.24-.03-.03-.08-.048-.123-.06-.067-.023-.13-.045-.196-.063-.04-.018-.083-.03-.123-.05.004.006.013.01.018.014-.875-.28-1.76-.497-2.656-.62-.995-.14-2.007-.165-3.046-.032l-.17-.027c.09-.547.02-1.026-.252-1.444-.19-.297-.48-.56-.88-.777z"/>
        <path d="M813.995 181.89c1.274-.556 2.566-.91 3.885-1.13.604.24 1.003.534 1.23.88.217.342.27.742.195 1.204-.56-.054-1.114-.05-1.656.01-.61.065-1.204.203-1.79.41-.293-.616-.688-.99-1.15-1.193-.227-.1-.466-.16-.715-.185zM827.968 188.958c-.342-.218-.688-.43-1.048-.627-1.727-.95-3.708-1.535-5.692-1.61.018-.014.03-.03.05-.045.705-.72.86-1.398.62-2.033-.186-.493-.617-.95-1.212-1.363.666-.037 1.283.003 1.976.1.977.14 2.242.467 3.397.933.283.622.363 1.168.238 1.63-.128.484-.493.888-1.08 1.22-.08.045-.158.09-.07.25.09.16.17.115.25.066.678-.383 1.096-.862 1.25-1.448.12-.453.085-.96-.114-1.523.78.35 1.487.767 1.98 1.224.644.444 1.28.893 1.9 1.363.005.79-.226 1.24-.608 1.474-.404.245-.98.277-1.638.21-.09-.01-.183-.018-.2.164v.01z"/>
        <path d="M831.768 191.817c-1.154-.9-2.282-1.843-3.494-2.655.67.053 1.27 0 1.723-.27.44-.272.728-.743.777-1.51.724.56 1.42 1.15 2.082 1.784.333.315.666.626 1.008.933 0 .003.004.007.004.016.08.285.107.53.085.733-.022.2-.093.363-.21.492-.12.133-.292.23-.51.288-.324.094-.745.11-1.265.054-.084-.01-.173-.018-.195.137z"/>
        <path d="M835.75 194.44c-.4-.203-.78-.416-1.15-.634-.882-.524-1.713-1.123-2.525-1.75.497.04.914.014 1.252-.08.288-.08.52-.212.684-.394.17-.187.27-.418.302-.702.014-.124.014-.257-.004-.4.795.68 1.63 1.31 2.53 1.86.47.29.947.56 1.417.813-.004.03 0 .062.005.098.057.365-.147.596-.52.742-.435.174-1.083.245-1.825.29-.084.004-.164.008-.173.15z"/>
        <path d="M840.005 196.11c-1.35-.368-2.656-.883-3.85-1.465.684-.05 1.288-.13 1.723-.302.493-.195.777-.497.76-.98.79.4 1.58.745 2.383 1.03.143.314.152.572.02.79-.16.266-.512.488-.947.68-.084.034-.168.074-.093.238v.006z"/>
        <path d="M848.867 195.21c.115-.02.826-.205.457.066-2.61 1.71-5.923 1.705-9.044.9.484-.217.88-.48 1.08-.807.15-.245.176-.525.105-.83.995.323 2.003.554 3.042.687.004.16-.04.32-.165.475-.164.204-.444.404-.9.604-.085.035-.17.07-.094.24.07.168.155.128.24.093.515-.228.848-.467 1.043-.712.174-.217.245-.435.245-.66 1.283.136 2.61.12 3.996-.063zM830.814 240.182c-.196.204-.36.43-.52.697-.76.252-1.43.63-2.246.594 0 .528.173.76.7.764 1.01-.507 1.235-.6 1.324-.53.125.108-.142.83-.977 1.418-.128.08-.124.128-.048.26.706 1.107 2.557.712 3.552.45.71-.187 1.992-1.03 2.347-1.74.138-.325-.173-.75-.484-1.097-.785.12-1.056-.245-.932-.5-.83-.292-1.753-.354-2.716-.318zM802.43 231.235c-.578.47-1.222.844-1.973 1.092-.284.094-.972.262-1.038.622-.01.128.46.408.762.243.835-.8 1.252-.355.293.462-.075.155-.013.33.15.475.867.777 3.012 1.03 3.988.413.724-.453 1.1-.95.47-1.638.005-.156.023-.307.05-.462l-1.195-.12-.732-.426zM821.112 237.735c-.07.01-.146.018-.217.03-.386.42.675.263 1.24.61.256.155.367.46.265.888-.52 1.238-3.42.84-4.382.328-.45-.234-.467-.505-.45-.89.2 0 .405-.014.61-.046.346-.048.688-.15 1.025-.34.093-.055.19-.112.085-.3-.107-.19-.205-.137-.298-.083-.284.16-.577.25-.87.29-.302.044-.613.044-.91.03h-.076c-.17-.097-.297-.213-.226-.315.07-.098.35.01.404.027.448-.21.84-.342 1.323-.435.066-.067.13-.138.195-.205.884.076 1.727.21 2.287.413zM807.708 236.976c-.178.107-.24.258-.37.537-.505.51-.99.817-1.637 1.11-.536.245-.017.48.36.737.343.253.79-.297 1.07-.714.307-.462.618-.325.418.035-.222.396-.382.965-.404 1.262-.115.32 1.1.564 1.31.573.74.035 1.674-.688 2.255-1.057.483-.493.408-.923.195-1.523l.004-.04c-.312.01-.605-.026-.893-.09-.35-.08-.697-.198-1.048-.345-.045-.018-.09-.035-.054-.13.022-.056.05-.07.08-.065l-1.28-.293zM812.898 187.56c.205-.01.41-.02.61.003.376.045.736.21 1.113.253 1.262-.475 2.305-.737 3.207-.697 1.052-.307 2.144-.436 3.237-.41-.014-.008-.027-.02-.04-.035-.13-.128-.067-.195 0-.257.59-.6.728-1.15.537-1.647-.195-.514-.727-.998-1.47-1.442-.79.088-1.548-.125-2.388-.03-.523.056-1.04.172-1.545.34.422.15.79.4 1.093.755.373.44.64 1.04.78 1.794.02.09.032.178-.146.213-.177.036-.195-.058-.213-.146-.127-.69-.367-1.23-.7-1.625-.35-.503-1.155-.7-1.408-.8-.84.084-1.665.177-2.384.363-.542.138-1.017.33-1.38.613.54-.115 1.105-.093 1.593.15.467.232.863.667 1.11 1.373.032.083.06.172-.114.23-.173.058-.204-.027-.23-.116-.21-.608-.538-.972-.925-1.163-.767-.38-2.352-.048-3.022.45-.39.293-.782.67-1.168 1.11-.04.048-.084.093-.138.097 1.44.098 2.886.173 4.005.622zm-4.266-.814c-.032-.08.022-.137.07-.195.405-.456.813-.86 1.235-1.17.408-.303.83-.52 1.265-.623.444-.493 1.1-.79 1.865-.985.742-.19 1.59-.29 2.447-.373-.254-.512-.578-.818-.95-.983-.4-.177-.862-.204-1.355-.155-1.035.355-1.954.91-2.838 1.536.08 0 .16 0 .235.005.262.017.498-.023.715.062.09.03.173.062.11.235-.074.21-.647.08-.847.067-.226-.014-.475.004-.75.07-.045.01-.085.023-.125.01-.928.572-1.63 1.154-2.38 1.79.57.2 1.013.434 1.302.71z"/>
      </g>
    </g>
    <g>
      <path d="M916.026 293.19l38.86-88.075-28.666-46.283-51.117 18.928-23.66 93.084c22.297 5.688 43.875 13.2 64.58 22.35z" fill="#0093dd"/>
      <path d="M866.47 211.72c25.607 6.533 50.395 15.16 74.172 25.673l-14.994 33.998c-21.907-9.683-44.738-17.63-68.332-23.647z" fill="#fff"/>
      <path d="M928.06 265.93l10.015-22.702c-23.456-10.372-47.907-18.88-73.166-25.326l-5.907 23.226c23.96 6.113 47.153 14.185 69.402 24.02z" fill="red"/>
      <path d="M872.12 235.59c.67-.42 1.384-.32 2.104-.203.58-.218 1.252-.293 1.98-.267.31-.17.67-.288 1.08-.364.216-.17.225-.35.03-.546-.182-.222-.284-.44-.298-.662-1.154-.67-1.58-1.69-2.02-2.704-.657-.173-.963-.395-1.034-.643-.32-.03-.635-.06-.95-.097-1.497.164-1.883-.32-2.416-.715-.444-.146-.83-.39-1.08-.857l-.492-.62c-.408-.52-.284-1.208.333-1.168.436.05.866.05 1.266-.124.466-.21 1.163-.205 1.69-.16.627-.036 1.023-.44 1.63-1.008-.004-.244-.004-.484-.008-.728-.098-.262.027-.378.373-.342.813.026 1.296.408 1.625.95.946.164 1.692.617 2.193 1.412 1.257.004 2.105.48 2.207.946.076.342-.293.732-.86 1.15.003.084.008.173.008.257.338.293.56.586.675.875.706.27 1.38.635 2.012 1.168 1.798-.21 4.83 1.096 8.93 3.71 2.658.476 5.238 1.213 7.715 2.284.524.017 1.048.03 1.568.048 4.444-.657 8.75-.15 12.747 2.904 1.51.182 2.864.657 4.174 1.2.973.4 1.963.554 2.962.647 1.616.157 3.255.556 4.88 1.31 1.824.41 3.53.982 4.586 2.26.75.907.568 1.74-.386 2.088-.577 1.216-1.727 1.27-3.45.67-1.186.218-2.49-.732-3.676-1.625-1.648-.528-3.162-1.478-4.658-2.49-.777-.582-1.563-.95-2.327-1.115-.598-.13-1.135-.213-1.495 0-.177.106-.155.17 0 .297.418.35.71.875.804 1.505.083.555-.006 1.195.025 1.874.036.715.467 1.234 1.186 1.678.494.302 1.08.622 1.928.742.404.08.52.315.506.622.227 1.083.435 2.175.83 3.156.11.28.324.413.644.65 1.097.79.53 1.673-.47 1.863-.875.773-1.63 1.292-2.527 1.497-.714.24-1.007-.054-1.246-.404-.43-.01-.65-.182-.83-.462-.875-.644-.13-1.763 1.962-1.283.044-.244.222-.32.4-.315-.125-.542-.196-1.146.04-1.71-.187-.12-.347-.27-.618-.36-.755-.24-1.47-.586-2.033-1.114-1.07-1.008-2.744-1.85-4.356-2.7-1.333-.066-2.323-.68-3.367-1.198-.47-.005-.94-.014-1.41-.018-.414-.138-.752.004-1 .302-.418.506-.902.422-1.475.355-.657-.075-1.323-.027-1.98-.035-.324.08-.644.182-.994.186-.742-.04-1.466-.05-1.958.364-.41.43-.817.4-1.226.24-.306-.142-.528-.293-.657-.453-.515-.107-.848-.235-.96-.39-.865-.245-1.11-.49-1.07-.733-1.15-.276-.603-1.18.143-1.212.88-.036 1.683.133 2.544.253.724.204 1.616.084 2.207-.45.382-.345.524-.643.99-.9-1.487-.098-2.584-.36-3.392-.87-2.176-1.372-3.916-1.705-5.302-.542-.368.21-.657.293-1.052.142-.332-.13-.758-.13-1.09-.053-.787.177-1.564.08-2.35-.204-1.15.288-2.295.35-3.445.115-.973.51-1.683.568-2.136.178-.427-.24-.83-.483-1.213-.745-.617-.094-.884-.25-.91-.453-.79-.09-.888-.378-.884-.693-.328-.378-.204-.667.125-.91.586-.245 1.194-.334 1.87.012.403.19.7.378.944.57.45-.055.835 0 1.173.123.248-.39.954-.41 1.727-.364.386-.257.848-.44 1.438-.492-.017-.093-.035-.187-.048-.275-.777-.205-1.177-.768-1.563-1.337-1.196-.022-2.053-.524-2.905-1.048-.702.058-1.266-.173-1.812-.5-.444.034-.936.052-1.403-.068-.923.253-1.798.235-2.624 0-.58.053-1.048-.004-1.527-.05-.547.627-1.16.738-1.83.42-.37-.468-.893-.774-1.554-.947-.502-.164-.657-.382-.746-.617-.613-.378-.49-.75.102-1.035.444-.212 1-.252 1.842.165.276.103.582.174.928.2z"/>
      <path d="M901.396 244.515c-.057-.102-.182-.36-.63-.102-1.39-.075-2.944-.058-4.11-.746-1.218-.715-2.47-1.46-3.815-1.407.4-.378.897-.635 1.475-.79.772-.205 1.687-.218 2.7-.054 1.42.23 2.672.506 3.64.87.932.35 1.59.786 1.878 1.346.01.013.067.08.08.088.373.24.697.484.968.742.205.19.383.39.534.604-.44.04-.893.01-1.337-.08-.488-.098-.96-.262-1.385-.48z" fill="#fff"/>
      <path d="M904.593 177.43l.08.42 1.75 9.056-6.958 6.065-.32.28.404.143 8.72 3.015 1.77 9.057.085.418.32-.28 6.97-6.043 8.734 2.993.403.137-.08-.417-1.75-9.062 6.96-6.064.318-.28-.403-.137-8.72-3.02-1.77-9.058-.086-.418-.318.28-6.976 6.047-8.73-2.996z"/>
      <g fill="#f7db17">
        <path d="M900.33 192.87l6.5-5.666 8.175 2.815zM916.088 189.81l6.523-5.67 8.148 2.82zM930.816 187.248l-6.5 5.666-8.174-2.815zM915.058 190.312l-6.522 5.665-8.147-2.815zM905.517 178.266l8.156 2.797 1.652 8.485zM916.048 190.378l8.17 2.815 1.634 8.467zM925.63 201.85l-8.156-2.79-1.652-8.486zM915.098 189.74l-8.17-2.812-1.633-8.467zM920.76 175.45l1.655 8.464-6.522 5.67zM915.533 190.627l1.648 8.485-6.513 5.652zM910.387 204.666l-1.656-8.462 6.524-5.67zM915.613 189.49l-1.647-8.485 6.514-5.647z"/>
      </g>
    </g>
  </g>
</svg>
