<?xml version="1.0" encoding="UTF-8" standalone="no"?>
<svg
   xmlns:dc="http://purl.org/dc/elements/1.1/"
   xmlns:cc="http://creativecommons.org/ns#"
   xmlns:rdf="http://www.w3.org/1999/02/22-rdf-syntax-ns#"
   xmlns:svg="http://www.w3.org/2000/svg"
   xmlns="http://www.w3.org/2000/svg"
   xmlns:xlink="http://www.w3.org/1999/xlink"
   id="svg70"
   version="1.1"
   height="900"
   width="1500">
  <metadata
     id="metadata76">
    <rdf:RDF>
      <cc:Work
         rdf:about="">
        <dc:format>image/svg+xml</dc:format>
        <dc:type
           rdf:resource="http://purl.org/dc/dcmitype/StillImage" />
        <dc:title></dc:title>
      </cc:Work>
    </rdf:RDF>
  </metadata>
  <defs
     id="defs74" />
  <rect
     style="fill:#da0000;stroke-width:2.43975019"
     y="0"
     x="0"
     id="rect30"
     height="900"
     width="1500" />
  <rect
     style="fill:#ffffff;stroke-width:2.43975019"
     y="0"
     x="0"
     id="rect32"
     height="600"
     width="1500" />
  <rect
     style="fill:#239f40;stroke-width:2.43975019"
     y="0"
     x="0"
     id="rect34"
     height="300"
     width="1500" />
  <g
     id="g55"
     transform="matrix(2.3809524,0,0,2.5,20,251)">
    <g
       id="tb4">
      <g
         style="fill:none;stroke:#ffffff;stroke-width:2"
         id="tb1">
        <path
           transform="scale(1.4)"
           d="M 0,1 H 26 M 1,10 V 5 h 8 v 4 h 8 V 5 H 12 M 4,9 H 6 M 26,9 H 21 V 5 h 8 m 0,-5 v 9 h 8 V 0 m -4,0 v 9"
           id="tbp1" />
        <path
           transform="scale(2.8)"
           d="m 0,7 h 9 m 1,0 h 9"
           id="tbp2" />
        <use
           height="100%"
           width="100%"
           x="0"
           id="use38"
           y="120"
           xlink:href="#tbp2" />
        <use
           height="100%"
           width="100%"
           x="0"
           id="use40"
           y="145.2"
           xlink:href="#tbp1" />
      </g>
      <g
         id="tb3">
        <use
           height="100%"
           width="100%"
           y="0"
           id="use43"
           x="56"
           xlink:href="#tb1" />
        <use
           height="100%"
           width="100%"
           y="0"
           id="use45"
           x="112"
           xlink:href="#tb1" />
        <use
           height="100%"
           width="100%"
           y="0"
           id="use47"
           x="168"
           xlink:href="#tb1" />
      </g>
    </g>
    <use
       height="100%"
       width="100%"
       y="0"
       id="use51"
       x="168"
       xlink:href="#tb3" />
    <use
       height="100%"
       width="100%"
       y="0"
       id="use53"
       x="392"
       xlink:href="#tb4" />
  </g>
  <g
     style="fill:#da0000"
     id="g68"
     transform="matrix(112.5,0,0,112.5,750,450)">
    <g
       id="emblem_half">
      <path
         id="path57"
         d="M -0.54815,0.83638 A 0.912046,0.912046 0 0 0 0.328544,-0.722384 1,1 0 0 1 -0.54815,0.83638" />
      <path
         id="path59"
         d="M 0.618339,0.661409 A 0.763932,0.763932 0 0 0 0.421644,-0.741049 1,1 0 0 1 0.618339,0.661409" />
      <path
         id="path61"
         d="M 0,1 -0.05,0 0,-0.787278 a 0.309995,0.309995 0 0 0 0.118034,0.099087 v 0.587785 L 0.077809,0.892905 Z" />
      <path
         id="path63"
         d="M -0.02,-0.85 0,-0.831217 A 0.14431,0.14431 0 0 0 0.252075,-0.967708 0.136408,0.136408 0 0 1 0,-0.924634" />
    </g>
    <use
       height="100%"
       width="100%"
       y="0"
       x="0"
       id="use66"
       transform="scale(-1,1)"
       xlink:href="#emblem_half" />
  </g>
</svg>
