<?xml version="1.0" encoding="UTF-8" standalone="no"?>
<svg
   xmlns:dc="http://purl.org/dc/elements/1.1/"
   xmlns:cc="http://creativecommons.org/ns#"
   xmlns:rdf="http://www.w3.org/1999/02/22-rdf-syntax-ns#"
   xmlns:svg="http://www.w3.org/2000/svg"
   xmlns="http://www.w3.org/2000/svg"
   id="svg172"
   height="900"
   version="1.0"
   width="1500">
  <metadata
     id="metadata178">
    <rdf:RDF>
      <cc:Work
         rdf:about="">
        <dc:format>image/svg+xml</dc:format>
        <dc:type
           rdf:resource="http://purl.org/dc/dcmitype/StillImage" />
        <dc:title></dc:title>
      </cc:Work>
    </rdf:RDF>
  </metadata>
  <defs
     id="defs176" />
  <rect
     style="fill:#006c35;stroke-width:1.89736652"
     y="0"
     x="0"
     id="rect168"
     height="900"
     width="1500" />
  <path
     style="fill:#ffffff;fill-rule:evenodd;stroke-width:1.79999995"
     id="path170"
     d="m 660.5261,212.562 c -0.69804,-0.0207 -1.74235,0.36891 -3.20616,1.2375 -3.29112,2.20608 -9.81288,9.00108 -10.0125,16.81884 -0.19957,4.41054 -1.03208,4.39326 1.85616,7.2 2.08638,3.00816 4.17024,2.71242 8.38116,0.50625 2.41848,-1.78162 3.23532,-2.91816 4.05,-5.90616 1.00328,-5.01102 -5.2731,2.37096 -6.075,-3.20616 -1.40247,-5.17788 2.60424,-7.30764 6.4125,-12.31884 0.0873,-2.35998 0.12942,-4.2858 -1.40625,-4.33116 z m 61.3116,0.3375 c -1.17621,0.1584 -2.61504,1.66527 -4.6125,5.2875 -1.43147,3.79368 -7.6059,9.53496 -3.15,21.375 3.64482,7.50744 5.14206,19.7082 3.4875,33.3 -2.5254,3.86262 -3.1014,5.19372 -6.4125,9.05616 -4.65174,5.00202 -9.68994,3.72312 -13.55616,1.85616 -3.61224,-2.43468 -6.45084,-3.68442 -8.1,-11.41884 0.29756,-12.32802 1.01585,-32.5062 -1.2375,-36.7884 -3.3219,-6.6312 -8.79714,-4.25304 -11.1375,-2.25 -11.24496,10.2816 -16.79922,27.6426 -20.1942,41.4558 -3.11868,10.0674 -6.44184,7.1559 -8.775,3.09384 -5.68044,-5.32314 -6.0795,-46.9494 -12.9375,-40.1058 -10.98378,31.392 6.30324,65.781 18.2808,62.4384 8.64144,3.57768 14.1246,-12.8709 17.6625,-30.8808 2.42028,-5.05458 4.26978,-5.63562 5.5125,-3.0375 -0.31934,23.9508 1.71731,29.2932 7.875,36.5616 13.73598,10.59732 25.0974,1.34262 25.9884,0.45 0.89084,-0.89082 10.6875,-10.6875 10.6875,-10.6875 2.38032,-2.5038 5.52564,-2.65608 8.8875,-0.45 3.26754,2.97 2.84796,8.08596 9.84384,11.64384 5.88744,2.35494 18.459,0.57274 21.375,-4.5 3.92436,-6.72552 4.87584,-9.03654 6.69384,-11.5875 2.80116,-3.72834 7.59384,-2.07756 7.59384,-0.9 -0.44633,2.07918 -3.26232,4.13028 -1.35,7.875 3.33108,2.49822 4.10472,0.89267 6.075,0.3375 6.9687,-3.33108 12.20616,-18.45 12.20616,-18.45 0.30841,-5.63886 -2.8998,-5.21118 -4.95,-4.05 -2.67426,1.63467 -2.83824,2.19024 -5.5125,3.825 -3.40722,0.5062 -10.00746,2.75382 -13.275,-2.30616 -3.33648,-6.08328 -3.35538,-14.56416 -5.90616,-20.7 0,-0.44631 -4.4577,-9.64782 -0.3375,-10.2375 2.07918,0.38644 6.55056,1.54186 7.25616,-2.19384 2.18088,-3.64122 -4.70556,-13.9707 -9.39384,-19.1808 -4.06944,-4.4667 -9.68832,-5.0112 -15.13116,-0.45 -3.81186,3.50694 -3.2463,7.42356 -3.99384,11.1375 -0.97065,4.26546 -0.78512,9.54864 3.54384,15.1875 3.80448,7.50204 10.7163,17.12718 8.4375,30.7116 0,0 -4.01634,6.46506 -11.08116,5.625 -2.94462,-0.64226 -7.74288,-1.91664 -10.29384,-20.7558 -1.93032,-14.26032 0.4837,-34.2396 -5.56884,-43.5942 -1.3664,-3.52998 -2.53962,-6.95772 -4.5,-6.69384 z m -19.404,1.512 c -1.83078,0.15984 -3.85884,2.2923 -5.5125,6.4125 -1.41878,3.13326 -3.1518,19.5192 -2.86884,19.5192 -1.13213,4.87674 5.09544,6.94332 7.93116,0.675 4.25088,-11.49174 4.2714,-16.38756 4.55616,-21.2616 -0.66222,-3.71286 -2.27538,-5.50368 -4.10616,-5.34384 z m 71.6616,1.29375 c -1.88046,0.17046 -3.37824,1.27143 -3.9375,4.05 -0.74932,6.53328 -0.36639,10.08576 0.73125,15.525 0.84184,3.62682 6.12072,9.69912 8.71884,13.21884 12.4128,16.68492 24.3558,33.4494 35.8884,50.7942 1.81296,12.879 3.14136,25.4772 3.99384,38.025 1.86876,27.5112 2.43666,61.758 0.73125,90.7308 5.15448,0.20322 13.41324,-8.32302 16.3125,-20.8116 1.88496,-17.27568 -0.67138,-52.524 -0.84375,-62.7192 -0.1215,-4.23252 -0.38203,-9.2826 -0.675,-14.56884 13.41486,21.9222 26.4294,45.1476 39.2058,70.65 4.65732,-2.21346 3.62502,-28.4364 0.9,-32.1192 -10.22526,-22.0086 -24.3522,-43.7328 -28.8558,-52.0884 -1.6256,-3.01734 -7.16274,-11.43846 -13.725,-21.15 -1.2082,-13.8573 -2.52108,-25.5942 -3.375,-29.1384 -2.10996,-14.64858 6.02046,1.65195 4.89384,-6.8625 -2.63808,-14.6286 -10.71234,-24.57 -20.25,-37.9692 -3.0753,-4.35798 -3.01446,-5.24682 -7.7625,1.06875 -2.83788,6.43824 -2.79954,11.79468 -1.96884,16.81884 -1.24886,-1.81494 -2.79252,-3.96702 -5.00616,-6.6375 -8.2368,-7.06662 -8.74494,-7.4529 -15.58116,-13.21884 -2.15568,-1.52968 -6.25968,-3.88422 -9.39384,-3.6 z m 212.4,2.19384 c -0.91577,-0.14238 -1.91358,0.30778 -3.0375,1.96884 -2.14812,1.88316 -4.45824,5.29344 -4.3875,9.675 0.52249,7.71984 1.8963,15.624 2.41884,23.3442 0.18412,1.03306 0.37836,2.06064 0.5625,3.09384 -0.82946,-1.05845 -1.55365,-1.88442 -1.96884,-2.30616 -15.04764,-15.80796 6.9138,-2.58354 -2.86884,-14.79384 -8.27316,-9.08406 -10.6938,-11.97468 -17.775,-17.4375 -3.55068,-2.295 -5.69592,-6.68016 -6.8625,0.7875 -0.46444,6.56046 -0.94712,14.15754 -0.50625,19.6884 -0.0254,3.07332 3.15756,8.85888 5.90616,12.2625 10.03824,12.33306 20.2914,25.4556 30.6,39.15 2.16936,27.9288 2.74788,53.5302 4.95,81.5058 -0.31203,11.96514 -3.9924,27.8568 -7.48116,29.3616 0,0 -5.32782,3.06072 -8.8875,-0.3375 -2.58894,-1.03959 -12.9375,-17.26884 -12.9375,-17.26884 -5.29776,-4.85676 -8.8299,-3.46896 -12.6,0 -10.3959,10.03842 -15.09768,28.8414 -22.1616,41.7942 -1.8216,2.89008 -6.95214,5.35032 -12.65616,-0.225 -14.48712,-19.7928 -6.01542,-47.9664 -7.81884,-40.725 -12.9033,14.54148 -7.18884,38.637 -4.275,43.8192 4.25448,8.51076 7.69644,13.95954 15.975,18.1692 7.5402,5.54994 13.41144,2.0862 16.65,-1.8 7.58736,-7.86312 7.68852,-27.972 11.25,-31.95 2.49822,-7.308 8.75916,-6.05106 11.8125,-2.8125 2.9592,4.25448 6.453,7.02252 10.8,9.3375 7.07742,6.24294 15.52428,7.37712 23.85,1.6875 5.68959,-3.1914 9.38139,-7.33896 12.71249,-15.525 3.5741,-9.55908 1.8068,-59.6556 1.0125,-87.525 5.3453,7.52958 10.6211,15.22224 15.8625,23.0058 2.3008,24.4638 3.3448,48.5568 2.5875,71.6616 -0.5425,4.59378 16.0312,-13.71528 15.9188,-22.3884 -0.075,-7.58844 0.014,-14.46588 0,-20.8692 8.0388,12.83508 15.8202,25.884 23.175,39.0942 4.5576,-2.41488 2.9954,-28.2204 0.1125,-31.7808 -7.7005,-12.92148 -17.562,-26.8848 -25.2,-37.6884 -1.5095,-13.63482 -3.5649,-29.7216 -4.5,-34.65 -1.4569,-7.68528 -2.9161,-19.2294 -5.1188,-28.35 -0.6042,-3.56148 -2.4278,-14.9373 -1.8562,-16.03116 0.8981,-2.54538 4.2916,0.0814 5.9625,-2.86884 2.5019,-2.72682 -8.6722,-31.6764 -14.3438,-39.9384 -2.0392,-3.70296 -5.7272,-2.42154 -10.2938,3.6 -4.2347,3.96234 -2.6853,13.00212 -1.0688,21.6 4.1989,21.9132 7.9468,44.2296 10.9125,66.4884 -5.4902,-8.16174 -12.1905,-18.0378 -18.7884,-27.5616 -0.1773,-0.91847 -0.8437,-4.28454 -0.8437,-4.33116 -10e-5,-0.39371 -0.9092,-17.9262 -1.68753,-22.1058 -0.13608,-1.69637 -0.5405,-2.18466 1.23753,-1.96884 1.8851,1.58569 2.1412,1.67123 3.3188,2.19384 1.9031,0.34834 3.5672,-2.8692 2.4188,-5.85 -5.8874,-10.8585 -11.77519,-21.7656 -17.66245,-32.625 -0.70848,-0.69761 -1.50298,-1.43258 -2.41884,-1.575 z m -548.154,0.5625 c -3.26214,-0.0932 -6.86124,1.92888 -5.45616,5.85 -0.81824,2.13714 6.3855,9.36162 7.65,13.33116 1.13393,2.82672 -1.12469,11.92878 1.2375,12.76884 2.1717,0.94162 5.1624,-6.3009 6.3,-12.99384 0.62955,-3.6666 0.15318,-16.21476 -8.38116,-18.7884 -0.43724,-0.0988 -0.88398,-0.15534 -1.35,-0.16866 z m 624.438,0.072 c -0.7436,0.0738 -1.6492,1.27552 -3.0375,4.21884 -3.3383,5.46822 -4.487,15.25932 -3.15,23.9058 8.0374,54.3654 14.0101,107.0082 15.2438,155.1942 -0.6912,4.5738 -0.893,7.00668 -3.0375,12.76884 -4.7444,6.08148 -9.9768,13.70556 -14.9061,17.38116 -4.9277,3.67398 -15.4149,7.17678 -18.8442,9.9 -10.8785,6.2883 -10.9332,13.51998 -2.1375,13.78116 15.1583,-1.75984 33.0948,-3.00348 45.45,-21.6558 3.3057,-5.22684 7.1982,-19.3968 7.3688,-28.0692 1.1557,-50.8446 -0.6506,-100.5588 -8.2688,-137.3058 -0.4881,-3.57966 -2.0686,-11.80728 -1.4625,-12.88116 0.9815,-2.5164 5.9409,0.25186 7.7061,-2.64384 2.591,-2.64528 -12.8257,-22.3848 -18.225,-30.825 -1.0787,-2.11968 -1.7439,-3.8637 -2.7,-3.76884 z m -158.9616,0.84375 c -0.62593,0.108 -1.55005,1.06065 -3.2625,3.31884 -4.2345,13.84488 -5.72274,25.1514 -4.10616,33.75 10.87668,56.7612 22.0212,108.4734 20.25,162.5058 5.15808,0.0344 11.12148,-11.79954 13.66884,-23.5116 1.39518,-16.13448 -0.93089,-25.9542 -1.35,-35.4384 -0.41726,-9.4833 -10.73502,-86.4252 -12.825,-93.6 -2.5218,-13.56732 10.0323,-1.78466 8.6625,-9.675 -4.3398,-9.9477 -15.17166,-24.4332 -18.5616,-33.075 -1.27454,-2.31444 -1.43177,-4.455 -2.475,-4.275 z m -387.054,1.06875 c -1.33668,0.23155 -2.62656,1.33301 -3.09384,3.15 -0.29392,1.19018 0.5152,3.16998 -0.5625,3.76884 -0.61866,0.62411 -2.96676,0.20462 -2.86884,-3.09384 0,-1.05046 -0.77123,-2.14668 -1.2375,-2.8125 -0.46809,-0.30661 -0.78397,-0.39375 -1.63125,-0.39375 -1.03234,0.0418 -1.00894,0.31401 -1.575,1.18125 -0.252,0.882 -0.576,1.746 -0.576,2.754 -0.12888,1.17385 -0.59891,1.5714 -1.4625,1.74375 -0.96521,0 -0.73678,0.10512 -1.51875,-0.39375 -0.46445,-0.508 -1.0125,-0.70776 -1.0125,-1.575 0,-0.89806 -0.23593,-2.33172 -0.50625,-2.925 -0.41,-0.54065 -1.05795,-0.82201 -1.8,-1.0125 -4.04406,0.0144 -4.33854,4.66164 -4.10616,6.4125 -0.30298,0.33019 -0.45293,8.56656 5.0625,10.85616 7.40412,3.53052 21.2886,2.03796 20.7,-9.9 2e-5,-1.05592 -0.23227,-4.6017 -0.3375,-5.56884 -0.75566,-1.75986 -2.15082,-2.42532 -3.4875,-2.19384 z m 99.3384,0.1125 c -2.55888,0.1305 -4.81788,0.86384 -6.75,1.85616 -4.9077,4.69908 -6.05826,12.23226 -2.19384,16.93116 3.7611,1.77619 7.51356,5.56182 5.00616,7.65 -10.63566,11.35998 -38.3166,30.3426 -39.7116,33.8058 -0.0108,0.0283 -0.0502,0.0866 -0.0562,0.1125 -0.004,0.0248 2.7e-4,0.09 0,0.1125 8.5e-4,0.0108 -0.002,0.0461 0,0.0562 0.009,0.0286 0.0385,0.0893 0.0562,0.1125 0.007,0.007 0.0482,0.0497 0.0562,0.0562 0.009,0.005 0.0463,-0.005 0.0562,0 0.0108,0.005 0.0441,0.0522 0.0562,0.0562 0.0126,0.004 0.0419,-0.004 0.0562,0 0.004,0.004 0.0515,0.0522 0.0562,0.0562 1.40665,0.94349 18.7272,0.92117 20.6442,0.0562 0.0144,-0.007 0.0446,-0.0488 0.0562,-0.0562 0.005,-0.004 0.0515,0.004 0.0562,0 0.004,-0.004 -0.004,-0.0524 0,-0.0562 5.9526,-2.19348 34.2,-34.4808 34.2,-34.4808 -1.46416,-1.25365 -2.81268,-2.17764 -4.275,-3.43116 -1.56755,-1.35707 -1.40971,-2.69118 0,-4.05 6.99588,-4.07124 4.779,-13.02876 1.125,-17.1 -3.02904,-1.35801 -5.87862,-1.818 -8.4375,-1.6875 z m 259.65,0.1125 c -0.74362,0.0738 -1.64923,1.21927 -3.0375,4.1625 -3.33828,5.46822 -5.60682,14.99076 -5.34384,23.9058 7.23168,50.0652 9.44874,93.8772 14.175,143.9442 0.38464,4.84236 -0.32521,11.8764 -3.54384,14.68116 -11.90538,12.43152 -29.0718,27.7632 -47.7558,34.8192 -2.01024,2.25702 4.99824,11.87784 14.0625,11.86884 15.15834,-1.75986 28.4814,-10.26756 40.8384,-32.6808 3.3039,-5.22702 9.1107,-16.41528 9.28116,-25.0884 1.15569,-50.8446 -2.56302,-90.3762 -10.18116,-127.125 -0.48805,-3.57948 -0.15606,-7.81344 0.45,-8.8875 0.98152,-1.17202 4.30974,0.0268 6.075,-2.86884 2.59074,-2.64528 -6.91938,-24.579 -12.31884,-33.0192 -1.0787,-2.11968 -1.74393,-3.80736 -2.7,-3.7125 z m -402.246,1.53 c -2.09214,0.24462 -4.06026,1.94796 -5.00616,4.21884 -0.35017,8.02998 -0.39726,16.05582 0.50625,23.4558 3.6522,12.97944 4.8087,24.3954 6.58116,37.6884 0.49165,17.80362 -10.28106,7.70148 -9.7875,-1.125 2.48742,-11.46456 1.81602,-29.5128 -0.39375,-34.0884 -1.75261,-4.5738 -3.78198,-5.70294 -8.04384,-4.95 -3.38364,-0.20682 -12.12498,9.3177 -14.56884,25.0884 2e-5,-2e-5 -2.03598,8.0937 -2.925,15.3 -1.19561,8.14428 -6.59088,13.91184 -10.35,-1.125 -3.24936,-10.92924 -5.24646,-37.8576 -10.6875,-31.5558 -1.55848,21.0258 -3.40902,58.023 14.45616,61.8192 21.609,2.07738 9.6723,-36.5292 17.49384,-43.5384 1.47865,-3.46356 4.21884,-3.52512 4.44384,0.84375 v 32.7942 c -0.19775,10.66068 6.81786,13.82868 12.2625,16.03116 5.66604,-0.43726 9.423,-0.28237 11.64384,5.23116 0.88538,18.9036 1.81458,37.854 2.7,56.7558 0,0 13.09914,3.76416 13.725,-31.8942 0.62777,-20.9376 -4.16934,-38.5074 -1.35,-42.5808 0.0997,-4.0023 5.2299,-4.2003 8.775,-2.25 5.64786,3.98412 8.15364,8.88732 16.93116,6.91884 13.35672,-3.67938 21.402,-10.16262 21.6,-20.4192 -0.78016,-9.74628 -1.90764,-19.503 -6.13116,-29.25 0.58966,-1.77255 -2.55654,-6.3837 -1.96884,-8.15616 2.4003,3.75912 6.03162,3.44718 6.8625,0 -2.2734,-7.49124 -5.81256,-14.66892 -11.53116,-17.775 -4.72626,-4.16376 -11.64222,-3.2832 -14.175,5.4 -1.17385,10.00584 3.62628,21.8646 10.9125,31.5558 1.54759,3.78648 3.71232,10.08396 2.75616,15.75 -3.8772,2.21166 -7.72128,1.2915 -10.96884,-2.1375 2e-5,-2e-5 -10.63116,-7.9587 -10.63116,-9.73116 2.82114,-18.063 0.60766,-20.1312 -0.95625,-25.1442 -1.09219,-6.91974 -4.37148,-9.11124 -7.03116,-13.8375 -2.65968,-2.81934 -6.2676,-2.81934 -7.9875,0 -4.69908,8.14608 -2.49444,25.6356 0.9,33.4692 2.45286,7.2045 6.2145,11.7 4.44384,11.7 -1.45868,4.07124 -4.50036,3.12408 -6.69384,-1.575 -3.13146,-9.7119 -3.76884,-24.1866 -3.76884,-30.7116 -0.93982,-8.08992 -1.98756,-25.371 -7.3125,-29.7558 -1.42081,-1.93518 -3.0978,-2.60892 -4.725,-2.41884 z m 75.8808,0.1125 c -1.07233,0.13554 -2.25774,0.74601 -3.65616,1.06875 -4.59378,1.46232 -8.89452,5.43366 -7.5375,13.1625 5.43024,32.9976 8.96976,58.1814 14.4,91.1808 0.83462,3.86442 -2.4048,8.95824 -6.58116,8.4375 -7.10118,-4.8042 -8.86356,-14.53428 -20.9808,-14.11884 -8.77212,0.1053 -18.7758,9.6507 -20.025,18.8442 -1.4623,7.3062 -1.98306,15.22818 0,21.6 6.165,7.41312 13.54986,6.62274 20.025,4.95 5.32494,-2.19168 9.70614,-7.4394 11.5875,-6.1875 0.005,0.005 0.0515,-0.007 0.0562,0 0.005,0.007 -0.005,0.0486 0,0.0562 1.16116,2.02968 -0.10944,19.1934 -25.0884,32.4558 -15.35058,6.89256 -27.5688,8.53938 -34.1442,-3.99384 -4.07304,-7.83234 0.29632,-37.6632 -9.73116,-30.7692 -29.655,76.4406 69.4764,87.111 80.55,3.15 0.71719,-2.36862 2.90178,-4.74516 4.44384,-4.1625 0.67662,0.28814 1.29596,1.20694 1.51875,2.925 -2.29878,76.023 -76.6908,81.234 -89.325,57.3192 -3.13146,-5.63706 -4.07358,-18.1854 -4.3875,-25.7058 -0.57271,-4.5495 -1.71427,-7.17372 -3.0375,-8.2125 -3.0141,-2.26476 -7.06446,3.6414 -7.93116,13.89384 -1.25365,8.24958 -0.9,10.51434 -0.9,18.45 3.96792,60.0462 99.6984,34.2468 115.2558,-15.35616 7.70166,-25.6428 -0.15678,-44.9874 2.41884,-47.3616 0.0223,-0.0187 0.0887,-0.04 0.1125,-0.0562 0.0245,-0.0144 0.0864,-0.0436 0.1125,-0.0562 0.0268,-0.0108 0.0841,-0.0472 0.1125,-0.0562 0.0877,-0.0234 0.23483,-0.0549 0.3375,-0.0562 9.50328,10.23624 22.8384,1.30055 25.7616,-2.25 1.25366,-1.77619 4.38966,-2.91564 6.58116,-0.61875 7.41312,5.32854 20.4066,2.81682 23.1192,-6.58116 1.56753,-9.18936 2.89242,-18.6498 3.20616,-28.4616 -4.82886,1.49926 -8.7255,2.62188 -10.29384,4.275 -0.37348,0.40786 -0.64975,0.86029 -0.73125,1.35 -0.41909,2.71602 -0.81841,5.44032 -1.2375,8.15616 -0.0448,0.22451 -0.117,0.43193 -0.225,0.61875 -0.20581,0.33338 -0.54605,0.64082 -0.9,0.84375 -1.70716,0.93209 -4.68396,0.39908 -4.8375,-2.08116 -2.2968,-10.44306 -11.74968,-11.80134 -17.49384,4.3875 -3.86442,3.13146 -10.91088,3.74274 -11.64384,-0.95625 0.93983,-10.8603 -3.43602,-12.31812 -12.20616,-7.2 -2.81952,-21.5118 -5.61636,-42.0498 -8.4375,-63.5616 3.6558,-0.1053 7.00812,2.5452 10.35,-1.63125 -3.61656,-11.24766 -11.26926,-34.1334 -15.58116,-36.2808 -0.0338,-0.0162 -0.079,-0.0432 -0.1125,-0.0562 -0.19577,-0.2349 -0.42741,-0.45128 -0.61875,-0.61875 -0.0796,-0.0675 -0.20214,-0.16794 -0.28125,-0.225 -0.079,-0.0549 -0.20252,-0.12366 -0.28125,-0.16866 -0.17316,-0.095 -0.38959,-0.17244 -0.5625,-0.225 -0.39312,-0.11142 -0.77506,-0.1638 -1.18125,-0.1125 z m 295.812,0.16866 c -3.79368,-0.1125 -7.99146,2.27826 -6.35616,7.03116 -0.95249,2.59254 8.15094,11.3868 9.61884,16.2 2.64168,7.39512 -2.01744,14.44914 0.73125,15.46884 2.52918,1.14118 6.048,-7.6347 7.36884,-15.75 1.52581,-6.56046 -3.1545,-20.0052 -9.7875,-22.7808 -0.50845,-0.1197 -1.03304,-0.15264 -1.575,-0.16866 z m -230.454,8.1 c 1.72762,-0.17604 3.8151,1.41133 4.8375,3.65616 1.09058,2.39454 0.54358,4.68252 -1.2375,5.11884 -1.78106,0.43625 -4.08438,-1.14916 -5.175,-3.54384 -1.09055,-2.39454 -0.54358,-4.73868 1.2375,-5.175 0.11124,-0.0274 0.22232,-0.0445 0.3375,-0.0562 z m 427.5,11.08116 c -3.4587,-0.12114 -7.2281,2.50488 -5.7375,7.65 -0.8672,2.80674 7.3816,12.33936 8.7188,17.55 1.2029,3.70836 -1.8306,15.65946 0.675,16.7625 2.306,1.23552 5.5473,-8.25714 6.75,-17.04384 0.6677,-4.8096 -2.8967,-21.6882 -8.9438,-24.6942 -0.4636,-0.12942 -0.9684,-0.20768 -1.4625,-0.225 z m -236.358,5.85 c 0.31635,1.41041 0.63252,2.83032 0.84375,4.275 0.70888,3.11706 1.31996,6.21324 1.96884,9.28116 -2.73042,-3.75966 -4.9905,-6.79734 -5.9625,-7.875 -6.17814,-7.3422 0.13914,-4.82148 3.15,-5.68116 z m 54.45,26.775 c -1.33668,0.23155 -2.62656,1.38924 -3.09384,3.20616 -0.29392,1.19016 0.57143,3.11382 -0.50625,3.7125 -0.61866,0.62411 -3.02292,0.26086 -2.925,-3.0375 -2e-5,-1.05048 -0.77123,-2.20284 -1.2375,-2.86884 -0.46805,-0.30663 -0.78397,-0.39375 -1.63125,-0.39375 -1.03235,0.0418 -1.00895,0.31403 -1.575,1.18125 -0.23947,0.88357 -0.5625,1.75477 -0.5625,2.75616 -0.12888,1.17385 -0.54265,1.57138 -1.40625,1.74375 -0.9652,0 -0.79304,0.10512 -1.575,-0.39375 -0.46447,-0.50798 -1.0125,-0.70778 -1.0125,-1.575 2e-5,-0.89807 -0.23593,-2.33172 -0.50625,-2.925 -0.41004,-0.54067 -1.05797,-0.76574 -1.8,-0.95625 -4.04406,0.0144 -4.2822,4.60548 -4.05,6.35616 -0.30301,0.33019 -0.50918,8.6229 5.00616,10.9125 7.40412,3.53052 21.3444,1.9818 20.7558,-9.95616 2e-5,-1.05592 -0.28852,-4.6017 -0.39375,-5.56884 -0.75566,-1.75986 -2.15082,-2.42532 -3.4875,-2.19384 z m -248.616,2.475 c -0.91296,-0.0931 -2.10978,0.24212 -3.4875,1.06875 -6.54768,3.5415 -9.08298,14.04702 -5.00616,20.1942 3.80826,5.41386 9.82926,3.43116 10.63116,3.43116 6.4152,0.8019 10.2375,-12.0375 10.2375,-12.0375 -2e-5,0 0.19318,-3.61008 -7.425,3.20616 -3.2058,0.60053 -3.64176,-0.55728 -4.44384,-2.3625 -0.66767,-3.34008 -0.5242,-6.72678 1.0125,-10.06884 0.70985,-2.00358 0.004,-3.27618 -1.51875,-3.43116 z m 351.45,1.63125 c -3.63492,-0.17676 -7.50384,2.1771 -8.49384,7.14384 0.0144,2.93004 1.32278,4.54032 1.06875,7.2 -0.37917,1.52037 -1.94562,2.52018 -5.68116,0.73125 0.58419,-0.53703 -2.41884,-4.78116 -2.41884,-4.78116 -2.91384,-1.77437 -6.80472,0.0963 -9.3375,1.74375 -1.39338,2.53278 -2.42406,6.87402 -0.84375,11.30616 4.18194,7.72704 18.5274,20.9124 25.3692,21.0384 0.12708,-6.9669 0.80388,-16.2315 1.18125,-21.9942 0.16146,-2.1753 0.67167,-4.57272 2.75616,-5.11884 2.08278,-0.54428 5.69754,2.09556 5.7375,-0.16866 -0.37919,-4.43232 -1.26502,-10.9728 -3.76884,-14.0625 -1.28248,-1.90026 -3.38778,-2.93148 -5.56884,-3.0375 z m -290.916,24.2442 c -0.0967,0.0355 -0.19238,0.11808 -0.28125,0.16866 -0.0436,0.0265 -0.12474,0.0808 -0.16866,0.1125 -0.72394,0.54347 -1.57822,1.79773 -3.4875,3.15 -3.22038,3.663 -3.79764,6.21378 -3.6,13.55616 0.18322,0.77665 6.1137,17.26542 11.1375,28.8558 3.38724,12.04686 6.52104,25.8408 4.21884,38.8692 -7.93026,17.22312 -23.8734,32.67 -39.2616,41.0616 -7.84026,2.511 -14.61132,1.65589 -16.425,-0.0562 -0.0144,-0.0144 -0.0432,-0.0425 -0.0562,-0.0562 -4.50252,-3.02724 -4.60584,-8.41608 -4.33116,-9.3375 -9e-5,-0.005 3.1e-4,-0.0499 0,-0.0562 0.0108,-0.0108 0.0459,-0.0464 0.0562,-0.0562 12.98484,-9.04428 27.8172,-16.36452 39.4308,-40.7808 3.429,-9.33084 4.47588,-14.93352 1.06875,-29.3616 -1.32824,-5.37624 -2.96892,-9.80028 -6.6375,-13.6125 0.009,-0.0108 0.0466,-0.0463 0.0562,-0.0562 2.2104,-1.05752 7.94538,3.16746 8.83116,0.50625 -1.35707,-6.88878 -6.02298,-16.137 -11.30616,-20.8692 -4.62636,-4.20192 -9.65916,-4.68828 -13.89384,-0.84375 -4.76982,2.65428 -5.7843,12.18726 -3.4875,20.5308 2.55096,6.2811 9.43794,7.38306 14.34384,20.025 -9e-5,0.0126 -4.3e-4,0.052 0,0.0562 0.10224,0.79265 1.68365,9.43632 -0.7875,12.9375 -2.00538,6.25356 -27.7632,26.5662 -29.5884,27.7884 -0.0202,0.0202 -0.14922,0.0934 -0.16866,0.1125 -0.0108,0.0108 -0.0466,0.0468 -0.0562,0.0562 -0.005,0.004 -0.0443,0.0441 -0.0562,0.0562 -0.005,0.005 -0.0511,0.0504 -0.0562,0.0562 -0.005,0 -0.05,3.1e-4 -0.0562,0 -0.004,-1.3e-4 -0.0434,-2e-4 -0.0562,0 -0.0108,-0.009 -0.0463,-0.0457 -0.0562,-0.0562 4.3e-4,-0.005 -1.3e-4,-0.0511 0,-0.0562 -0.0108,-0.0194 -0.0461,-0.0922 -0.0562,-0.1125 -0.0776,-0.50715 0.0587,-1.79834 0,-3.88116 -0.1692,-3.80592 1.40605,-12.41622 1.29375,-13.89384 5e-5,-0.005 -1.6e-4,-0.0506 0,-0.0562 -0.0108,-0.0108 -0.0457,-0.0463 -0.0562,-0.0562 7e-5,-0.005 -2.9e-4,-0.05 0,-0.0562 -0.0126,2.5e-4 -0.0544,1.6e-4 -0.0562,0 -8.51436,5.49738 -11.32632,22.3488 -12.88116,27.3384 -21.555,14.89338 -46.0332,25.974 -60.1308,41.0616 -7.34238,11.46636 50.5872,-13.16646 57.3192,-16.14384 0.0578,0.0434 0.11538,0.1134 0.16866,0.16866 1.2796,1.40827 1.3889,6.31854 5.23116,10.74384 6.02154,8.15706 18.8208,13.18032 31.275,10.06884 20.8854,-7.5492 32.9184,-21.7836 45.1692,-37.575 1.75079,-2.54718 4.49496,-4.55418 7.03116,-2.5875 8.41824,18.846 32.6898,32.256 64.0692,33.6384 7.26084,-8.83008 3.78828,-13.17186 0.84375,-15.01884 -0.90704,-0.60277 -15.60564,-6.33312 -17.8875,-12.0375 -1.43692,-5.30856 2.05668,-10.01664 9.05616,-13.55616 20.1474,-2.43666 39.9528,-5.14314 59.1192,-11.30616 0.19411,-6.43896 3.98682,-16.06806 6.525,-20.25 1.76236,-2.9016 2.89548,-3.18888 3.31884,-3.6 0.0144,-0.0144 0.0443,-0.0414 0.0562,-0.0562 0.005,-0.007 0.0511,-0.0484 0.0562,-0.0562 0.0108,-0.009 0.0461,-0.0463 0.0562,-0.0562 4e-5,-0.0193 7.6e-4,-0.0925 0,-0.1125 0.0108,-0.12744 -8.8e-4,-0.3469 -0.0562,-0.5625 l -3.2625,-1.9125 -64.2942,-0.28125 c -0.79423,-0.30577 -1.38476,-0.61267 -1.74375,-0.9 -0.0274,-0.0229 -0.088,-0.0898 -0.1125,-0.1125 -0.0108,-0.0108 -0.0455,-0.045 -0.0562,-0.0562 -0.0108,-0.0108 -0.047,-0.0452 -0.0562,-0.0562 -0.009,-0.0196 -0.0473,-0.0929 -0.0562,-0.1125 -0.005,-0.005 -0.0499,-0.0502 -0.0562,-0.0562 1.1e-4,-0.005 -5.2e-4,-0.0502 0,-0.0562 -0.005,-0.005 -0.0497,-0.0502 -0.0562,-0.0562 4e-5,-0.005 -3.2e-4,-0.0502 0,-0.0562 2e-5,-0.005 -2.3e-4,-0.0502 0,-0.0562 0,-0.005 -1.4e-4,-0.0502 0,-0.0562 -5.9e-4,-0.009 2.2e-4,-0.0477 0,-0.0562 2.3e-4,-0.004 1.6e-4,-0.0443 0,-0.0562 -9e-5,-0.005 1.8e-4,-0.0502 0,-0.0562 -1.1e-4,-0.005 2.5e-4,-0.0502 0,-0.0562 -1.3e-4,-0.005 3.4e-4,-0.0502 0,-0.0562 0.0108,-0.0108 0.0457,-0.0461 0.0562,-0.0562 0.0144,-0.0297 0.0367,-0.0832 0.0562,-0.1125 0.3139,-0.42302 1.07464,-0.82174 2.025,-1.18125 15.35256,-2.09178 42.6276,-6.5628 44.4384,-32.7942 -0.28303,-13.66344 -5.84676,-22.6098 -22.6116,-25.0884 -12.31902,0.95252 -21.105,12.86838 -19.6884,25.9884 -0.58963,3.53232 1.19531,10.46448 -2.41884,11.25 -23.6304,2.15892 -49.4226,16.96518 -50.2884,27.5616 -0.005,-9.4e-4 -0.0513,2.5e-4 -0.0562,0 -0.009,0.0108 -0.0464,0.0461 -0.0562,0.0562 -0.0182,0.009 -0.0828,0.0416 -0.1125,0.0562 -0.0196,-2.7e-4 -0.0927,7.2e-4 -0.1125,0 -0.038,0.0126 -0.12996,0.0463 -0.16866,0.0562 -0.0108,9.7e-4 -0.0418,-2e-4 -0.0562,0 -0.032,-5e-4 -0.0913,0 -0.1125,0 -0.0108,-3.4e-4 -0.0418,-3.6e-4 -0.0562,0 -0.0238,5.9e-4 -0.0929,9.5e-4 -0.1125,0 -0.061,-0.0126 -0.17208,-0.0428 -0.225,-0.0562 -1.53691,-0.42685 -3.51684,-2.96316 -3.20616,-6.525 -0.89989,-18.3186 -6.86196,-39.0474 -16.2,-55.0116 -3.33234,-3.33144 -4.78422,-4.68144 -5.7375,-4.8375 -0.0308,-0.004 -0.0826,0.001 -0.1125,0 -0.0392,-1.6e-4 -0.11808,4.5e-4 -0.16866,0 -0.009,2.5e-4 -0.0475,-7.2e-4 -0.0562,0 -0.005,-1.6e-4 -0.0509,4.5e-4 -0.0562,0 -0.007,0.002 -0.0493,-0.002 -0.0562,0 z m 61.5384,9.675 c -1.33668,0.23155 -2.62656,1.33299 -3.09384,3.15 -0.29389,1.19018 0.57143,3.16998 -0.50625,3.76884 -0.61868,0.62411 -3.02292,0.26087 -2.925,-3.0375 0,-1.05046 -0.77123,-2.20284 -1.2375,-2.86884 -0.46807,-0.30661 -0.72772,-0.39375 -1.575,-0.39375 -1.03234,0.0418 -1.0652,0.31401 -1.63125,1.18125 -0.23951,0.88353 -0.5625,1.75477 -0.5625,2.75616 -0.12888,1.17385 -0.54265,1.5714 -1.40625,1.74375 -0.96521,0 -0.73679,0.10512 -1.51875,-0.39375 -0.46445,-0.508 -1.06875,-0.70776 -1.06875,-1.575 -2e-5,-0.89807 -0.17964,-2.33172 -0.45,-2.925 -0.41002,-0.54065 -1.11422,-0.76576 -1.85616,-0.95625 -4.04406,0.0144 -4.2822,4.60548 -4.05,6.35616 -0.30299,0.33021 -0.50918,8.6229 5.00616,10.9125 7.40412,3.53052 25.0488,1.45197 20.7558,-9.95616 -2e-5,-1.05592 -0.28852,-4.6017 -0.39375,-5.56884 -0.75564,-1.75986 -2.15082,-2.42532 -3.4875,-2.19384 z m 248.346,10.18116 c -0.18612,-0.0335 -0.40025,-0.0205 -0.61875,0.0562 0,0 -34.3062,24.4062 -35.1558,25.2558 -3.40182,3.02436 -1.69996,13.65948 0,12.43116 2.45844,0.94523 36.9972,-22.4604 36.3384,-25.2 1.50529,0.0884 2.2293,-12.04056 -0.5625,-12.54384 z m -215.928,3.618 c 1.40017,-0.1485 3.23676,0.32657 5.00616,1.35 2.56104,1.48127 4.13964,3.71826 3.9375,5.34384 -0.007,0.0441 0.009,0.12564 0,0.16866 -0.0108,0.0428 -0.0997,0.1269 -0.1125,0.16866 -0.0144,0.0414 -0.0398,0.12834 -0.0562,0.16866 -0.0108,0.0266 -0.0434,0.0864 -0.0562,0.1125 -0.0126,0.0259 -0.0416,0.0871 -0.0562,0.1125 -0.0839,0.13734 -0.22244,0.28148 -0.3375,0.39375 -1.23111,1.14979 -4.07268,0.98611 -6.75,-0.5625 -2.53764,-1.46779 -4.1058,-3.7224 -3.9375,-5.34384 0.005,-0.0443 0.0481,-0.12528 0.0562,-0.16866 0.0425,-0.2012 0.12222,-0.38473 0.225,-0.5625 0.0367,-0.0635 0.0691,-0.16668 0.1125,-0.225 0.009,-0.0108 0.047,-0.045 0.0562,-0.0562 0.0756,-0.0882 0.18985,-0.20626 0.28125,-0.28125 0.40808,-0.32092 0.98644,-0.55035 1.63125,-0.61875 z m -300.438,6.1875 c -17.77644,0.32477 -43.8084,23.301 -44.4942,36.0558 18.7578,-9.00792 37.1826,-17.67816 56.25,-27 -3.0771,-4.59378 -0.18653,-8.73324 -11.75616,-9.05616 z m 57.6,7.9875 c 1.74256,0.0196 3.58038,0.88007 4.55616,3.31884 0.87811,2.23704 0.0416,4.57632 -1.0125,5.7375 -0.005,0.009 0.005,0.0473 0,0.0562 -0.0162,0.0259 -0.0387,0.0882 -0.0562,0.1125 -0.7461,0.96127 -3.36546,0.5625 -5.23116,0.5625 -2.25702,-0.0997 -3.36978,-0.4702 -4.725,-2.30616 -0.64768,-2.04102 1.32469,-4.04658 2.19384,-5.56884 0.009,-0.0144 0.0473,-0.0421 0.0562,-0.0562 0.0943,-0.14184 0.24842,-0.31187 0.39375,-0.45 0.675,-0.61825 1.8423,-1.19615 3.09384,-1.35 0.24334,-0.0299 0.48231,-0.059 0.73125,-0.0562 z m 452.088,7.074 c -3.1608,0.38977 -6.16536,3.3786 -4.78116,8.15616 -0.86724,2.80674 4.28796,12.6207 5.625,17.83116 1.20289,3.70836 -1.54928,14.19696 0.95625,15.3 2.30598,1.23554 8.37036,-6.22674 8.15616,-15.58116 0.66766,-4.8096 -1.71547,-22.5306 -7.7625,-25.5384 -0.69532,-0.19424 -1.46435,-0.2587 -2.19384,-0.16866 z m -383.958,17.325 c -2.7936,0.19526 -5.28642,1.68845 -4.1625,5.625 -0.16866,2.8557 7.89318,6.32808 8.38116,12.9375 1.15207,2.72502 -1.7235,11.4516 0.675,12.2625 2.20248,0.90713 5.2587,-6.03234 6.4125,-12.4875 0.63862,-3.5361 -2.76606,-15.90444 -8.55,-18.1116 -0.88763,-0.19096 -1.82502,-0.29009 -2.75616,-0.225 z m 114.9192,15.69384 c 0.21199,-0.0144 0.3989,0.001 0.61875,0 0.0369,-2.3e-4 0.0754,-1.6e-4 0.1125,0 7.16274,1.9467 17.72172,2.14848 26.8884,3.09384 7.46586,0.47353 11.15478,6.31854 4.1625,8.775 -6.89796,2.36232 -13.52538,4.20732 -13.55616,14.175 0.90677,4.93758 0.71469,7.52868 -0.0562,8.71884 -0.0603,0.0893 -0.15804,0.20794 -0.225,0.28125 -0.009,0.0108 -0.0464,0.0464 -0.0562,0.0562 -0.0108,0.009 -0.0461,0.047 -0.0562,0.0562 -0.0108,0.009 -0.0459,0.0477 -0.0562,0.0562 l -0.0562,0.0562 c -0.0198,0.009 -0.0925,0.0466 -0.1125,0.0562 -0.10026,0.0623 -0.22826,0.1287 -0.3375,0.16866 -0.0965,0.0328 -0.2349,0.0391 -0.3375,0.0562 -1.63971,0.24048 -4.0212,-1.3232 -5.79384,-2.25 -4.25268,-3.05352 -16.18758,-10.45008 -17.8875,-26.325 -0.24188,-3.58236 2.43972,-6.67152 6.75,-6.975 z m -280.692,12.20616 c -0.44744,0.0144 -1.34289,1.3511 -2.53116,2.86884 -10.57554,16.84746 -11.51604,41.9958 -5.68116,49.5 3.10068,3.5451 8.21304,5.10408 11.98116,3.99384 6.64398,-2.88108 9.56412,-16.3386 7.9875,-21.2616 -2.21706,-3.47076 -3.97404,-4.02066 -6.1875,-1.06875 -4.67532,9.4923 -6.62112,2.9988 -7.03116,-2.30616 -0.71665,-10.0602 0.2578,-19.3248 1.35,-26.6616 0.58147,-3.7602 0.55994,-5.07654 0.1125,-5.0625 z m 360.288,22.122 c -0.7864,-0.0421 -1.625,0.0808 -2.475,0.50625 -0.16686,0 -7.57044,5.0067 -9.95616,8.49384 -1.45507,1.10673 -1.29008,2.06874 -0.84375,3.99384 1.13393,2.60712 3.13218,1.78895 5.4,0.5625 3.00996,-0.41004 4.46544,1.56096 4.21884,5.175 -1.38974,4.50666 0.61873,6.1857 0.61875,6.46884 0,0.28303 2.89818,2.77056 6.3,0.7875 7.18092,-2.7414 11.6559,-5.40756 21.7116,-7.59384 2.63988,-0.0526 2.48724,-7.11648 -1.6875,-7.36884 -5.44644,0.27396 -10.47222,0.55217 -15.91884,4.8375 -3.35106,0.7747 -3.9249,-1.26495 -4.66884,-3.09384 -0.8509,-4.53744 1.9161,-7.73568 1.35,-11.1375 0.15102,0.14958 -1.69078,-1.50487 -4.05,-1.63125 z m 230.688,8.60616 c -1.336,0.0418 -2.7428,0.22684 -4.7812,0.39375 -2.2042,0.46811 -2.9739,1.43381 -3.375,4.10616 0.1579,4.05306 2.6369,3.85236 5.175,5.45616 1.4696,1.87056 2.4257,3.564 -0.1125,6.6375 -2.4057,2.20428 -4.1193,3.42072 -6.525,5.625 -1.1358,1.9377 -1.8432,4.91382 1.6313,5.85 6.4152,1.80342 21.2616,-7.84242 21.2616,-8.04384 2.4057,-1.80342 1.6076,-5.23116 1.4062,-5.23116 -1.4024,-1.60384 -4.5673,-0.64055 -6.6938,-0.9 -1.0124,0 -4.3366,-0.4921 -2.7562,-3.43116 1.319,-1.8288 1.8056,-2.92176 2.7,-5.175 1.0015,-2.20428 0.1212,-3.6909 -3.4875,-4.89384 -1.8378,-0.33383 -3.1077,-0.43547 -4.4438,-0.39375 z m -96.372,195.12 c -0.0144,0.007 -0.0421,0.0464 -0.0562,0.0562 -10.66986,2.7378 -10.33794,13.81482 -3.4875,18.675 -112.6692,0 -285.57,-1.9125 -322.65,-1.9125 -20.745,0 -86.3766,-2.475 -87.6384,-2.475 14.07528,20.5866 34.4646,24.7788 61.1442,25.2 50.0436,0 281.916,-0.61875 347.904,-0.61875 -4.69116,8.3295 0.42561,21.7332 4.10616,24.1884 0.0781,0.0502 0.20464,0.1287 0.28125,0.16866 0.13734,0.0684 0.31847,0.13482 0.45,0.16866 0.0436,0.0108 0.126,-0.005 0.16866,0 4.36878,1.0305 6.29118,-2.13228 7.7625,-4.44384 7.08696,0.62465 46.9746,1.20163 50.625,-0.0562 0.0126,-0.005 0.0441,-0.0511 0.0562,-0.0562 2.46924,3.63402 4.91976,7.06752 9.61884,6.46884 8.2242,-1.7635 14.70129,-2.6586 14.90619,-19.35 0,0 -0.8407,-28.4436 -19.51923,-26.6616 -4.41954,0.66766 -16.81884,1.9125 -16.81884,1.9125 -14.34924,-1.70725 -24.8742,-1.88172 -41.0058,-2.475 1.48901,-1.89036 4.11804,-9.54612 0.9,-12.31884 -0.8392,-0.69781 -2.09106,-1.08634 -3.825,-0.95625 -0.0126,9e-4 -0.0439,-1.4e-4 -0.0562,0 -0.0245,-10e-4 -0.0886,0.004 -0.1125,0 -0.0126,-0.004 -0.0446,-0.0527 -0.0562,-0.0562 -0.0463,-0.0162 -0.12456,-0.029 -0.16866,-0.0562 -0.0875,-0.0594 -0.20111,-0.18529 -0.28125,-0.28125 -0.0198,-0.025 -0.0931,-0.0855 -0.1125,-0.1125 -0.8158,-1.18777 -1.26122,-4.09986 -1.8,-4.8375 -0.007,-0.007 -0.0499,-0.0488 -0.0562,-0.0562 -0.007,-0.005 -0.0497,-0.0508 -0.0562,-0.0562 -0.0196,-0.0126 -0.0925,-0.0499 -0.1125,-0.0562 -0.007,-6.5e-4 -0.0495,-1.1e-4 -0.0562,0 -0.007,0.002 -0.0493,-0.002 -0.0562,0 z m 7.65,40.6692 c 0.0196,-0.009 0.0364,0.009 0.0562,0 16.43742,0.80192 31.8816,0.15426 48.3192,0.95625 2.60514,2.21454 1.30221,7.28712 -0.39375,8.2125 -0.076,0.038 -0.2041,0.0918 -0.28125,0.1125 -0.0619,0.0144 -0.1629,-0.002 -0.225,0 -0.0621,-10e-4 -0.1629,0.0144 -0.225,0 -5.34492,-0.13428 -8.43642,-0.25951 -13.78116,-0.39375 -0.009,-0.2659 -0.0387,-0.55273 -0.1125,-0.7875 -1.26668,-3.75408 -10.44144,-3.50298 -12.6,-0.5625 -0.0299,0.0423 -0.0855,0.12528 -0.1125,0.16866 -0.0346,0.0585 -0.0833,0.1647 -0.1125,0.225 -0.0347,0.076 -0.0868,0.20228 -0.1125,0.28125 -0.0337,0.11142 -0.0412,0.2767 -0.0562,0.39375 -0.0144,0.13464 -0.0682,0.30803 -0.0562,0.45 -7.21548,0.86724 -13.70952,-0.23956 -20.925,-0.50625 -2.11698,-2.63538 -1.86984,-7.40412 0.61875,-8.55 z" />
</svg>
