<?xml version="1.0" encoding="UTF-8" standalone="no"?>
<svg
   xmlns:dc="http://purl.org/dc/elements/1.1/"
   xmlns:cc="http://creativecommons.org/ns#"
   xmlns:rdf="http://www.w3.org/1999/02/22-rdf-syntax-ns#"
   xmlns:svg="http://www.w3.org/2000/svg"
   xmlns="http://www.w3.org/2000/svg"
   xmlns:xlink="http://www.w3.org/1999/xlink"
   id="svg58"
   viewBox="-5 -5 1500 900"
   height="900"
   width="1500"
   version="1.1">
  <metadata
     id="metadata64">
    <rdf:RDF>
      <cc:Work
         rdf:about="">
        <dc:format>image/svg+xml</dc:format>
        <dc:type
           rdf:resource="http://purl.org/dc/dcmitype/StillImage" />
        <dc:title>Flag of Uruguay</dc:title>
      </cc:Work>
    </rdf:RDF>
  </metadata>
  <defs
     id="defs62" />
  <title
     id="title10">Flag of Uruguay</title>
  <rect
     style="fill:#ffffff;stroke-width:52.70462418"
     id="rect12"
     height="900"
     width="1500"
     y="-5"
     x="-5" />
  <g
     transform="matrix(55.555554,0,0,49.999999,272.77778,245)"
     style="fill:#0038a8"
     id="g22">
    <rect
       id="rect14"
       height="2"
       width="17"
       y="-3"
       x="5" />
    <rect
       id="rect16"
       height="2"
       width="17"
       y="1"
       x="5" />
    <rect
       id="rect18"
       height="2"
       width="27"
       y="5"
       x="-5" />
    <rect
       id="rect20"
       height="2"
       width="27"
       y="9"
       x="-5" />
  </g>
  <g
     transform="translate(26.81311)"
     id="g87">
    <g
       transform="matrix(5.4999999,0,0,5.4999999,245,245)"
       stroke-miterlimit="20"
       id="g43"
       style="fill:#fcd116;stroke:#000000;stroke-width:0.60000002;stroke-miterlimit:20">
      <g
         id="u">
        <g
           id="t">
          <g
             id="s">
            <g
               transform="rotate(22.5)"
               id="g28">
              <path
                 d="M 1.5,9 6,12 C -2,25 7,27 0,33 3,26 -3,28 -3,16"
                 id="path24"
                 style="stroke-linecap:square" />
              <path
                 d="M 0,11 C -2,24 4.5,28 0,33"
                 id="path26"
                 style="fill:none" />
            </g>
            <path
               d="M 0,0 H 6 L 0,33 -6,0 h 6 v 33"
               id="path30" />
          </g>
          <use
             xlink:href="#s"
             transform="rotate(45)"
             id="use33"
             x="0"
             y="0"
             width="100%"
             height="100%" />
        </g>
        <use
           xlink:href="#t"
           transform="rotate(90)"
           id="use36"
           x="0"
           y="0"
           width="100%"
           height="100%" />
      </g>
      <use
         xlink:href="#u"
         transform="scale(-1)"
         id="use39"
         x="0"
         y="0"
         width="100%"
         height="100%" />
      <circle
         r="11"
         id="circle41"
         cx="0"
         cy="0" />
    </g>
    <g
       transform="matrix(0.54999999,0,0,0.54999999,245,245)"
       id="g56">
      <g
         id="right">
        <path
           d="m 81,-44 c -7,8 -11,-6 -36,-6 -25,0 -29,15 -33,12 -4,-3 21,-21 29,-22 8,-1 31,7 40,16 m -29,9 c 7,6 1,19 -6,19 -7,0 -20,-12 -14,-20"
           id="path45" />
        <path
           d="m 19,-26 c 1,-12 11,-14 27,-14 16,0 23,12 29,15 -7,0 -13,-10 -29,-10 -16,0 -16,0 -27,10 m 3,2 c 4,-6 9,6 20,6 11,0 17,-3 24,-8 7,-5 -10,12 -21,12 -11,0 -26,-6 -23,-10"
           id="path47" />
        <path
           d="m 56,-17 c 13,-7 5,-17 0,-19 2,2 10,12 0,19 M 0,43 c 6,0 8,-2 16,-2 8,0 27,11 38,7 -23,9 -14,3 -54,3 h -5 m 63,6 c -4,-7 -3,-5 -11,-16 8,6 10,9 11,16 M 0,67 C 25,67 21,62 54,48 30,51 25,59 0,59 H -5 M 0,30 c 7,0 9,-5 17,-5 8,0 19,3 24,7 1,1 -3,-8 -11,-9 C 22,22 25,9 16,7 c 0,4 3,3 4,9 0,5 -9,5 -11,0 2,8 -4,8 -9,8"
           id="path49" />
      </g>
      <use
         xlink:href="#right"
         transform="scale(-1,1)"
         id="use52"
         x="0"
         y="0"
         width="100%"
         height="100%" />
      <path
         d="m 0,76 c -5,0 -18,3 0,3 18,0 5,-3 0,-3"
         id="path54" />
    </g>
  </g>
</svg>
