<?xml version="1.0" encoding="UTF-8" standalone="no"?>
<!-- Creator: CorelDRAW -->

<svg
   xmlns:dc="http://purl.org/dc/elements/1.1/"
   xmlns:cc="http://creativecommons.org/ns#"
   xmlns:rdf="http://www.w3.org/1999/02/22-rdf-syntax-ns#"
   xmlns:svg="http://www.w3.org/2000/svg"
   xmlns="http://www.w3.org/2000/svg"
   xmlns:sodipodi="http://sodipodi.sourceforge.net/DTD/sodipodi-0.dtd"
   xmlns:inkscape="http://www.inkscape.org/namespaces/inkscape"
   xml:space="preserve"
   width="1500"
   height="900"
   style="fill-rule:evenodd"
   viewBox="0 0 16666.667 9999.9998"
   id="svg3355"
   version="1.1"
   inkscape:version="0.48.1 "
   sodipodi:docname="argen.svg"><metadata
   id="metadata3539"><rdf:RDF><cc:Work
       rdf:about=""><dc:format>image/svg+xml</dc:format><dc:type
         rdf:resource="http://purl.org/dc/dcmitype/StillImage" /></cc:Work></rdf:RDF></metadata><sodipodi:namedview
   pagecolor="#ffffff"
   bordercolor="#666666"
   borderopacity="1"
   objecttolerance="10"
   gridtolerance="10"
   guidetolerance="10"
   inkscape:pageopacity="0"
   inkscape:pageshadow="2"
   inkscape:window-width="1680"
   inkscape:window-height="988"
   id="namedview3537"
   showgrid="false"
   fit-margin-top="0"
   fit-margin-left="0"
   fit-margin-right="0"
   fit-margin-bottom="0"
   inkscape:zoom="0.62775369"
   inkscape:cx="750"
   inkscape:cy="450"
   inkscape:window-x="-8"
   inkscape:window-y="-8"
   inkscape:window-maximized="1"
   inkscape:current-layer="svg3355" />
 <defs
   id="defs3357">
  <style
   type="text/css"
   id="style3359">
   
    .str3 {stroke:#000000;stroke-width:3;stroke-linejoin:round}
    .str2 {stroke:#000000;stroke-width:3;stroke-linecap:round;stroke-linejoin:round}
    .str1 {stroke:#0093DD;stroke-width:3}
    .str4 {stroke:#000000;stroke-width:3.4685}
    .str0 {stroke:#0093DD;stroke-width:3.4685}
    .fil3 {fill:none}
    .fil2 {fill:#F4C600}
    .fil1 {fill:#FFFFFF}
    .fil0 {fill:#0093DD}
   
  </style>
 
  
  
  
 
   
   
  </defs>
 <g
   id="Background"
   transform="translate(-2082.7813,-2948.9063)">
 </g>
 <g
   id="flag"
   transform="translate(-2082.7813,-2948.9063)">
 </g>
 <g
   id="hoistedge"
   transform="translate(-2082.7813,-2948.9063)">
  <g
   id="g3364">
  </g>
  <g
   id="g3366">
   <g
   id="g3368">
   </g>
   <g
   id="g3370">
   </g>
  </g>
 </g>
 <path
   style="fill:#0093dd;stroke:#0093dd;stroke-width:9.81523705"
   inkscape:connector-curvature="0"
   class="fil0 str0"
   d="m 4.8935737,6671.6581 16656.8514263,0 0,3323.4306 -16656.8514263,0 0,-3323.4306 0,0 z"
   id="path3375" /><path
   style="fill:#0093dd;stroke:#0093dd;stroke-width:9.81524467"
   inkscape:connector-curvature="0"
   class="fil0 str0"
   d="m 16661.76,3347.8462 -16656.8523777,0 0,-3323.435935 16656.8523777,0 0,3323.435935 0,0 z"
   id="path3377" /><path
   id="path3379"
   d="m 16662.432,6698.2364 -16658.1971934,0 0,-3323.6046 16658.1971934,0 0,3323.6046 0,0 z"
   class="fil1 str1"
   inkscape:connector-curvature="0"
   style="fill:#ffffff;stroke:#0093dd;stroke-width:8.46961308" /><g
   id="g3381"
   transform="matrix(2.8266183,0,0,2.8266183,-5887.2176,-26601.594)">
   <g
   id="g3383">
    <g
   id="g3385">
     <path
   id="path3387"
   d="m 5078.2,10998.9 -19.4409,-295.28 -19.4449,294.051 0,0 c -4.8622,-52.906 -12.1496,-39.374 -15.7992,-62.752 -3.6496,-23.374 0,-25.831 -6.0748,-59.055 -6.0787,-33.221 -18.2323,-36.906 -23.0945,-55.362 -4.8622,-18.453 -1.2126,-27.067 -8.5079,-51.674 -7.2913,-24.606 -24.1339,-49.925 -19.4449,-35.681 12.1535,36.91 -1.2126,55.363 6.0788,89.815 7.2874,34.449 9.5511,22.662 17.0118,54.134 7.2913,30.76 -1.2126,33.221 3.6496,63.977 4.8543,30.756 7.2913,62.74 7.2913,62.74 l 77.7756,-4.913 z"
   class="fil2"
   inkscape:connector-curvature="0"
   style="fill:#f4c600" />
     <path
   id="path3389"
   d="m 5078.2,10998.9 -19.4409,-295.28 -19.4449,294.051"
   class="fil3 str2"
   inkscape:connector-curvature="0"
   style="fill:none;stroke:#000000;stroke-width:3;stroke-linecap:round;stroke-linejoin:round" />
     <path
   id="path3391"
   d="m 5039.32,10997.6 c -4.8622,-52.906 -12.1496,-39.374 -15.7992,-62.752 -3.6496,-23.374 0,-25.831 -6.0748,-59.055 -6.0787,-33.221 -18.2323,-36.906 -23.0945,-55.362 -4.8622,-18.453 -1.2126,-27.067 -8.5079,-51.673 -7.2913,-24.607 -24.1339,-49.926 -19.4449,-35.682 12.1535,36.91 -1.2126,55.363 6.0788,89.815 7.2874,34.449 9.5511,22.662 17.0118,54.134 7.2913,30.76 -1.2126,33.221 3.6496,63.977 4.8543,30.756 7.2913,62.74 7.2913,62.74"
   class="fil3 str2"
   inkscape:connector-curvature="0"
   style="fill:none;stroke:#000000;stroke-width:3;stroke-linecap:round;stroke-linejoin:round" />
    </g>
    <g
   id="g3393">
     <path
   id="path3395"
   d="m 5002.69,11006.4 -129.583,-265.264 93.185,279.193 0,0 c -24.4882,-46.988 -26.1063,-31.665 -38.315,-51.85 -12.2008,-20.181 -9.7638,-23.866 -27.9331,-52.201 -18.1732,-28.335 -30.7992,-27.036 -42.2559,-42.205 -11.4764,-15.165 -11.3583,-24.535 -27.3976,-44.441 -16.0433,-19.913 -41.1693,-36.775 -31.4528,-25.433 25.185,29.39 19.8071,51.618 39.563,80.618 19.7598,29.008 17.3937,17.24 36.185,43.421 18.3661,25.599 11.4331,31.166 27.5472,57.697 16.122,26.536 30.4646,55.146 30.4646,55.146 l 69.9921,-34.681 z"
   class="fil2"
   inkscape:connector-curvature="0"
   style="fill:#f4c600" />
     <path
   id="path3397"
   d="m 5002.69,11006.4 -129.583,-265.264 93.185,279.193"
   class="fil3 str2"
   inkscape:connector-curvature="0"
   style="fill:none;stroke:#000000;stroke-width:3;stroke-linecap:round;stroke-linejoin:round" />
     <path
   id="path3399"
   d="m 4966.29,11020.3 c -24.4882,-46.988 -26.1063,-31.665 -38.315,-51.85 -12.2008,-20.181 -9.7638,-23.866 -27.9331,-52.201 -18.1732,-28.335 -30.7992,-27.036 -42.2559,-42.205 -11.4764,-15.165 -11.3583,-24.535 -27.3976,-44.441 -16.0433,-19.913 -41.1693,-36.775 -31.4528,-25.433 25.185,29.39 19.8071,51.618 39.563,80.618 19.7598,29.008 17.3937,17.24 36.185,43.421 18.3661,25.599 11.4331,31.166 27.5472,57.697 16.122,26.536 30.4646,55.146 30.4646,55.146"
   class="fil3 str2"
   inkscape:connector-curvature="0"
   style="fill:none;stroke:#000000;stroke-width:3;stroke-linecap:round;stroke-linejoin:round" />
    </g>
    <g
   id="g3401">
     <path
   id="path3403"
   d="m 4935.75,11042.6 -220,-194.87 191.642,221.843 0,0 c -40.3858,-33.929 -36.0945,-19.142 -55.0039,-33.063 -18.8976,-13.921 -18.0433,-18.268 -45.5433,-37.409 -27.5,-19.134 -38.6693,-13.044 -54.9921,-22.611 -16.3307,-9.574 -19.7638,-18.275 -42.1142,-30.452 -22.3386,-12.178 -51.937,-18.024 -38.6654,-11.307 34.3701,17.397 37.815,40.015 67.0276,59.157 29.2165,19.134 22.5827,9.185 49.8386,26.098 26.6417,16.524 22.3425,24.355 47.2638,42.622 24.9213,18.272 48.9882,39.15 48.9882,39.15 l 51.5591,-59.157 z"
   class="fil2"
   inkscape:connector-curvature="0"
   style="fill:#f4c600" />
     <path
   id="path3405"
   d="m 4935.75,11042.6 -220,-194.87 191.642,221.843"
   class="fil3 str2"
   inkscape:connector-curvature="0"
   style="fill:none;stroke:#000000;stroke-width:3;stroke-linecap:round;stroke-linejoin:round" />
     <path
   id="path3407"
   d="m 4907.39,11069.5 c -40.3858,-33.929 -36.0945,-19.142 -55.0039,-33.063 -18.8976,-13.921 -18.0433,-18.268 -45.5433,-37.409 -27.5,-19.134 -38.6693,-13.044 -54.9921,-22.611 -16.3307,-9.574 -19.7638,-18.275 -42.1142,-30.452 -22.3386,-12.178 -51.937,-18.024 -38.6654,-11.307 34.3701,17.397 37.815,40.015 67.0276,59.157 29.2165,19.134 22.5827,9.185 49.8386,26.098 26.6417,16.524 22.3425,24.355 47.2638,42.622 24.9213,18.272 48.9882,39.15 48.9882,39.15"
   class="fil3 str2"
   inkscape:connector-curvature="0"
   style="fill:none;stroke:#000000;stroke-width:3;stroke-linecap:round;stroke-linejoin:round" />
    </g>
    <g
   id="g3409">
     <path
   id="path3411"
   d="m 4887.59,11101.9 -276.906,-94.803 260.898,130.705 0,0 c -50.1378,-15.697 -40.5787,-3.701 -63.3031,-9.232 -22.7283,-5.536 -23.5787,-9.89 -56.2165,-16.914 -32.6457,-7.035 -40.6614,2.921 -59.3622,0.41 -18.7008,-2.516 -25.1693,-9.221 -50.4134,-11.819 -25.2441,-2.595 -54.7953,3.472 -40.0039,4.535 38.3386,2.756 50.063,22.319 84.2913,28.681 34.2283,6.366 24.3346,-0.256 55.9134,4.803 30.8622,4.949 29.8465,13.843 59.7835,21.071 29.9291,7.221 60.0472,17.193 60.0472,17.193 l 25.2717,-74.63 z"
   class="fil2"
   inkscape:connector-curvature="0"
   style="fill:#f4c600" />
     <path
   id="path3413"
   d="m 4887.59,11101.9 -276.906,-94.803 260.898,130.705"
   class="fil3 str2"
   inkscape:connector-curvature="0"
   style="fill:none;stroke:#000000;stroke-width:3;stroke-linecap:round;stroke-linejoin:round" />
     <path
   id="path3415"
   d="m 4871.58,11137.8 c -50.1378,-15.697 -40.5787,-3.701 -63.3031,-9.232 -22.7283,-5.536 -23.5787,-9.89 -56.2165,-16.914 -32.6457,-7.035 -40.6614,2.922 -59.3622,0.41 -18.7008,-2.516 -25.1693,-9.221 -50.4134,-11.819 -25.2441,-2.595 -54.7953,3.472 -40.0039,4.535 38.3386,2.756 50.063,22.319 84.2913,28.681 34.2283,6.367 24.3346,-0.256 55.9134,4.804 30.8622,4.948 29.8465,13.842 59.7835,21.07 29.9291,7.221 60.0472,17.193 60.0472,17.193"
   class="fil3 str2"
   inkscape:connector-curvature="0"
   style="fill:none;stroke:#000000;stroke-width:3;stroke-linecap:round;stroke-linejoin:round" />
    </g>
    <g
   id="g3417">
     <path
   id="path3419"
   d="m 4865.53,11175.4 -291.661,19.689 290.449,19.677 0,0 c -52.2598,4.921 -38.8858,12.303 -61.9764,15.996 -23.0906,3.685 -25.5197,0 -58.3346,6.15 -32.815,6.153 -36.4567,18.457 -54.685,23.378 -18.2283,4.921 -26.7402,1.228 -51.0433,8.614 -24.3071,7.382 -49.3189,24.433 -35.2441,19.685 36.4567,-12.303 54.6929,1.228 88.7165,-6.153 34.0276,-7.386 22.3819,-9.67 53.4685,-17.233 30.3819,-7.378 32.815,1.233 63.1969,-3.693 30.3819,-4.913 61.9764,-7.378 61.9764,-7.378 l -4.8622,-78.732 z"
   class="fil2"
   inkscape:connector-curvature="0"
   style="fill:#f4c600" />
     <path
   id="path3421"
   d="m 4865.53,11175.4 -291.661,19.689 290.449,19.677"
   class="fil3 str2"
   inkscape:connector-curvature="0"
   style="fill:none;stroke:#000000;stroke-width:3;stroke-linecap:round;stroke-linejoin:round" />
     <path
   id="path3423"
   d="m 4864.32,11214.8 c -52.2598,4.921 -38.8858,12.303 -61.9764,15.996 -23.0906,3.685 -25.5197,0 -58.3346,6.15 -32.815,6.153 -36.4567,18.456 -54.685,23.378 -18.2283,4.921 -26.7402,1.228 -51.0433,8.614 -24.3071,7.382 -49.3189,24.433 -35.2441,19.685 36.4567,-12.303 54.6929,1.228 88.7165,-6.154 34.0276,-7.385 22.3819,-9.669 53.4685,-17.232 30.3819,-7.378 32.815,1.232 63.1969,-3.693 30.3819,-4.913 61.9764,-7.378 61.9764,-7.378"
   class="fil3 str2"
   inkscape:connector-curvature="0"
   style="fill:none;stroke:#000000;stroke-width:3;stroke-linecap:round;stroke-linejoin:round" />
    </g>
    <g
   id="g3425">
     <path
   id="path3427"
   d="m 4872.94,11251.9 -262.016,131.193 275.772,-94.354 0,0 c -46.4134,24.803 -31.2717,26.441 -51.2126,38.791 -19.937,12.358 -23.5709,9.894 -51.5591,28.291 -27.9961,18.394 -26.7126,31.173 -41.689,42.784 -14.9803,11.606 -24.2362,11.496 -43.8976,27.728 -19.6693,16.24 -36.3268,41.685 -25.122,31.847 29.0276,-25.497 50.9882,-20.06 79.6339,-40.06 28.6457,-20.003 17.0276,-17.606 42.8898,-36.629 25.2795,-18.595 30.7795,-11.583 56.9921,-27.898 26.2047,-16.315 54.4646,-30.835 54.4646,-30.835 l -34.2559,-70.858 z"
   class="fil2"
   inkscape:connector-curvature="0"
   style="fill:#f4c600" />
     <path
   id="path3429"
   d="m 4872.94,11251.9 -262.016,131.193 275.772,-94.354"
   class="fil3 str2"
   inkscape:connector-curvature="0"
   style="fill:none;stroke:#000000;stroke-width:3;stroke-linecap:round;stroke-linejoin:round" />
     <path
   id="path3431"
   d="m 4886.7,11288.7 c -46.4134,24.803 -31.2717,26.441 -51.2126,38.791 -19.937,12.359 -23.5709,9.894 -51.5591,28.292 -27.9961,18.393 -26.7126,31.173 -41.689,42.783 -14.9803,11.606 -24.2362,11.496 -43.8976,27.728 -19.6693,16.241 -36.3268,41.685 -25.122,31.847 29.0276,-25.496 50.9882,-20.059 79.6339,-40.059 28.6457,-20.004 17.0276,-17.606 42.8898,-36.63 25.2795,-18.595 30.7795,-11.583 56.9921,-27.898 26.2047,-16.315 54.4646,-30.834 54.4646,-30.834"
   class="fil3 str2"
   inkscape:connector-curvature="0"
   style="fill:none;stroke:#000000;stroke-width:3;stroke-linecap:round;stroke-linejoin:round" />
    </g>
    <g
   id="g3433">
     <path
   id="path3435"
   d="m 4908.69,11319.6 -192.476,222.717 219.118,-194.008 0,0 c -33.5118,40.886 -18.8976,36.539 -32.6496,55.673 -13.752,19.142 -18.0512,18.276 -36.9488,46.114 -18.9094,27.843 -12.8898,39.146 -22.3386,55.674 -9.4567,16.531 -18.0433,20.011 -30.0787,42.629 -12.0276,22.622 -17.8031,52.587 -11.1654,39.15 17.185,-34.803 39.5236,-38.279 58.4291,-67.858 18.9016,-29.575 9.0748,-22.862 25.7795,-50.461 16.3228,-26.964 24.0591,-22.618 42.1024,-47.85 18.0433,-25.228 38.6654,-49.583 38.6654,-49.583 l -58.437,-52.197 z"
   class="fil2"
   inkscape:connector-curvature="0"
   style="fill:#f4c600" />
     <path
   id="path3437"
   d="m 4908.69,11319.6 -192.476,222.717 219.118,-194.008"
   class="fil3 str2"
   inkscape:connector-curvature="0"
   style="fill:none;stroke:#000000;stroke-width:3;stroke-linecap:round;stroke-linejoin:round" />
     <path
   id="path3439"
   d="m 4935.33,11348.4 c -33.5118,40.886 -18.8976,36.539 -32.6496,55.673 -13.752,19.142 -18.0512,18.276 -36.9488,46.114 -18.9094,27.843 -12.8898,39.146 -22.3386,55.674 -9.4567,16.531 -18.0433,20.011 -30.0787,42.629 -12.0276,22.622 -17.8031,52.587 -11.1654,39.15 17.185,-34.803 39.5236,-38.279 58.4291,-67.858 18.9016,-29.575 9.0748,-22.862 25.7795,-50.461 16.3228,-26.964 24.0591,-22.618 42.1024,-47.85 18.0433,-25.229 38.6654,-49.583 38.6654,-49.583"
   class="fil3 str2"
   inkscape:connector-curvature="0"
   style="fill:none;stroke:#000000;stroke-width:3;stroke-linecap:round;stroke-linejoin:round" />
    </g>
    <g
   id="g3441">
     <path
   id="path3443"
   d="m 4967.33,11368.4 -93.6299,280.335 129.094,-264.13 0,0 c -15.5,50.76 -3.6496,41.079 -9.1142,64.091 -5.4724,23.007 -9.7677,23.866 -16.7126,56.909 -6.933,33.047 2.8937,41.161 0.4095,60.094 -2.4803,18.934 -9.1063,25.481 -11.6732,51.04 -2.5551,25.555 3.437,55.472 4.4882,40.496 2.7204,-38.811 22.0394,-50.681 28.3307,-85.335 6.2795,-34.649 -0.2638,-24.637 4.7362,-56.602 4.8897,-31.244 13.6772,-30.217 20.8071,-60.524 7.1417,-30.295 16.9803,-60.791 16.9803,-60.791 l -73.7165,-25.583 z"
   class="fil2"
   inkscape:connector-curvature="0"
   style="fill:#f4c600" />
     <path
   id="path3445"
   d="m 4967.33,11368.4 -93.6299,280.335 129.094,-264.13"
   class="fil3 str2"
   inkscape:connector-curvature="0"
   style="fill:none;stroke:#000000;stroke-width:3;stroke-linecap:round;stroke-linejoin:round" />
     <path
   id="path3447"
   d="m 5002.8,11384.6 c -15.5,50.76 -3.6496,41.079 -9.1142,64.091 -5.4724,23.008 -9.7677,23.866 -16.7126,56.909 -6.933,33.047 2.8937,41.161 0.4095,60.094 -2.4803,18.934 -9.1063,25.481 -11.6732,51.04 -2.5551,25.555 3.437,55.472 4.4882,40.496 2.7204,-38.811 22.0394,-50.681 28.3307,-85.335 6.2795,-34.649 -0.2638,-24.637 4.7362,-56.602 4.8897,-31.244 13.6772,-30.217 20.8071,-60.524 7.1417,-30.295 16.9803,-60.791 16.9803,-60.791"
   class="fil3 str2"
   inkscape:connector-curvature="0"
   style="fill:none;stroke:#000000;stroke-width:3;stroke-linecap:round;stroke-linejoin:round" />
    </g>
    <g
   id="g3449">
     <path
   id="path3451"
   d="m 5039.94,11390.7 19.4646,295.264 19.4213,-294.035 0,0 c 4.8622,52.898 12.1496,39.366 15.7992,62.744 3.6496,23.378 0,25.835 6.0827,59.055 6.0787,33.217 18.2283,36.91 23.0906,55.355 4.8622,18.46 1.2165,27.07 8.5118,51.677 7.2992,24.602 24.1417,49.925 19.4488,35.669 -12.1575,-36.906 1.2087,-55.354 -6.0827,-89.803 -7.2953,-34.449 -9.559,-22.661 -17.0197,-54.134 -7.2913,-30.756 1.2126,-33.22 -3.6496,-63.969 -4.8622,-30.763 -7.2953,-62.752 -7.2953,-62.752 l -77.7717,4.93 z"
   class="fil2"
   inkscape:connector-curvature="0"
   style="fill:#f4c600" />
     <path
   id="path3453"
   d="m 5039.94,11390.7 19.4646,295.264 19.4213,-294.035"
   class="fil3 str2"
   inkscape:connector-curvature="0"
   style="fill:none;stroke:#000000;stroke-width:3;stroke-linecap:round;stroke-linejoin:round" />
     <path
   id="path3455"
   d="m 5078.82,11391.9 c 4.8622,52.898 12.1496,39.366 15.7992,62.744 3.6496,23.378 0,25.835 6.0827,59.055 6.0787,33.217 18.2283,36.91 23.0906,55.355 4.8622,18.46 1.2165,27.07 8.5118,51.677 7.2992,24.602 24.1417,49.925 19.4488,35.669 -12.1575,-36.906 1.2087,-55.354 -6.0827,-89.803 -7.2953,-34.449 -9.559,-22.662 -17.0197,-54.134 -7.2913,-30.756 1.2126,-33.22 -3.6496,-63.969 -4.8622,-30.763 -7.2953,-62.752 -7.2953,-62.752"
   class="fil3 str2"
   inkscape:connector-curvature="0"
   style="fill:none;stroke:#000000;stroke-width:3;stroke-linecap:round;stroke-linejoin:round" />
    </g>
    <g
   id="g3457">
     <path
   id="path3459"
   d="m 5115.45,11383.2 129.598,265.248 -93.2087,-279.181 0,0 c 24.4961,46.988 26.1142,31.665 38.3228,51.846 12.2087,20.178 9.7677,23.863 27.9409,52.197 18.1732,28.343 30.7913,27.036 42.2638,42.205 11.4685,15.166 11.3504,24.532 27.3898,44.441 16.0433,19.906 41.1772,36.772 31.4528,25.425 -25.1811,-29.39 -19.8071,-51.614 -39.563,-80.618 -19.7677,-29 -17.4016,-17.232 -36.185,-43.413 -18.3701,-25.591 -11.437,-31.162 -27.563,-57.697 -16.1142,-26.528 -30.4528,-55.138 -30.4528,-55.138 l -69.9961,34.685 z"
   class="fil2"
   inkscape:connector-curvature="0"
   style="fill:#f4c600" />
     <path
   id="path3461"
   d="m 5115.45,11383.2 129.598,265.248 -93.2087,-279.181"
   class="fil3 str2"
   inkscape:connector-curvature="0"
   style="fill:none;stroke:#000000;stroke-width:3;stroke-linecap:round;stroke-linejoin:round" />
     <path
   id="path3463"
   d="m 5151.84,11369.3 c 24.4961,46.988 26.1142,31.665 38.3228,51.846 12.2087,20.178 9.7677,23.863 27.9409,52.197 18.1732,28.343 30.7913,27.036 42.2638,42.205 11.4685,15.165 11.3504,24.532 27.3898,44.441 16.0433,19.906 41.1772,36.772 31.4528,25.425 -25.1811,-29.39 -19.8071,-51.614 -39.563,-80.618 -19.7677,-29 -17.4016,-17.232 -36.185,-43.413 -18.3701,-25.591 -11.437,-31.162 -27.563,-57.697 -16.1142,-26.528 -30.4528,-55.138 -30.4528,-55.138"
   class="fil3 str2"
   inkscape:connector-curvature="0"
   style="fill:none;stroke:#000000;stroke-width:3;stroke-linecap:round;stroke-linejoin:round" />
    </g>
    <g
   id="g3465">
     <path
   id="path3467"
   d="m 5182.39,11347 220.004,194.85 -191.646,-221.823 0,0 c 40.3858,33.921 36.0866,19.142 54.9921,33.055 18.9094,13.921 18.0512,18.268 45.5433,37.402 27.5,19.141 38.6732,13.043 55.0039,22.618 16.3268,9.567 19.7638,18.267 42.1063,30.445 22.3425,12.169 51.9409,18.015 38.6732,11.303 -34.374,-17.394 -37.815,-40.012 -67.0315,-59.146 -29.2205,-19.142 -22.5906,-9.185 -49.8425,-26.098 -26.6457,-16.524 -22.3425,-24.355 -47.2677,-42.622 -24.9213,-18.268 -48.9843,-39.142 -48.9843,-39.142 l -51.5512,59.157 z"
   class="fil2"
   inkscape:connector-curvature="0"
   style="fill:#f4c600" />
     <path
   id="path3469"
   d="m 5182.39,11347 220.004,194.85 -191.646,-221.823"
   class="fil3 str2"
   inkscape:connector-curvature="0"
   style="fill:none;stroke:#000000;stroke-width:3;stroke-linecap:round;stroke-linejoin:round" />
     <path
   id="path3471"
   d="m 5210.74,11320.1 c 40.3858,33.921 36.0866,19.142 54.9921,33.055 18.9094,13.921 18.0512,18.268 45.5433,37.402 27.5,19.141 38.6732,13.043 55.0039,22.618 16.3268,9.567 19.7638,18.267 42.1063,30.445 22.3425,12.169 51.9409,18.015 38.6732,11.303 -34.374,-17.394 -37.815,-40.012 -67.0315,-59.146 -29.2205,-19.142 -22.5906,-9.185 -49.8425,-26.098 -26.6457,-16.524 -22.3425,-24.355 -47.2677,-42.622 -24.9213,-18.268 -48.9843,-39.142 -48.9843,-39.142"
   class="fil3 str2"
   inkscape:connector-curvature="0"
   style="fill:none;stroke:#000000;stroke-width:3;stroke-linecap:round;stroke-linejoin:round" />
    </g>
    <g
   id="g3473">
     <path
   id="path3475"
   d="m 5230.54,11287.7 276.902,94.784 -260.906,-130.685 0,0 c 50.1417,15.689 40.5787,3.692 63.3071,9.224 22.7283,5.535 23.5787,9.89 56.2244,16.913 32.6339,7.028 40.6535,-2.929 59.3543,-0.417 18.7008,2.516 25.1693,9.22 50.4134,11.811 25.2441,2.598 54.7953,-3.472 39.9961,-4.532 -38.3307,-2.759 -50.0591,-22.322 -84.2874,-28.677 -34.2283,-6.366 -24.3386,0.264 -55.9094,-4.803 -30.8622,-4.945 -29.8465,-13.842 -59.7835,-21.063 -29.9291,-7.22 -60.0472,-17.185 -60.0472,-17.185 l -25.2638,74.63 z"
   class="fil2"
   inkscape:connector-curvature="0"
   style="fill:#f4c600" />
     <path
   id="path3477"
   d="m 5230.54,11287.7 276.902,94.784 -260.906,-130.685"
   class="fil3 str2"
   inkscape:connector-curvature="0"
   style="fill:none;stroke:#000000;stroke-width:3;stroke-linecap:round;stroke-linejoin:round" />
     <path
   id="path3479"
   d="m 5246.54,11251.8 c 50.1417,15.689 40.5787,3.693 63.3071,9.224 22.7283,5.536 23.5787,9.89 56.2244,16.914 32.6339,7.027 40.6535,-2.929 59.3543,-0.418 18.7008,2.516 25.1693,9.221 50.4134,11.811 25.2441,2.599 54.7953,-3.472 39.9961,-4.531 -38.3307,-2.76 -50.0591,-22.323 -84.2874,-28.677 -34.2283,-6.366 -24.3386,0.264 -55.9094,-4.803 -30.8622,-4.945 -29.8465,-13.843 -59.7835,-21.063 -29.9291,-7.221 -60.0472,-17.185 -60.0472,-17.185"
   class="fil3 str2"
   inkscape:connector-curvature="0"
   style="fill:none;stroke:#000000;stroke-width:3;stroke-linecap:round;stroke-linejoin:round" />
    </g>
    <g
   id="g3481">
     <path
   id="path3483"
   d="m 5252.59,11214.2 291.657,-19.716 -290.453,-19.642 0,0 c 52.2598,-4.929 38.8937,-12.311 61.9843,-16.004 23.0827,-3.693 25.5197,0 58.3268,-6.158 32.8071,-6.161 36.4567,-18.46 54.685,-23.385 18.2283,-4.922 26.7323,-1.229 51.0394,-8.615 24.3031,-7.381 49.315,-24.44 35.2402,-19.689 -36.4567,12.308 -54.689,-1.224 -88.7126,6.166 -34.0315,7.378 -22.3858,9.669 -53.4646,17.232 -30.3819,7.378 -32.815,-1.232 -63.1969,3.693 -30.3819,4.921 -61.9764,7.386 -61.9764,7.386 l 4.8701,78.732 z"
   class="fil2"
   inkscape:connector-curvature="0"
   style="fill:#f4c600" />
     <path
   id="path3485"
   d="m 5252.59,11214.2 291.657,-19.716 -290.453,-19.642"
   class="fil3 str2"
   inkscape:connector-curvature="0"
   style="fill:none;stroke:#000000;stroke-width:3;stroke-linecap:round;stroke-linejoin:round" />
     <path
   id="path3487"
   d="m 5253.8,11174.8 c 52.2598,-4.929 38.8937,-12.311 61.9843,-16.004 23.0827,-3.693 25.5197,0 58.3268,-6.157 32.8071,-6.162 36.4567,-18.461 54.685,-23.386 18.2283,-4.921 26.7323,-1.229 51.0394,-8.614 24.3031,-7.382 49.315,-24.441 35.2402,-19.689 -36.4567,12.307 -54.689,-1.225 -88.7126,6.165 -34.0315,7.378 -22.3858,9.669 -53.4646,17.232 -30.3819,7.378 -32.815,-1.232 -63.1969,3.693 -30.3819,4.921 -61.9764,7.386 -61.9764,7.386"
   class="fil3 str2"
   inkscape:connector-curvature="0"
   style="fill:none;stroke:#000000;stroke-width:3;stroke-linecap:round;stroke-linejoin:round" />
    </g>
    <g
   id="g3489">
     <path
   id="path3491"
   d="m 5245.17,11137.7 262.004,-131.205 -275.76,94.366 0,0 c 46.4055,-24.799 31.2717,-26.437 51.2087,-38.795 19.937,-12.351 23.5748,-9.886 51.563,-28.284 27.9882,-18.401 26.7008,-31.173 41.6772,-42.791 14.9843,-11.606 24.2362,-11.496 43.8976,-27.736 19.6614,-16.232 36.3268,-41.677 25.1142,-31.839 -29.0315,25.492 -50.9803,20.059 -79.6299,40.059 -28.6457,20.012 -17.0197,17.615 -42.8819,36.638 -25.2795,18.595 -30.7795,11.579 -56.9882,27.898 -26.1969,16.315 -54.4606,30.838 -54.4606,30.838 l 34.2559,70.851 z"
   class="fil2"
   inkscape:connector-curvature="0"
   style="fill:#f4c600" />
     <path
   id="path3493"
   d="m 5245.17,11137.7 262.004,-131.205 -275.76,94.366"
   class="fil3 str2"
   inkscape:connector-curvature="0"
   style="fill:none;stroke:#000000;stroke-width:3;stroke-linecap:round;stroke-linejoin:round" />
     <path
   id="path3495"
   d="m 5231.41,11100.9 c 46.4055,-24.799 31.2717,-26.437 51.2087,-38.795 19.937,-12.351 23.5748,-9.886 51.563,-28.284 27.9882,-18.401 26.7008,-31.173 41.6772,-42.791 14.9843,-11.606 24.2362,-11.496 43.8976,-27.736 19.6614,-16.233 36.3268,-41.677 25.1142,-31.839 -29.0315,25.492 -50.9803,20.059 -79.6299,40.059 -28.6457,20.012 -17.0197,17.614 -42.8819,36.638 -25.2795,18.595 -30.7795,11.579 -56.9882,27.898 -26.1969,16.315 -54.4606,30.838 -54.4606,30.838"
   class="fil3 str2"
   inkscape:connector-curvature="0"
   style="fill:none;stroke:#000000;stroke-width:3;stroke-linecap:round;stroke-linejoin:round" />
    </g>
    <g
   id="g3497">
     <path
   id="path3499"
   d="m 5209.43,11069.9 192.457,-222.724 -219.098,194.02 0,0 c 33.5079,-40.89 18.8976,-36.535 32.6417,-55.677 13.7441,-19.142 18.0433,-18.272 36.9449,-46.114 18.9016,-27.839 12.8858,-39.15 22.3386,-55.681 9.4488,-16.524 18.0433,-20.008 30.0709,-42.627 12.0197,-22.621 17.7953,-52.578 11.1654,-39.145 -17.189,34.799 -39.5236,38.275 -58.4252,67.858 -18.9016,29.583 -9.0709,22.862 -25.7717,50.461 -16.3268,26.964 -24.0591,22.622 -42.1024,47.85 -18.0433,25.228 -38.6654,49.591 -38.6654,49.591 l 58.4449,52.189 z"
   class="fil2"
   inkscape:connector-curvature="0"
   style="fill:#f4c600" />
     <path
   id="path3501"
   d="m 5209.43,11069.9 192.457,-222.724 -219.098,194.02"
   class="fil3 str2"
   inkscape:connector-curvature="0"
   style="fill:none;stroke:#000000;stroke-width:3;stroke-linecap:round;stroke-linejoin:round" />
     <path
   id="path3503"
   d="m 5182.78,11041.2 c 33.5079,-40.89 18.8976,-36.535 32.6417,-55.677 13.7441,-19.142 18.0433,-18.272 36.9449,-46.114 18.9016,-27.839 12.8858,-39.15 22.3386,-55.681 9.4488,-16.524 18.0433,-20.008 30.0709,-42.626 12.0197,-22.622 17.7953,-52.579 11.1654,-39.146 -17.189,34.799 -39.5236,38.275 -58.4252,67.858 -18.9016,29.583 -9.0709,22.862 -25.7717,50.461 -16.3268,26.964 -24.0591,22.622 -42.1024,47.85 -18.0433,25.228 -38.6654,49.591 -38.6654,49.591"
   class="fil3 str2"
   inkscape:connector-curvature="0"
   style="fill:none;stroke:#000000;stroke-width:3;stroke-linecap:round;stroke-linejoin:round" />
    </g>
    <g
   id="g3505">
     <path
   id="path3507"
   d="m 5150.78,11021.2 93.6102,-280.335 -129.071,264.138 0,0 c 15.4961,-50.76 3.6457,-41.079 9.1142,-64.087 5.4645,-23.011 9.7637,-23.87 16.7047,-56.913 6.933,-33.047 -2.9016,-41.161 -0.4174,-60.094 2.4804,-18.934 9.1063,-25.481 11.6654,-51.036 2.563,-25.559 -3.4291,-55.476 -4.4803,-40.492 -2.7204,38.803 -22.0472,50.677 -28.3228,85.327 -6.2834,34.653 0.2599,24.642 -4.7401,56.606 -4.8819,31.24 -13.6732,30.221 -20.8071,60.52 -7.1299,30.299 -16.9646,60.791 -16.9646,60.791 l 73.7087,25.575 z"
   class="fil2"
   inkscape:connector-curvature="0"
   style="fill:#f4c600" />
     <path
   id="path3509"
   d="m 5150.78,11021.2 93.6102,-280.335 -129.071,264.138"
   class="fil3 str2"
   inkscape:connector-curvature="0"
   style="fill:none;stroke:#000000;stroke-width:3;stroke-linecap:round;stroke-linejoin:round" />
     <path
   id="path3511"
   d="m 5115.31,11005 c 15.4961,-50.76 3.6457,-41.079 9.1142,-64.087 5.4645,-23.011 9.7638,-23.87 16.7047,-56.913 6.933,-33.047 -2.9016,-41.161 -0.4174,-60.094 2.4804,-18.934 9.1063,-25.481 11.6654,-51.036 2.563,-25.559 -3.4291,-55.476 -4.4803,-40.492 -2.7204,38.803 -22.0472,50.677 -28.3228,85.327 -6.2834,34.653 0.2599,24.642 -4.7401,56.606 -4.8819,31.24 -13.6732,30.221 -20.8071,60.52 -7.1299,30.299 -16.9646,60.791 -16.9646,60.791"
   class="fil3 str2"
   inkscape:connector-curvature="0"
   style="fill:none;stroke:#000000;stroke-width:3;stroke-linecap:round;stroke-linejoin:round" />
    </g>
   </g>
   <path
   id="path3513"
   d="m 5059.06,11393.6 c 108.441,0 196.35,-89 196.35,-198.787 0,-109.78 -87.9094,-198.78 -196.35,-198.78 -108.445,0 -196.358,89 -196.358,198.78 0,109.787 87.9134,198.787 196.358,198.787 l 0,0 0,0 z"
   class="fil2 str3"
   inkscape:connector-curvature="0"
   style="fill:#f4c600;stroke:#000000;stroke-width:3;stroke-linejoin:round" />
   <path
   id="path3515"
   d="m 5023.62,11274.5 c 9.7913,-5.346 25.6299,-8.394 32.4173,0.378 6.7756,-8.772 22.5984,-5.724 32.3976,-0.378 9.7992,5.339 23.3583,1.528 30.5236,6.102 -4.1496,-1.149 -20.7244,8.012 -32.4094,3.815 -11.6732,-4.2 -10.5472,3.052 -30.5118,3.052 -19.9843,0 -18.8465,-7.252 -30.5236,-3.052 -11.685,4.197 -28.2677,-4.964 -32.4173,-3.815 7.1575,-4.574 20.7323,-0.763 30.5236,-6.102 l 0,0 0,0 z"
   class="fil2 str4"
   inkscape:connector-curvature="0"
   style="fill:#f4c600;stroke:#000000;stroke-width:3.4684999" />
   <path
   id="path3517"
   d="m 5056.04,11303.5 c 9.6024,0 18.2638,-1.528 25.6063,-4.39 3.4803,-1.354 5.8465,-6.102 6.0354,-1.334 0.1929,4.763 -7.9134,16.019 -31.6417,16.019 -23.748,0 -31.8465,-11.256 -31.6614,-16.019 0.189,-4.768 2.563,-0.02 6.0276,1.334 7.3504,2.862 16.0118,4.39 25.6339,4.39 l 0,0 0,0 z"
   class="fil2 str4"
   inkscape:connector-curvature="0"
   style="fill:#f4c600;stroke:#000000;stroke-width:3.4684999" />
   <path
   id="path3519"
   d="m 5056.04,11244.6 c 4.8622,0 9.2992,-3.244 11.3583,-5.535 2.563,-2.859 7.1102,-2.54 12.5472,-2.288 6.063,0.292 8.5827,-2.661 9.6378,-6.106 1.5079,-4.957 1.7205,-12.595 -6.2835,-16.599 4.7599,2.39 6.063,10.685 3.6851,15.835 -1.689,3.646 -6.7166,4.008 -10.6024,3.634 -3.9016,-0.39 -9.9646,1.531 -12.4488,4.185 -2.0591,2.201 -4.4449,3.248 -7.8937,3.248 -3.4685,0 -5.8583,-1.047 -7.9055,-3.248 -2.4922,-2.654 -8.5551,-4.575 -12.4488,-4.185 -3.8937,0.374 -8.9213,0.01 -10.6102,-3.634 -2.378,-5.15 -1.0827,-13.445 3.685,-15.835 -8.0118,4.004 -7.7992,11.642 -6.2756,16.599 1.0433,3.445 3.567,6.398 9.6299,6.106 5.4449,-0.252 9.9843,-0.571 12.5551,2.288 2.0512,2.291 6.4961,5.535 11.3701,5.535 l 0,0 0,0 z"
   class="fil2 str4"
   inkscape:connector-curvature="0"
   style="fill:#f4c600;stroke:#000000;stroke-width:3.4684999" />
   <path
   id="path3521"
   d="m 4939.41,11148.1 c 16.0591,-8.673 31.6496,-14.122 57.2756,-12.587 25.622,1.528 37.685,7.622 43.3386,11.06 5.6496,3.437 3.7638,4.574 -1.8858,4.574 -5.6536,0 -22.9882,-3.429 -36.5551,-7.248 -13.563,-3.811 -38.5394,-4.181 -60.4803,5.347 -1.3229,0.571 -4.5276,0.382 -1.6929,-1.146 l 0,0 0,0 z"
   class="fil2 str4"
   inkscape:connector-curvature="0"
   style="fill:#f4c600;stroke:#000000;stroke-width:3.4684999" />
   <path
   id="path3523"
   d="m 5020.23,11149.3 c -2.815,11.449 -15.8189,24.224 -28.252,24.224 -19.0394,0 -34.8543,-12.775 -35.2362,-28.614 2.2638,14.882 16.0197,25.177 35.0433,25.177 12.4409,0 23.9291,-9.157 28.4449,-20.787 l 0,0 0,0 z"
   class="fil2 str4"
   inkscape:connector-curvature="0"
   style="fill:#f4c600;stroke:#000000;stroke-width:3.4684999" />
   <path
   id="path3525"
   d="m 4975.96,11149.5 c 1.3189,7.429 7.7244,13.732 17.3307,13.732 6.7756,0 17.7165,-1.909 21.6732,-16.598 -5.4685,-3.811 -22.2362,-5.721 -26.9449,-5.528 4.1496,7.626 -2.4488,12.402 -12.0591,8.394 l 0,0 0,0 z"
   class="fil2 str4"
   inkscape:connector-curvature="0"
   style="fill:#f4c600;stroke:#000000;stroke-width:3.4684999" />
   <path
   id="path3527"
   d="m 5043.79,11118 c -26.374,-15.264 -63.6063,-20.543 -89.689,-15.264 -7.5315,1.532 -14.8543,4.067 -7.9134,9.532 5.0945,4.004 8.2913,1.437 17.7126,0 22.6063,-3.426 55.1181,-0.528 68.9646,8.401 4.1496,2.673 6.9685,3.811 10.9252,3.811 3.9567,0 7.9134,-1.901 0,-6.48 l 0,0 0,0 z"
   class="fil2 str4"
   inkscape:connector-curvature="0"
   style="fill:#f4c600;stroke:#000000;stroke-width:3.4684999" />
   <path
   id="path3529"
   d="m 5174.15,11148.1 c -16.0591,-8.673 -31.6496,-14.122 -57.2756,-12.587 -25.622,1.528 -37.685,7.622 -43.3307,11.06 -5.6496,3.437 -3.7638,4.574 1.8858,4.574 5.6457,0 22.9803,-3.429 36.5472,-7.248 13.5669,-3.811 38.5276,-4.181 60.4724,5.347 1.3189,0.571 4.5355,0.382 1.7008,-1.146 l 0,0 0,0 z"
   class="fil2 str4"
   inkscape:connector-curvature="0"
   style="fill:#f4c600;stroke:#000000;stroke-width:3.4684999" />
   <path
   id="path3531"
   d="m 5093.32,11149.3 c 2.8346,11.449 15.8346,24.224 28.2677,24.224 19.0315,0 34.8543,-12.775 35.2402,-28.614 -2.2716,14.882 -16.0236,25.177 -35.0472,25.177 -12.4409,0 -23.9409,-9.157 -28.4606,-20.787 l 0,0 0,0 z"
   class="fil2 str4"
   inkscape:connector-curvature="0"
   style="fill:#f4c600;stroke:#000000;stroke-width:3.4684999" />
   <path
   id="path3533"
   d="m 5111.98,11145.2 c 1.3228,7.445 7.7205,13.732 17.3307,13.732 6.7874,0 21.0945,-3.24 23.9252,-20.409 -5.4567,-3.811 -23.9252,-2.87 -29.2008,-1.717 4.1496,7.63 -2.4488,12.402 -12.0551,8.394 l 0,0 0,0 z"
   class="fil2 str4"
   inkscape:connector-curvature="0"
   style="fill:#f4c600;stroke:#000000;stroke-width:3.4684999" />
   <path
   id="path3535"
   d="m 5069.78,11118 c 26.3701,-15.264 63.6024,-20.543 89.6811,-15.264 7.5315,1.532 14.8543,4.067 7.9016,9.532 -5.0827,4.004 -8.2796,1.437 -17.7008,0 -22.6181,-3.426 -55.1181,-0.528 -68.9646,8.401 -4.1418,2.673 -6.9607,3.811 -10.9173,3.811 -3.9567,0 -7.9134,-1.901 0,-6.48 l 0,0 0,0 z"
   class="fil2 str4"
   inkscape:connector-curvature="0"
   style="fill:#f4c600;stroke:#000000;stroke-width:3.4684999" />
  </g>
</svg>