<?xml version="1.0" encoding="UTF-8" standalone="no"?>
<svg
   xmlns:dc="http://purl.org/dc/elements/1.1/"
   xmlns:cc="http://creativecommons.org/ns#"
   xmlns:rdf="http://www.w3.org/1999/02/22-rdf-syntax-ns#"
   xmlns:svg="http://www.w3.org/2000/svg"
   xmlns="http://www.w3.org/2000/svg"
   xmlns:xlink="http://www.w3.org/1999/xlink"
   xmlns:sodipodi="http://sodipodi.sourceforge.net/DTD/sodipodi-0.dtd"
   xmlns:inkscape="http://www.inkscape.org/namespaces/inkscape"
   width="1500"
   height="900"
   viewBox="0 0 35437.5 21262.5"
   id="svg4653"
   version="1.1"
   inkscape:version="0.48.1 "
   sodipodi:docname="aus--.svg">
  <metadata
     id="metadata4674">
    <rdf:RDF>
      <cc:Work
         rdf:about="">
        <dc:format>image/svg+xml</dc:format>
        <dc:type
           rdf:resource="http://purl.org/dc/dcmitype/StillImage" />
        <dc:title />
      </cc:Work>
    </rdf:RDF>
  </metadata>
  <sodipodi:namedview
     pagecolor="#ffffff"
     bordercolor="#666666"
     borderopacity="1"
     objecttolerance="10"
     gridtolerance="10"
     guidetolerance="10"
     inkscape:pageopacity="0"
     inkscape:pageshadow="2"
     inkscape:window-width="1680"
     inkscape:window-height="988"
     id="namedview4672"
     showgrid="true"
     inkscape:zoom="0.62775369"
     inkscape:cx="722.12282"
     inkscape:cy="450"
     inkscape:window-x="-8"
     inkscape:window-y="-8"
     inkscape:window-maximized="1"
     inkscape:current-layer="svg4653">
    <inkscape:grid
       type="xygrid"
       id="grid4676"
       empspacing="5"
       visible="true"
       enabled="true"
       snapvisiblegridlinesonly="false"
       spacingx="2px"
       spacingy="2px" />
  </sodipodi:namedview>
  <defs
     id="defs6">
    <polygon
       points="8.7743512,2.0026884 3.1273259,2.4939592 3.9049537,8.1087198 0,4 -3.9049537,8.1087198 -3.1273259,2.4939592 -8.7743512,2.0026884 -3.8997116,-0.89008374 -7.0364833,-5.6114082 -1.735535,-3.6038755 0,-9 0,-9 1.735535,-3.6038755 7.0364833,-5.6114082 3.8997116,-0.89008374 "
       id="Star7" />
    <polygon
       points="5.2900673,7.2811529 0,4 -5.2900673,7.2811529 -3.8042261,1.236068 -8.5595086,-2.7811529 -2.351141,-3.236068 0,-9 0,-9 2.351141,-3.236068 8.5595086,-2.7811529 3.8042261,1.236068 "
       id="Star5" />
  </defs>
  <g
     id="g3589">
    <path
       inkscape:connector-curvature="0"
       id="path4658"
       style="fill:#00008b"
       d="m 0,0 35437.5,0 0,21262.5 L 0,21262.5 0,0 z" />
    <polygon
       transform="matrix(354.76875,0,0,354.375,8883,15946.875)"
       style="fill:#ffffff"
       points="3.9049537,8.1087198 0,4 -3.9049537,8.1087198 -3.1273259,2.4939592 -8.7743512,2.0026884 -3.8997116,-0.89008374 -7.0364833,-5.6114082 -1.735535,-3.6038755 0,-9 0,-9 1.735535,-3.6038755 7.0364833,-5.6114082 3.8997116,-0.89008374 8.7743512,2.0026884 3.1273259,2.4939592 "
       id="Commonwealth_Star" />
    <polygon
       transform="matrix(168.9375,0,0,168.75,26850.141,17718.75)"
       style="fill:#ffffff"
       points="3.9049537,8.1087198 0,4 -3.9049537,8.1087198 -3.1273259,2.4939592 -8.7743512,2.0026884 -3.8997116,-0.89008374 -7.0364833,-5.6114082 -1.735535,-3.6038755 0,-9 0,-9 1.735535,-3.6038755 7.0364833,-5.6114082 3.8997116,-0.89008374 8.7743512,2.0026884 3.1273259,2.4939592 "
       id="Star_Alpha_Crucis" />
    <polygon
       transform="matrix(168.9375,0,0,168.75,21528.609,9302.3438)"
       style="fill:#ffffff"
       points="3.9049537,8.1087198 0,4 -3.9049537,8.1087198 -3.1273259,2.4939592 -8.7743512,2.0026884 -3.8997116,-0.89008374 -7.0364833,-5.6114082 -1.735535,-3.6038755 0,-9 0,-9 1.735535,-3.6038755 7.0364833,-5.6114082 3.8997116,-0.89008374 8.7743512,2.0026884 3.1273259,2.4939592 "
       id="Star_Beta_Crucis" />
    <use
       height="15120"
       width="30240"
       y="0"
       x="0"
       xlink:href="#Star7"
       style="fill:#ffffff"
       id="Star_Gamma_Crucis"
       transform="matrix(168.9375,0,0,168.75,26850.141,3543.75)" />
    <polygon
       transform="matrix(168.9375,0,0,168.75,31580.391,7884.8438)"
       style="fill:#ffffff"
       points="3.9049537,8.1087198 0,4 -3.9049537,8.1087198 -3.1273259,2.4939592 -8.7743512,2.0026884 -3.8997116,-0.89008374 -7.0364833,-5.6114082 -1.735535,-3.6038755 0,-9 0,-9 1.735535,-3.6038755 7.0364833,-5.6114082 3.8997116,-0.89008374 8.7743512,2.0026884 3.1273259,2.4939592 "
       id="Star_Delta_Crucis" />
    <polygon
       transform="matrix(98.546875,0,0,98.4375,28978.753,11517.188)"
       style="fill:#ffffff"
       points="-5.2900673,7.2811529 -3.8042261,1.236068 -8.5595086,-2.7811529 -2.351141,-3.236068 0,-9 0,-9 2.351141,-3.236068 8.5595086,-2.7811529 3.8042261,1.236068 5.2900673,7.2811529 0,4 "
       id="Star_Epsilon_Crucis" />
    <g
       transform="scale(0.83351831,1)"
       id="g4685">
      <path
         d="m 8869.2187,0 3547.6873,0 0,3543.75 8869.219,0 0,3543.75 -8869.219,0 0,3543.75 -3547.6873,0 0,-3543.75 L 0,7087.5 0,3543.75 l 8869.2187,0 0,-3543.75 z"
         id="White_Cross"
         style="fill:#ffffff"
         inkscape:connector-curvature="0" />
      <path
         d="m 0,0 2379.8612,0 18906.2638,9442.6393 0,1188.6107 -2379.86,0 L 0,1188.6098 0,0 z"
         id="White_Diagonal"
         style="fill:#ffffff"
         inkscape:connector-curvature="0" />
      <use
         transform="matrix(-1,0,0,1,21286.125,0)"
         id="White_Diagonal_Flipped"
         style="fill:#ffffff"
         xlink:href="#White_Diagonal"
         x="0"
         y="0"
         width="30240"
         height="15120" />
      <path
         d="m 9578.7562,0 2128.6128,0 0,4252.5 9578.756,0 0,2126.25 -9578.756,0 0,4252.5 -2128.6128,0 0,-4252.5 L 0,6378.75 0,4252.5 l 9578.7562,0 0,-4252.5 z"
         id="Red_Cross"
         style="fill:#ff0000"
         inkscape:connector-curvature="0" />
      <path
         d="m 0,0 7095.375,3543.75 -1586.5742,0 L 0,792.40657 0,0 z m 21286.125,0 -1586.574,0 -7095.375,3543.75 1586.574,0 L 21286.125,0 z"
         id="Red_Diagonals"
         style="fill:#ff0000"
         inkscape:connector-curvature="0" />
      <use
         transform="matrix(-1,0,0,-1,21286.125,10631.25)"
         id="Red_Diagonals_Rotated"
         style="fill:#ff0000"
         xlink:href="#Red_Diagonals"
         x="0"
         y="0"
         width="30240"
         height="15120" />
    </g>
    <polygon
       transform="matrix(168.9375,0,0,168.75,26850.141,3543.75)"
       style="fill:#ffffff"
       points="3.9049537,8.1087198 0,4 -3.9049537,8.1087198 -3.1273259,2.4939592 -8.7743512,2.0026884 -3.8997116,-0.89008374 -7.0364833,-5.6114082 -1.735535,-3.6038755 0,-9 0,-9 1.735535,-3.6038755 7.0364833,-5.6114082 3.8997116,-0.89008374 8.7743512,2.0026884 3.1273259,2.4939592 "
       id="use5587" />
  </g>
</svg>
