<?xml version="1.0" encoding="UTF-8" standalone="no"?>
<svg
   xmlns:dc="http://purl.org/dc/elements/1.1/"
   xmlns:cc="http://creativecommons.org/ns#"
   xmlns:rdf="http://www.w3.org/1999/02/22-rdf-syntax-ns#"
   xmlns:svg="http://www.w3.org/2000/svg"
   xmlns="http://www.w3.org/2000/svg"
   xmlns:sodipodi="http://sodipodi.sourceforge.net/DTD/sodipodi-0.dtd"
   xmlns:inkscape="http://www.inkscape.org/namespaces/inkscape"
   width="1500"
   height="900"
   viewBox="-72 -48 240 144"
   id="svg22736"
   version="1.1"
   inkscape:version="0.48.1 "
   sodipodi:docname="kor-s.svg">
  <metadata
     id="metadata22782">
    <rdf:RDF>
      <cc:Work
         rdf:about="">
        <dc:format>image/svg+xml</dc:format>
        <dc:type
           rdf:resource="http://purl.org/dc/dcmitype/StillImage" />
        <dc:title></dc:title>
      </cc:Work>
    </rdf:RDF>
  </metadata>
  <sodipodi:namedview
     pagecolor="#ffffff"
     bordercolor="#666666"
     borderopacity="1"
     objecttolerance="10"
     gridtolerance="10"
     guidetolerance="10"
     inkscape:pageopacity="0"
     inkscape:pageshadow="2"
     inkscape:window-width="1680"
     inkscape:window-height="988"
     id="namedview22780"
     showgrid="false"
     inkscape:zoom="0.62775369"
     inkscape:cx="566.80713"
     inkscape:cy="450"
     inkscape:window-x="-8"
     inkscape:window-y="-8"
     inkscape:window-maximized="1"
     inkscape:current-layer="svg22736" />
  <defs
     id="defs22738">
    <rect
       id="b1"
       width="24"
       height="4"
       x="-12"
       y="-2" />
    <g
       id="b2">
      <rect
         width="11"
         height="4"
         x="-12"
         y="-2"
         id="rect22742" />
      <rect
         width="11"
         height="4"
         x="1"
         y="-2"
         id="rect22744" />
    </g>
  </defs>
  <g
     id="g23660">
    <rect
       style="fill:#ffffff;stroke:#b3b3b3;stroke-width:0.25262713;stroke-miterlimit:4;stroke-dasharray:none"
       id="rect22746"
       height="143.74738"
       width="239.74738"
       y="-47.787045"
       x="-71.960327" />
    <g
       transform="matrix(0.83020118,1.2453049,-1.2453049,0.83020118,95.234947,-7.4610018)"
       id="use22750">
      <rect
         width="11"
         height="4"
         x="-12"
         y="-2"
         id="rect23656" />
      <rect
         width="11"
         height="4"
         x="1"
         y="-2"
         id="rect23658" />
    </g>
    <rect
       transform="matrix(0.55469923,0.83205094,-0.83205094,0.55469923,0,0)"
       id="use22752"
       width="35.920059"
       height="5.9866762"
       x="28.658791"
       y="-95.352295" />
    <g
       transform="matrix(0.83020118,1.2453049,-1.2453049,0.83020118,110.17861,-17.423416)"
       id="use22754">
      <rect
         width="11"
         height="4"
         x="-12"
         y="-2"
         id="rect23648" />
      <rect
         width="11"
         height="4"
         x="1"
         y="-2"
         id="rect23650" />
    </g>
    <rect
       transform="matrix(0.55469923,0.83205094,-0.83205094,0.55469923,0,0)"
       id="use22756"
       width="35.920059"
       height="5.9866762"
       x="28.658791"
       y="27.374573" />
    <g
       transform="matrix(0.83020118,1.2453049,-1.2453049,0.83020118,-6.8800546,60.615495)"
       id="use22758">
      <rect
         width="11"
         height="4"
         x="-12"
         y="-2"
         id="rect23640" />
      <rect
         width="11"
         height="4"
         x="1"
         y="-2"
         id="rect23642" />
    </g>
    <rect
       transform="matrix(0.55469923,0.83205094,-0.83205094,0.55469923,0,0)"
       id="use22760"
       width="35.920059"
       height="5.9866762"
       x="28.658789"
       y="45.334602" />
    <rect
       transform="matrix(0.55469923,-0.83205094,0.83205094,0.55469923,0,0)"
       id="use22764"
       width="35.920059"
       height="5.9866762"
       x="-11.423839"
       y="-6.6395631" />
    <rect
       transform="matrix(0.55469923,-0.83205094,0.83205094,0.55469923,0,0)"
       id="use22766"
       width="35.920059"
       height="5.9866762"
       x="-11.423838"
       y="-15.619577" />
    <rect
       transform="matrix(0.55469923,-0.83205094,0.83205094,0.55469923,0,0)"
       id="use22768"
       width="35.920059"
       height="5.9866762"
       x="-11.423839"
       y="-24.599592" />
    <g
       transform="matrix(0.83020118,-1.2453049,1.2453049,0.83020118,95.234947,55.634288)"
       id="use22770">
      <rect
         width="11"
         height="4"
         x="-12"
         y="-2"
         id="rect23458" />
      <rect
         width="11"
         height="4"
         x="1"
         y="-2"
         id="rect23460" />
    </g>
    <g
       transform="matrix(0.83020118,-1.2453049,1.2453049,0.83020118,102.70678,60.615495)"
       id="use22772">
      <rect
         width="11"
         height="4"
         x="-12"
         y="-2"
         id="rect23452" />
      <rect
         width="11"
         height="4"
         x="1"
         y="-2"
         id="rect23454" />
    </g>
    <g
       transform="matrix(0.83020118,-1.2453049,1.2453049,0.83020118,110.17861,65.596702)"
       id="use22774">
      <rect
         width="11"
         height="4"
         x="-12"
         y="-2"
         id="rect23446" />
      <rect
         width="11"
         height="4"
         x="1"
         y="-2"
         id="rect23448" />
    </g>
    <path
       d="M 77.800679,44.011471 A 35.920058,35.920058 0 1 0 18.026043,4.1618147 26.940043,26.940043 0 1 0 62.85702,34.049057"
       id="path22776"
       inkscape:connector-curvature="0"
       style="fill:#c60c30" />
    <path
       d="M 18.026043,4.1618147 A 17.960029,17.960029 0 1 0 47.913361,24.086643 17.960029,17.960029 0 1 1 77.800679,44.011471 35.920058,35.920058 0 0 1 18.026043,4.1618147"
       id="path22778"
       inkscape:connector-curvature="0"
       style="fill:#003478" />
  </g>
</svg>
