<?xml version="1.0" encoding="UTF-8" standalone="no"?>
<svg
   xmlns:dc="http://purl.org/dc/elements/1.1/"
   xmlns:cc="http://creativecommons.org/ns#"
   xmlns:rdf="http://www.w3.org/1999/02/22-rdf-syntax-ns#"
   xmlns:svg="http://www.w3.org/2000/svg"
   xmlns="http://www.w3.org/2000/svg"
   xmlns:xlink="http://www.w3.org/1999/xlink"
   id="svg1195"
   version="1.1"
   viewBox="0 0 1500 900"
   height="900"
   width="1500">
  <metadata
     id="metadata1201">
    <rdf:RDF>
      <cc:Work
         rdf:about="">
        <dc:format>image/svg+xml</dc:format>
        <dc:type
           rdf:resource="http://purl.org/dc/dcmitype/StillImage" />
        <dc:title></dc:title>
      </cc:Work>
    </rdf:RDF>
  </metadata>
  <defs
     id="defs1199" />
  <g
     id="g1295">
    <rect
       width="1500"
       height="900"
       id="rect1170"
       x="0"
       y="-6.0000002e-007"
       style="fill:#ffffff;stroke-width:39.52846909" />
    <rect
       style="fill:#005293;stroke-width:39.52846909"
       x="0"
       id="rect1185"
       height="450"
       width="750"
       y="450" />
    <rect
       style="fill:#d21034;stroke-width:39.52846909"
       y="0"
       id="rect1189"
       height="450"
       width="750"
       x="750" />
  </g>
  <g
     style="fill:#d21034"
     id="use1191"
     transform="matrix(37.5,0,0,37.5,1125,675)">
    <g
       id="g1266">
      <path
         id="path1262"
         d="M 0,-3 V 0 H 1.5 Z"
         transform="rotate(18,0,-3)" />
      <use
         xlink:href="#t"
         transform="scale(-1,1)"
         id="use1264"
         x="0"
         y="0"
         width="100%"
         height="100%" />
    </g>
    <use
       xlink:href="#c"
       transform="rotate(72)"
       id="use1268"
       x="0"
       y="0"
       width="100%"
       height="100%" />
    <use
       xlink:href="#c"
       transform="rotate(144)"
       id="use1270"
       x="0"
       y="0"
       width="100%"
       height="100%" />
    <use
       xlink:href="#c"
       transform="rotate(-144)"
       id="use1272"
       x="0"
       y="0"
       width="100%"
       height="100%" />
    <use
       xlink:href="#c"
       transform="rotate(-72)"
       id="use1274"
       x="0"
       y="0"
       width="100%"
       height="100%" />
  </g>
  <g
     id="star"
     transform="matrix(37.5,0,0,37.5,375,225)"
     style="fill:#005293">
    <g
       id="c">
      <path
         id="t"
         d="M 0,-3 V 0 H 1.5 Z"
         transform="rotate(18,0,-3)" />
      <use
         xlink:href="#t"
         transform="scale(-1,1)"
         id="use1173"
         x="0"
         y="0"
         width="100%"
         height="100%" />
    </g>
    <use
       xlink:href="#c"
       transform="rotate(72)"
       id="use1176"
       x="0"
       y="0"
       width="100%"
       height="100%" />
    <use
       xlink:href="#c"
       transform="rotate(144)"
       id="use1178"
       x="0"
       y="0"
       width="100%"
       height="100%" />
    <use
       xlink:href="#c"
       transform="rotate(-144)"
       id="use1180"
       x="0"
       y="0"
       width="100%"
       height="100%" />
    <use
       xlink:href="#c"
       transform="rotate(-72)"
       id="use1182"
       x="0"
       y="0"
       width="100%"
       height="100%" />
  </g>
</svg>
